<?xml version="1.0" standalone="no"?>
<!DOCTYPE svg PUBLIC "-//W3C//DTD SVG 20010904//EN"
 "http://www.w3.org/TR/2001/REC-SVG-20010904/DTD/svg10.dtd">
<svg version="1.0" xmlns="http://www.w3.org/2000/svg"
 width="700.000000pt" height="700.000000pt" viewBox="0 0 700.000000 700.000000"
 preserveAspectRatio="xMidYMid meet">
<metadata>
Created by potrace 1.11, written by Peter Selinger 2001-2013
</metadata>
<g transform="translate(0.000000,700.000000) scale(0.100000,-0.100000)"
fill="#000000" stroke="none">
<path d="M3239 6846 c-2 -2 -29 -6 -59 -9 -144 -16 -225 -28 -395 -62 -72 -14
-269 -70 -370 -105 -215 -74 -466 -191 -659 -307 -80 -49 -323 -216 -336 -232
-3 -4 -30 -26 -60 -51 -180 -147 -397 -376 -550 -580 -58 -78 -190 -275 -190
-284 0 -3 -19 -37 -43 -78 -51 -85 -136 -260 -179 -368 -94 -234 -189 -577
-214 -775 -3 -22 -7 -49 -9 -60 -26 -126 -27 -748 -1 -880 2 -11 9 -54 16 -95
6 -41 18 -100 25 -130 8 -30 17 -71 20 -90 3 -19 21 -89 40 -155 103 -361 234
-643 441 -955 75 -113 113 -164 232 -310 50 -63 326 -337 387 -385 27 -22 57
-46 65 -54 27 -26 154 -117 261 -188 295 -196 648 -353 999 -444 66 -17 255
-57 300 -64 25 -4 72 -11 105 -16 193 -29 669 -31 837 -4 13 2 46 6 73 10 62
8 111 15 139 21 11 3 32 7 46 10 365 73 784 237 1095 429 571 353 1018 857
1298 1463 162 351 256 710 295 1130 14 142 5 582 -13 682 -5 29 -11 68 -20
125 -20 143 -81 384 -143 565 -241 703 -719 1309 -1360 1724 -54 35 -123 77
-153 94 -67 37 -276 142 -283 142 -3 0 -29 11 -58 25 -47 21 -258 100 -298
110 -8 2 -55 16 -105 30 -80 23 -225 56 -295 69 -14 2 -36 7 -50 10 -14 3 -41
7 -60 10 -111 14 -137 18 -160 23 -30 6 -605 15 -611 9z m451 -130 c140 -5
208 -13 395 -47 924 -169 1735 -739 2208 -1554 61 -106 177 -348 220 -460 79
-207 148 -468 172 -645 3 -25 8 -56 11 -70 36 -186 38 -666 4 -860 -5 -30 -12
-74 -15 -97 -14 -116 -88 -407 -140 -553 -209 -583 -542 -1049 -1046 -1462
-356 -291 -909 -547 -1374 -633 -68 -13 -206 -35 -240 -39 -250 -29 -596 -25
-825 9 -52 8 -113 17 -135 20 -22 3 -47 8 -55 11 -8 3 -26 8 -40 10 -31 6
-150 37 -248 64 -219 61 -561 214 -767 342 -399 249 -730 568 -996 958 -24 36
-49 74 -55 85 -6 11 -34 59 -61 106 -60 102 -143 274 -184 379 -16 41 -34 84
-38 95 -37 82 -110 337 -140 490 -71 351 -83 734 -35 1060 3 22 8 54 10 70 54
372 213 814 411 1144 237 396 574 757 944 1013 154 106 349 217 494 280 39 17
88 38 110 48 105 46 393 140 472 153 15 3 57 12 93 21 56 13 143 28 300 50 19
3 89 8 155 12 66 4 121 7 122 8 2 1 106 -2 273 -8z"/>
<path d="M3290 6637 c-3 -3 -41 -7 -85 -11 -44 -3 -96 -9 -115 -12 -537 -80
-970 -249 -1395 -544 -224 -156 -501 -419 -665 -630 -19 -25 -37 -47 -40 -50
-3 -3 -31 -41 -61 -85 -335 -485 -525 -1025 -564 -1605 -5 -81 -6 -330 -1
-395 9 -113 17 -202 21 -215 2 -8 6 -37 10 -65 3 -27 8 -57 10 -65 2 -8 6 -26
9 -40 14 -85 21 -116 47 -215 129 -509 406 -1004 766 -1375 327 -336 642 -554
1054 -728 219 -94 517 -179 719 -208 19 -2 51 -7 70 -10 133 -19 249 -27 425
-28 143 0 320 8 373 19 10 2 43 6 73 10 84 10 294 53 394 81 248 70 476 163
690 282 783 435 1345 1182 1540 2047 19 83 36 164 39 180 29 192 40 324 40
510 0 137 -7 287 -19 375 -12 96 -15 117 -20 140 -3 14 -7 39 -9 55 -3 17 -9
50 -15 75 -5 25 -12 57 -14 71 -3 14 -19 76 -36 138 -148 534 -423 1001 -819
1392 -287 284 -551 463 -957 649 -174 80 -499 179 -685 209 -36 6 -74 13 -85
15 -11 2 -49 7 -85 11 -36 4 -76 10 -90 12 -34 6 -515 15 -520 10z m370 -141
c74 -3 149 -8 165 -10 17 -3 64 -10 105 -16 41 -6 91 -13 110 -16 105 -16 512
-131 545 -154 6 -4 37 -17 70 -30 142 -55 372 -178 526 -281 254 -170 551
-455 740 -709 299 -403 503 -914 563 -1415 30 -239 28 -532 -4 -760 -18 -129
-19 -138 -29 -173 -5 -18 -10 -35 -10 -37 0 -18 -27 -136 -52 -225 -104 -365
-293 -731 -537 -1040 -100 -125 -352 -378 -477 -477 -171 -136 -404 -283 -555
-351 -36 -16 -90 -41 -120 -55 -169 -80 -537 -188 -725 -213 -27 -4 -57 -8
-67 -10 -37 -6 -107 -14 -168 -19 -79 -7 -457 -8 -468 -2 -4 3 -42 8 -85 12
-82 7 -101 10 -182 25 -27 5 -63 12 -80 15 -91 15 -255 59 -385 103 -501 170
-918 448 -1287 858 -357 397 -611 923 -707 1464 -15 90 -23 152 -36 290 -8 86
-5 474 4 520 2 14 10 66 16 115 62 491 269 991 581 1405 460 609 1125 1014
1890 1149 153 27 181 30 344 37 77 4 141 8 143 9 2 2 11 1 20 -1 9 -1 78 -5
152 -8z"/>
<path d="M3432 6309 c-173 -32 -418 -179 -642 -384 -210 -193 -412 -427 -503
-582 -35 -61 -79 -186 -93 -268 -4 -22 -8 -49 -10 -60 -5 -26 -5 -271 0 -310
9 -78 44 -230 69 -300 40 -114 245 -496 280 -520 19 -14 23 -13 38 3 9 9 28
38 43 64 l25 48 -45 26 c-24 14 -64 32 -87 38 -37 11 -45 19 -70 70 l-28 57
30 53 c16 30 31 66 33 81 3 26 -1 29 -74 54 -42 14 -82 31 -88 37 -23 23 -18
54 15 101 162 227 164 247 16 218 -10 -2 -34 -10 -55 -19 -21 -9 -40 -16 -42
-16 -2 0 -4 18 -4 41 0 31 8 50 33 82 35 43 75 133 79 177 3 24 1 25 -53 24
l-56 -1 7 33 c4 18 5 35 2 38 -3 4 2 6 11 6 9 0 19 -4 22 -10 9 -15 72 -3 105
20 16 11 45 44 66 73 54 75 57 77 52 35 -2 -21 0 -38 6 -38 18 0 131 70 171
105 72 65 74 63 40 -43 -18 -53 -52 -157 -76 -231 l-43 -134 22 -15 c35 -23
28 -49 -22 -71 -36 -15 -59 -39 -114 -113 -99 -134 -142 -198 -142 -213 0 -16
74 -37 141 -39 51 -1 54 0 79 39 15 22 37 65 50 95 57 135 52 127 61 105 16
-40 8 -84 -26 -157 -22 -46 -33 -81 -29 -92 8 -21 44 -36 84 -36 19 0 33 -7
40 -19 14 -28 13 -34 -7 -26 -10 4 -31 7 -48 7 -103 0 -106 -1 -144 -41 -69
-72 -87 -144 -44 -177 10 -7 41 -21 70 -30 42 -14 57 -15 80 -5 28 11 73 75
104 144 15 34 22 34 35 -2 9 -22 8 -35 -6 -64 -30 -61 -38 -93 -29 -109 5 -9
39 -28 76 -43 38 -15 83 -43 101 -61 25 -26 32 -30 32 -16 0 10 -4 22 -9 28
-15 16 -118 277 -144 364 -35 118 -58 207 -62 249 -3 20 -8 65 -12 101 -4 36
-8 155 -8 265 0 176 2 206 19 243 12 27 25 42 38 42 16 0 18 -10 19 -127 3
-430 9 -620 24 -691 44 -213 60 -263 131 -409 41 -86 59 -113 74 -113 18 0 18
2 6 31 -27 64 -2 83 162 126 69 18 134 26 228 30 151 6 170 1 180 -54 6 -31 3
-40 -19 -59 -14 -12 -56 -32 -92 -44 -36 -12 -64 -25 -61 -28 12 -12 239 -18
243 -6 2 5 -10 79 -26 164 -26 136 -29 178 -29 340 0 264 20 399 77 509 31 61
54 82 71 65 19 -19 23 -153 7 -244 -17 -95 -20 -427 -6 -569 12 -111 46 -235
71 -258 20 -18 20 -18 14 12 -3 17 -8 46 -11 65 -3 19 -8 46 -10 60 -3 14 -8
41 -10 60 -3 19 -9 62 -14 95 -10 62 -7 297 3 350 34 167 84 332 125 413 l18
34 22 -60 c13 -38 33 -71 53 -88 30 -25 37 -26 108 -22 69 4 81 8 150 53 41
26 111 74 155 106 113 82 155 160 56 103 -39 -22 -45 -23 -55 -9 -10 14 -20
11 -78 -28 -36 -24 -70 -47 -76 -51 -7 -4 -9 15 -7 56 2 35 6 117 10 184 3 67
7 130 9 140 2 10 7 39 11 64 3 25 15 73 26 107 21 64 23 66 79 48 31 -10 30
-29 -5 -130 -51 -147 -25 -154 46 -13 53 105 52 124 -13 186 -102 97 -203 164
-298 199 -71 26 -104 17 -121 -34 -11 -35 -14 -355 -4 -571 5 -102 34 -242 64
-299 18 -36 20 -37 69 -34 58 3 75 -11 33 -28 -70 -29 -115 -11 -152 61 -33
65 -90 307 -105 446 -3 30 -8 65 -10 76 -8 41 -17 203 -18 316 -1 138 15 275
34 294 10 10 94 -65 118 -106 11 -18 44 -43 92 -67 102 -51 139 -76 245 -160
l90 -71 65 1 c36 0 86 -3 112 -8 l47 -8 -53 -120 c-84 -190 -95 -210 -133
-230 -41 -23 -57 -48 -49 -81 19 -75 111 17 221 220 27 49 68 111 92 138 23
27 43 54 43 61 0 7 -30 35 -67 62 -73 54 -137 115 -223 214 -99 114 -134 135
-319 195 -91 30 -245 81 -341 115 -268 94 -370 116 -458 100z m263 -97 c-7
-19 11 -32 48 -32 19 0 27 5 27 17 0 16 1 16 16 1 22 -22 11 -48 -21 -48 -65
0 -136 57 -98 79 22 12 36 4 28 -17z m-306 -24 c12 -29 -10 -47 -92 -77 -67
-24 -84 -18 -73 25 5 20 10 24 19 15 30 -30 120 2 110 39 -8 29 25 26 36 -2z
m153 -68 c-19 -8 -21 -15 -17 -41 8 -45 12 -49 46 -49 65 0 93 38 58 77 -24
25 -20 29 12 13 14 -8 19 -21 19 -49 0 -43 -14 -60 -57 -67 -15 -2 -37 -6 -49
-9 -28 -6 -53 23 -61 69 -7 43 9 66 46 65 26 0 26 0 3 -9z m188 -19 c-13 -26
11 -51 50 -51 22 0 31 6 38 28 10 27 10 27 11 -10 1 -20 -4 -40 -11 -44 -16
-10 -65 -6 -90 7 -39 21 -41 89 -2 89 11 0 12 -4 4 -19z m-602 -7 c40 -28 28
-49 -44 -78 -69 -28 -94 -28 -94 -1 0 17 5 18 29 6 21 -12 77 13 92 41 8 15 7
23 -8 34 -25 19 -3 18 25 -2z m300 -2 c14 -9 32 -65 32 -98 0 -26 -69 -67
-107 -62 -21 2 -34 14 -50 44 l-23 41 21 27 c11 14 26 26 32 26 9 0 9 -2 0 -8
-19 -12 -23 -60 -7 -77 37 -37 130 5 118 53 -7 25 -46 46 -73 39 -28 -7 -27 1
2 13 28 11 39 12 55 2z m-196 -94 c21 -17 45 -60 43 -75 -2 -7 -3 -20 -4 -28
-2 -20 -82 -65 -117 -65 -24 0 -36 9 -63 46 l-32 46 22 24 c24 26 40 25 19 -1
-10 -12 -9 -20 4 -40 23 -35 61 -42 103 -20 45 25 46 67 2 94 -20 12 -26 21
-17 24 20 8 23 8 40 -5z m1106 -84 c85 -39 90 -57 15 -62 -41 -3 -55 1 -79 21
-16 14 -37 39 -47 56 l-19 32 29 -7 c15 -4 61 -22 101 -40z m-622 1 c-11 -8
-30 -15 -41 -15 -12 0 -29 -8 -39 -18 -15 -18 -14 -21 19 -63 19 -24 35 -47
35 -51 0 -4 -25 8 -55 27 -56 37 -99 44 -129 22 -25 -18 -14 -36 69 -106 74
-62 96 -87 53 -59 -66 43 -167 97 -190 103 -35 9 -68 -10 -68 -38 0 -30 35
-62 135 -126 94 -59 92 -65 -5 -16 -84 42 -168 75 -194 75 -31 0 -81 -37 -102
-75 -17 -31 -17 -36 -3 -50 8 -9 80 -40 160 -69 79 -30 191 -74 249 -98 139
-60 172 -55 176 24 1 23 7 44 13 46 15 5 14 -28 -4 -77 -8 -23 -14 -45 -14
-49 0 -4 -5 -29 -11 -57 -6 -27 -13 -60 -16 -72 -2 -12 -19 -42 -38 -66 -27
-35 -35 -56 -37 -94 -3 -60 -15 -96 -39 -118 -18 -16 -18 -15 -4 37 20 77 18
101 -14 131 -65 63 -373 147 -581 160 -85 5 -94 2 -119 -42 -31 -55 -35 -111
-8 -139 l21 -24 -30 -24 -30 -23 -12 22 c-25 43 9 181 61 250 14 18 28 50 31
72 6 32 23 56 86 120 43 44 93 100 112 125 19 25 61 66 93 90 32 24 72 58 89
76 70 72 299 189 395 203 3 0 -4 -6 -14 -14z m-701 -37 c30 -13 55 -55 55 -91
0 -35 -73 -97 -114 -97 -22 0 -71 45 -89 82 -16 32 -15 34 11 62 26 28 74 55
99 56 7 0 24 -5 38 -12z m-165 -183 c47 -50 23 -111 -67 -171 -51 -34 -57 -35
-81 -23 -14 8 -45 33 -69 55 -32 31 -42 46 -36 60 12 31 45 64 106 104 l58 39
33 -19 c18 -11 43 -31 56 -45z m-283 -167 c11 -13 28 -38 37 -56 16 -31 16
-34 -3 -58 -46 -58 -151 -124 -198 -124 -32 0 -49 38 -34 77 10 27 10 27 10 3
-3 -79 12 -84 94 -29 100 67 129 122 87 167 -26 28 -50 28 -84 1 -14 -11 -26
-17 -26 -12 0 12 62 53 81 53 8 0 25 -10 36 -22z m830 -463 c79 -36 167 -135
121 -135 -7 0 -47 6 -88 14 -41 8 -88 17 -105 19 -263 44 -308 54 -300 66 7
12 143 60 195 69 53 10 106 0 177 -33z m-352 -110 c63 -6 103 -11 230 -31 22
-3 72 -12 110 -21 39 -8 79 -16 89 -18 87 -19 126 -45 126 -85 0 -30 -16 -41
-52 -35 -29 4 -99 13 -158 19 -25 3 -115 8 -200 12 -85 3 -177 7 -205 8 -53 3
-109 26 -118 49 -7 17 16 68 39 88 18 16 53 28 64 23 3 -1 37 -5 75 -9z m282
-218 c4 -3 31 -7 58 -11 168 -20 196 -36 188 -108 -7 -58 -17 -75 -49 -81 -36
-6 -372 -1 -449 7 -102 12 -163 27 -187 46 -19 15 -23 27 -22 77 0 33 4 66 9
73 6 10 53 12 226 7 120 -3 222 -7 226 -10z m163 -263 c71 -20 96 -52 85 -110
-11 -63 -22 -66 -330 -68 -152 -1 -280 1 -284 4 -20 12 -71 106 -71 129 0 31
8 43 35 60 32 19 486 7 565 -15z m29 -236 c41 -11 71 -45 71 -82 0 -19 -46
-31 -200 -50 -38 -4 -124 -16 -155 -21 -11 -2 -69 -13 -128 -26 -125 -25 -116
-30 -147 70 l-20 64 21 23 c26 27 35 28 310 31 120 1 223 -3 248 -9z"/>
<path d="M3143 5470 c-45 -10 -79 -34 -108 -78 -28 -42 -36 -79 -24 -104 11
-20 47 -31 179 -53 52 -9 169 -37 259 -62 185 -51 230 -53 268 -8 27 31 30 77
6 101 -26 26 -264 137 -368 172 -97 33 -161 43 -212 32z"/>
<path d="M2955 5872 c-30 -5 -65 -34 -70 -59 -6 -32 49 -86 79 -77 64 19 91
65 63 108 -17 25 -39 34 -72 28z"/>
<path d="M2712 5713 c-42 -21 -82 -68 -82 -98 0 -60 90 -86 146 -43 40 31 64
59 64 74 0 26 -23 62 -47 73 -31 14 -42 14 -81 -6z"/>
<path d="M4634 5586 c-11 -8 -56 -74 -99 -146 -65 -107 -84 -132 -107 -137
-37 -7 -59 -34 -65 -80 -4 -27 -1 -43 10 -51 12 -10 22 -5 56 31 23 24 49 54
58 68 9 13 20 26 23 29 19 14 87 125 122 198 41 85 42 116 2 88z"/>
<path d="M2559 5127 c-67 -28 -88 -42 -122 -83 -29 -35 -81 -143 -92 -192 -6
-28 -4 -32 21 -38 39 -10 124 20 162 57 40 40 112 181 119 237 7 51 -4 53 -88
19z"/>
<path d="M2676 3950 c-20 -22 -36 -47 -36 -55 0 -16 10 -17 175 -17 165 0 160
-1 144 19 -17 19 -62 39 -145 63 -34 10 -71 21 -82 24 -14 5 -29 -4 -56 -34z"/>
<path d="M4334 3801 c-2 -2 -4 -155 -4 -339 l0 -335 369 5 c323 5 371 8 394
23 44 28 58 60 61 139 4 83 -13 144 -43 165 -20 13 -20 13 4 49 21 31 25 49
25 110 0 120 -33 170 -117 178 -64 6 -683 11 -689 5z m610 -187 c3 -9 6 -29 6
-45 0 -34 22 -31 -232 -33 l-178 -1 0 47 0 48 199 0 c172 0 200 -2 205 -16z
m-6 -233 c11 -7 15 -25 13 -58 l-1 -23 -205 1 -205 1 0 44 0 45 194 -2 c107
-1 199 -5 204 -8z"/>
<path d="M5860 3781 c-14 -15 -63 -73 -109 -130 -68 -82 -87 -100 -95 -89 -16
20 -89 111 -101 124 -5 6 -28 34 -50 61 l-40 51 -127 -1 c-88 -1 -125 -4 -119
-11 17 -24 87 -112 108 -136 11 -14 69 -83 127 -153 l106 -128 0 -112 0 -112
108 0 107 0 0 107 0 108 173 216 c95 119 171 218 169 220 -2 2 -55 5 -118 7
-112 3 -115 3 -139 -22z"/>
<path d="M934 3790 c-31 -12 -70 -56 -81 -93 -6 -19 -9 -75 -8 -125 2 -100 16
-135 62 -153 33 -12 213 -24 367 -24 115 0 116 0 124 -25 5 -14 5 -39 0 -56
l-8 -31 -166 3 c-172 4 -190 8 -196 47 -3 21 -8 22 -93 22 l-90 0 -3 -60 c-4
-66 12 -107 53 -138 22 -16 51 -17 297 -17 310 1 318 1 352 24 52 33 60 59 58
179 0 62 -6 121 -12 133 -7 12 -29 31 -50 43 -35 20 -57 22 -252 27 -228 5
-238 7 -232 56 1 13 3 27 3 31 1 4 78 7 171 6 l170 -2 13 -26 c12 -25 17 -26
101 -29 l88 -2 -5 64 c-6 73 -16 93 -65 127 -35 24 -37 24 -307 25 -149 0
-280 -2 -291 -6z"/>
<path d="M2409 3790 l-36 -5 2 -95 c1 -52 -2 -103 -5 -113 -6 -17 -21 -18
-215 -17 -115 0 -211 3 -214 5 -2 3 -5 53 -5 112 l-1 108 -104 0 -104 0 -1
-322 -1 -322 80 -3 c135 -5 125 -14 125 113 l0 109 220 0 220 0 0 -110 0 -110
110 0 110 0 0 329 0 328 -72 -1 c-40 0 -89 -3 -109 -6z"/>
<path d="M2695 3465 l0 -325 180 -1 c99 0 266 -2 371 -4 l190 -3 0 79 0 79
-265 2 -265 3 -1 45 0 45 248 3 247 2 0 75 0 75 -245 0 -245 0 0 53 0 53 253
-1 c138 0 259 1 267 3 11 2 15 15 13 50 -1 26 -2 57 -2 70 l-1 22 -373 0 -373
0 1 -325z"/>
<path d="M3569 3603 c0 -104 -2 -250 -2 -326 l-2 -137 70 -1 c39 0 192 -2 340
-5 l270 -5 1 80 0 81 -228 0 -228 0 0 250 0 250 -110 0 -110 0 -1 -187z"/>
<path d="M3073 3053 c-9 -3 -5 -16 12 -43 49 -78 175 -337 214 -440 67 -181
106 -384 104 -553 -1 -76 -5 -96 -30 -145 -15 -31 -40 -65 -55 -76 l-27 -19
-48 40 c-99 82 -344 232 -453 278 -138 58 -211 70 -421 70 l-156 0 -84 -42
c-137 -68 -272 -216 -327 -359 -32 -81 -33 -105 -8 -154 l22 -44 -53 -106
c-79 -154 -77 -195 9 -277 52 -48 206 -146 280 -176 20 -9 72 -23 115 -31 263
-54 360 -64 602 -61 119 1 239 5 266 9 28 4 68 9 90 11 22 3 51 7 65 10 14 3
54 5 90 3 36 -1 153 -2 260 -2 220 0 241 4 413 79 55 25 103 42 107 40 4 -2
35 -9 71 -14 35 -6 75 -13 89 -16 71 -15 141 -20 305 -20 198 0 206 1 329 46
149 54 228 151 227 281 0 54 -6 75 -43 148 -38 76 -61 103 -218 261 -175 175
-264 251 -350 294 -60 30 -64 36 -85 125 -10 41 -59 181 -110 310 -51 129
-113 296 -139 370 -26 74 -53 151 -59 170 l-13 35 -357 -1 c-400 -1 -371 5
-398 -76 -18 -55 -7 -79 51 -112 l52 -28 24 23 c13 12 24 21 25 18 7 -39 13
-57 34 -99 14 -28 23 -50 20 -50 -3 0 -19 7 -35 15 -29 15 -30 15 -50 -17 -11
-18 -20 -40 -20 -48 0 -19 89 -99 110 -100 9 0 21 5 28 12 15 15 22 8 24 -28
1 -16 9 -40 19 -54 9 -14 24 -41 34 -60 l17 -35 -45 44 -45 44 -26 -26 c-32
-32 -32 -38 -1 -76 25 -29 93 -77 99 -70 2 2 11 18 19 34 16 30 16 30 18 5 1
-14 1 -40 0 -58 -2 -22 6 -47 21 -70 49 -74 56 -130 24 -194 -15 -29 -22 -56
-18 -62 5 -6 23 -29 41 -52 17 -22 34 -57 37 -76 6 -32 3 -37 -31 -58 -20 -12
-34 -27 -32 -34 2 -6 15 -43 27 -83 22 -66 22 -73 8 -95 -9 -13 -34 -30 -57
-38 -37 -12 -41 -16 -41 -47 0 -18 6 -49 14 -68 26 -60 2 -85 -80 -85 -35 0
-48 -39 -30 -90 12 -36 12 -41 -7 -61 -17 -18 -26 -20 -75 -14 -31 4 -64 8
-73 10 -30 6 -49 -18 -56 -70 -3 -28 -7 -57 -9 -65 -1 -8 -3 -18 -3 -21 -2
-18 -45 -14 -102 10 -75 32 -108 33 -123 6 -35 -63 -37 -63 -34 -1 l3 59 -44
34 -44 34 34 -6 c19 -3 42 -8 51 -11 11 -3 26 8 45 31 15 19 31 35 36 35 4 0
7 -17 7 -38 0 -42 21 -68 75 -94 47 -24 67 -11 85 52 12 42 -2 67 -55 100 -26
16 -33 25 -24 31 7 4 21 3 30 -2 29 -15 49 0 49 38 0 19 7 47 16 62 15 25 21
27 65 23 l48 -3 -15 48 c-8 26 -17 63 -21 81 -5 29 -3 32 18 33 37 1 62 5 87
13 27 9 25 22 -24 114 -19 35 -32 67 -29 72 3 4 25 11 49 14 25 4 55 15 66 24
l21 17 -23 34 c-13 19 -38 42 -57 52 -19 10 -38 24 -42 30 -9 16 0 40 15 38
48 -6 107 32 102 65 -5 35 -64 104 -95 111 -17 4 -31 7 -31 8 0 1 -4 16 -9 34
-8 29 -7 32 12 31 12 0 29 0 37 1 21 2 60 62 60 93 0 56 -68 100 -124 78 -20
-7 -25 -5 -30 13 -10 37 -7 47 14 47 26 0 70 43 70 67 0 10 -20 40 -45 67 -44
48 -51 50 -95 32 -12 -5 -20 6 -33 40 l-17 46 25 -5 c19 -3 32 3 50 25 14 16
25 33 25 38 0 31 -26 63 -71 89 -41 23 -57 28 -76 20 -29 -11 -43 -4 -43 19 0
10 -12 35 -26 56 l-27 39 29 -6 c16 -4 39 -9 51 -13 17 -5 25 0 37 25 29 55
12 80 -40 60 -15 -5 -36 -6 -48 -3 -26 9 -97 13 -113 7z m885 -43 c38 -23 100
-142 109 -207 9 -65 0 -68 -239 -71 -132 -1 -216 2 -229 8 -25 14 -121 213
-117 243 5 34 69 45 268 46 159 1 178 -1 208 -19z m152 -345 c13 -11 38 -51
56 -90 42 -91 37 -141 -16 -146 -115 -11 -389 -20 -412 -14 -22 6 -32 24 -67
114 -22 59 -41 112 -41 118 0 11 39 29 75 35 11 2 102 4 201 3 167 0 184 -2
204 -20z m116 -314 c39 -24 64 -76 64 -133 0 -65 -12 -75 -105 -83 -44 -4 -98
-9 -120 -11 -22 -2 -84 -4 -138 -4 -82 -1 -102 2 -119 17 -24 21 -46 73 -57
131 -8 38 -6 45 14 58 12 8 42 17 66 20 24 4 67 10 94 14 28 4 100 8 160 9 91
1 115 -2 141 -18z m75 -270 c35 -3 56 -118 27 -147 -18 -18 -320 -68 -408 -67
-66 1 -71 3 -85 36 -17 40 -22 124 -9 136 8 8 99 21 259 38 28 3 51 6 52 7 2
2 138 0 164 -3z m-1620 -57 c43 -42 38 -57 -28 -77 -65 -19 -72 -16 -97 45
-17 39 -11 52 29 60 38 8 66 0 96 -28z m-181 -66 c25 -57 24 -59 -42 -94 -33
-17 -37 -12 -53 68 -14 65 -7 77 46 78 22 0 30 -8 49 -52z m-335 -80 c-4 -47
-26 -74 -80 -99 -59 -27 -66 -25 -61 19 10 89 16 100 60 116 82 29 86 28 81
-36z m776 35 c8 -8 0 -10 -30 -6 -39 5 -41 4 -41 -21 0 -63 41 -86 80 -44 l20
22 0 -22 c0 -14 -11 -27 -30 -37 -52 -27 -66 -21 -90 42 -11 31 -19 62 -16 69
6 15 91 13 107 -3z m-153 -87 c37 -76 34 -88 -27 -113 -46 -19 -49 -11 -6 18
41 28 45 57 16 106 -23 37 -49 47 -84 34 -46 -18 -56 -75 -22 -127 11 -18 12
-24 3 -24 -20 0 -36 33 -44 88 -6 44 -4 51 14 61 24 13 92 30 107 27 6 -1 25
-32 43 -70z m1549 -23 c-3 -30 -13 -66 -22 -80 -32 -48 -121 -71 -318 -80
-114 -5 -130 -4 -147 12 -37 34 -16 153 28 156 9 1 33 3 52 4 127 8 196 17
310 39 97 18 104 14 97 -51z m-2379 -22 c-10 -54 -34 -97 -70 -124 -32 -24
-48 -16 -48 27 0 53 36 123 78 151 33 22 37 23 43 8 3 -9 2 -37 -3 -62z m592
30 c19 -36 6 -85 -14 -52 -3 5 -22 12 -41 15 -42 8 -44 20 -7 40 36 20 49 20
62 -3z m-192 -39 c31 -24 41 -42 23 -42 -5 0 -39 -18 -76 -41 -79 -48 -85 -44
-85 43 l0 57 43 9 c46 10 48 9 95 -26z m2092 -1 c0 -5 -7 -11 -15 -15 -18 -7
-20 -59 -2 -74 6 -6 24 -13 38 -17 22 -5 28 -2 42 27 9 18 17 26 17 18 0 -20
-26 -57 -50 -70 -14 -8 -24 -3 -49 22 -34 35 -41 77 -15 102 17 18 34 21 34 7z
m-2292 -115 c0 -64 -3 -77 -22 -93 -63 -54 -88 -73 -95 -73 -12 0 -31 73 -31
122 0 33 6 50 23 66 30 28 77 52 104 52 20 0 21 -5 21 -74z m352 4 c6 -43 31
-50 71 -21 32 24 68 19 47 -6 -7 -8 -38 -33 -69 -54 l-57 -38 -15 37 c-20 52
-30 100 -22 112 14 22 40 5 45 -30z m-101 -18 c5 -10 14 -51 20 -92 11 -83 15
-75 -68 -162 -24 -26 -48 -45 -52 -42 -5 3 -15 19 -23 37 -61 139 -53 192 39
251 46 30 71 33 84 8z m762 -69 c-23 -104 -48 -114 -105 -38 -34 44 -28 65 17
65 23 0 41 8 57 25 35 37 46 18 31 -52z m-361 38 c0 -26 25 -44 50 -36 13 4
20 15 20 31 0 21 4 25 23 22 12 -2 22 -8 22 -14 0 -15 -107 -104 -117 -98 -5
3 -17 23 -29 45 -16 32 -18 44 -8 55 16 20 39 17 39 -5z m550 5 c0 -5 -5 -26
-12 -47 -11 -39 -28 -53 -28 -24 0 20 -34 19 -54 -1 -22 -21 -20 -46 5 -77 20
-26 20 -27 2 -52 -23 -31 -40 -32 -54 -2 -8 18 -6 45 11 112 11 49 25 92 31
96 16 9 99 6 99 -5z m1500 4 c12 -8 11 -10 -6 -10 -15 0 -24 -8 -28 -27 -15
-58 26 -100 120 -123 58 -14 67 -40 15 -40 -26 0 -41 -5 -45 -16 -8 -21 -6
-126 3 -192 7 -52 7 -54 -24 -78 -41 -31 -63 -30 -133 4 -31 15 -67 26 -79 24
-12 -2 -42 -25 -68 -53 -41 -44 -75 -63 -75 -41 0 4 18 33 39 66 24 35 37 65
33 75 -10 28 -48 85 -69 104 -20 17 -22 17 -74 -14 -85 -49 -98 -65 -89 -102
16 -63 21 -127 11 -127 -6 0 -23 18 -37 40 -31 46 -40 48 -97 19 -98 -51 -146
-42 -64 12 70 46 83 74 62 135 -24 72 -12 85 34 35 21 -22 47 -41 57 -41 23 0
100 76 106 105 3 11 -6 39 -20 63 -28 49 -16 55 42 21 l36 -21 61 41 c36 24
74 41 93 42 39 2 33 2 89 -5 54 -7 55 -5 33 67 l-14 47 36 0 c21 0 44 -5 52
-10z m-586 -72 c-27 -80 -43 -102 -94 -128 -65 -33 -142 -48 -285 -55 -108 -6
-135 0 -135 30 0 45 65 182 90 190 19 6 105 12 280 20 74 4 137 9 139 11 2 2
10 4 17 4 9 0 6 -20 -12 -72z m-1544 -20 c11 -24 19 -52 19 -63 0 -27 -122
-220 -139 -220 -19 0 -48 57 -66 126 -13 52 -13 61 0 88 16 30 127 111 153
111 8 0 23 -19 33 -42z m313 -64 c32 -42 57 -86 57 -98 0 -40 -42 -90 -88
-106 -53 -18 -63 -12 -108 61 -47 75 -53 118 -23 150 31 32 81 68 95 69 6 0
36 -34 67 -76z m-862 15 c14 -28 24 -119 12 -119 -5 0 -31 14 -57 31 -51 34
-51 39 4 86 31 27 27 27 41 2z m-256 -72 c-28 -23 -49 -95 -35 -118 14 -22
101 -5 127 25 21 25 40 36 28 16 -12 -19 39 -38 92 -35 62 5 69 -2 78 -75 4
-30 9 -58 12 -62 8 -14 48 -8 86 11 l38 19 54 -55 c41 -42 59 -54 72 -48 53
21 56 20 39 -13 -16 -31 -16 -31 21 -61 41 -34 38 -39 -7 -16 -42 22 -71 24
-109 9 -18 -8 -43 -14 -55 -14 -20 1 -19 2 7 25 30 27 35 60 11 93 -20 29 -38
28 -98 -6 -35 -19 -50 -34 -53 -51 -5 -35 -7 -35 -41 -6 -27 23 -37 25 -75 20
-48 -7 -116 14 -118 37 0 7 -2 31 -3 53 -4 70 -13 85 -51 85 -21 0 -44 -9 -63
-25 -37 -31 -43 -31 -73 1 l-24 26 38 30 c30 24 37 36 37 66 0 37 -23 72 -48
72 -27 0 5 25 35 28 15 1 34 11 42 23 14 20 14 20 38 -5 l24 -26 -26 -23z
m571 -63 c8 -19 17 -49 21 -66 6 -29 5 -30 -28 -25 -53 7 -119 29 -119 40 0
14 83 87 98 87 7 0 20 -16 28 -36z m340 -46 c13 -26 24 -49 24 -52 0 -3 -21
-8 -47 -11 -27 -4 -57 -8 -69 -10 -11 -2 -27 0 -33 5 -15 8 4 51 47 108 29 39
41 33 78 -40z m1347 29 c-17 -29 -63 -94 -84 -119 -24 -27 -58 -44 -107 -53
-117 -20 -138 -22 -284 -30 -93 -6 -128 -4 -128 4 0 12 89 113 131 148 22 19
43 24 115 28 120 7 185 14 274 29 79 14 95 12 83 -7z m-1425 -182 c15 -14 32
-26 39 -26 7 -1 19 -2 26 -3 6 -1 24 11 39 26 14 15 33 28 42 28 20 0 20 2 -4
-45 -11 -22 -17 -47 -14 -57 4 -14 0 -18 -18 -18 -36 0 -107 28 -144 57 -19
14 -47 27 -62 28 -15 1 -35 5 -44 9 -32 14 -8 26 53 26 50 0 64 -4 87 -25z
m1179 -68 c8 -9 -52 -34 -128 -53 -80 -21 -328 -24 -359 -4 -12 7 -10 12 10
30 13 11 33 23 44 25 50 12 422 13 433 2z"/>
<path d="M2602 2039 c-16 -6 -22 -15 -20 -30 4 -31 31 -45 64 -34 36 13 40 29
15 54 -23 23 -26 24 -59 10z"/>
<path d="M2417 1983 c-3 -5 0 -24 7 -43 12 -38 41 -47 59 -18 17 26 -7 68 -37
68 -14 0 -27 -3 -29 -7z"/>
<path d="M2075 1886 c-13 -13 -22 -32 -21 -42 4 -30 41 -29 64 1 37 46 -1 83
-43 41z"/>
<path d="M1886 1784 c-33 -32 -33 -94 -1 -94 17 0 45 56 45 90 0 24 -22 26
-44 4z"/>
<path d="M2059 1663 c-31 -36 -19 -86 19 -81 22 2 29 10 36 40 5 21 7 40 4 43
-13 13 -48 12 -59 -2z"/>
<path d="M2317 1572 c-39 -43 -19 -134 26 -116 30 11 49 58 36 91 -17 44 -37
53 -62 25z"/>
<path d="M4634 1487 c-9 -5 -29 -29 -44 -54 -33 -51 -29 -77 18 -125 43 -46
64 -38 101 40 17 38 31 81 31 95 0 45 -60 69 -106 44z"/>
<path d="M4782 1437 c-17 -20 -53 -125 -58 -171 -5 -34 -1 -42 34 -76 43 -40
88 -58 106 -40 6 6 10 52 10 113 0 81 -4 111 -20 142 -20 43 -52 56 -72 32z"/>
<path d="M2600 1471 c-26 -26 -28 -32 -20 -62 14 -48 34 -66 55 -49 39 32 51
94 24 127 -17 19 -27 16 -59 -16z"/>
<path d="M2953 1447 c-27 -12 -30 -47 -7 -82 39 -59 98 1 64 64 -13 25 -30 30
-57 18z"/>
<path d="M2063 1263 c-36 -18 -41 -28 -48 -96 -4 -38 -1 -51 15 -67 16 -16 25
-18 45 -10 50 19 84 40 99 62 19 27 21 99 4 116 -17 17 -77 14 -115 -5z"/>
<path d="M3595 2231 c-63 -38 -65 -64 -10 -129 33 -39 70 -42 107 -7 l28 25
-30 48 c-16 27 -38 56 -48 65 -17 15 -20 15 -47 -2z"/>
<path d="M3605 1979 c-49 -28 -55 -39 -40 -70 37 -71 88 -100 128 -74 38 25
39 50 4 103 -33 49 -58 60 -92 41z"/>
<path d="M3573 1743 c-38 -7 -48 -29 -33 -73 21 -62 50 -84 106 -77 63 7 79
27 58 76 -30 71 -59 88 -131 74z"/>
<path d="M3521 1529 c-50 -11 -63 -27 -51 -70 17 -60 70 -93 126 -77 41 11 46
27 28 87 -16 56 -45 73 -103 60z"/>
<path d="M3328 1358 c-8 -22 11 -73 34 -95 27 -26 99 -44 121 -32 25 15 -6 95
-47 120 -35 21 -102 25 -108 7z"/>
</g>
</svg>
