<?xml version="1.0" standalone="no"?>
<!DOCTYPE svg PUBLIC "-//W3C//DTD SVG 20010904//EN"
 "http://www.w3.org/TR/2001/REC-SVG-20010904/DTD/svg10.dtd">
<svg version="1.0" xmlns="http://www.w3.org/2000/svg"
 width="366.000000pt" height="366.000000pt" viewBox="0 0 366.000000 366.000000"
 preserveAspectRatio="xMidYMid meet">
<metadata>
Created by potrace 1.11, written by Peter Selinger 2001-2013
</metadata>
<g transform="translate(0.000000,366.000000) scale(0.100000,-0.100000)"
fill="#000000" stroke="none">
<path d="M1608 3174 c-162 -25 -333 -112 -478 -241 -30 -27 -148 -141 -262
-253 -462 -457 -847 -841 -852 -849 -5 -8 212 -228 675 -683 245 -241 292
-280 411 -347 152 -85 325 -91 443 -14 22 14 112 99 200 188 88 90 270 275
404 412 285 290 296 307 296 443 0 123 -23 164 -179 320 l-124 124 46 59 46
58 55 -53 c338 -324 356 -349 356 -508 -1 -84 -4 -102 -30 -155 -30 -63 -41
-74 -386 -409 -90 -88 -291 -283 -447 -435 l-283 -276 48 -21 c198 -87 450
-72 653 39 50 27 104 60 110 67 3 3 30 24 60 46 52 39 227 209 880 858 l291
289 -38 39 c-168 173 -787 781 -868 852 -99 88 -227 167 -292 181 -10 2 -29 8
-43 13 -15 6 -64 9 -110 8 -140 -4 -173 -24 -375 -231 -93 -95 -270 -275 -392
-399 -122 -125 -238 -245 -257 -269 -48 -58 -69 -131 -64 -214 6 -109 36 -158
181 -303 l125 -124 -31 -39 c-18 -22 -39 -48 -47 -59 -15 -18 -24 -11 -186
146 -181 175 -213 218 -236 321 -17 75 -3 178 33 245 29 55 47 72 852 854
l257 249 -27 14 c-109 56 -275 79 -415 57z"/>
</g>
</svg>
