<!--?xml version="1.0" standalone="no"?-->
<svg xmlns="http://www.w3.org/2000/svg" version="1.0" width="1600.000000pt" height="1600.000000pt" viewBox="0 0 1600.000000 1600.000000" preserveAspectRatio="xMidYMid meet">
    <metadata>
    Created by potrace 1.15, written by Peter Selinger 2001-2017
    </metadata>
    <g transform="translate(0.000000,1600.000000) scale(0.100000,-0.100000)" fill="#000000" stroke="none">
    <path d="M7425 15644 c-614 -51 -1141 -152 -1695 -326 -978 -306 -1853 -777 -2595 -1398 -847 -708 -1470 -1482 -1956 -2425 -439 -855 -728 -1850 -816 -2815 -22 -244 -25 -1052 -5 -1305 75 -930 332 -1873 743 -2725 297 -613 655 -1157 1113 -1690 133 -154 570 -594 728 -732 605 -529 1244 -935 1983 -1261 731 -322 1643 -556 2410 -619 217 -18 1162 -18 1335 0 591 60 1037 147 1554 303 688 206 1334 504 1936 892 631 407 1225 930 1726 1522 935 1105 1551 2520 1734 3984 39 309 50 502 50 896 0 718 -42 1127 -176 1715 -267 1168 -780 2235 -1508 3140 -381 473 -879 956 -1357 1317 -1106 833 -2397 1344 -3799 1503 -343 39 -1074 51 -1405 24z m865 -284 c348 -10 560 -30 890 -85 649 -109 1280 -297 1825 -543 213 -96 281 -130 445 -217 1235 -658 2254 -1642 2946 -2845 513 -892 845 -1928 948 -2960 133 -1323 -111 -2691 -701 -3920 -438 -913 -1063 -1718 -1874 -2415 -1058 -909 -2436 -1515 -3849 -1695 -316 -40 -595 -53 -1030 -47 -489 6 -703 25 -1130 98 -878 151 -1811 498 -2560 953 -497 301 -933 643 -1369 1071 -418 411 -721 780 -1021 1245 -239 370 -491 861 -658 1280 -461 1158 -619 2409 -462 3645 130 1013 482 2024 1007 2888 720 1185 1766 2153 2988 2764 740 371 1494 606 2311 722 492 70 675 79 1294 61z"></path>
    <path d="M7645 15173 c-236 -15 -365 -26 -501 -43 -636 -81 -1230 -233 -1810 -465 -497 -199 -865 -392 -1304 -685 -424 -282 -671 -483 -1044 -850 -421 -414 -712 -765 -998 -1205 -652 -1002 -1031 -2100 -1145 -3315 -22 -233 -25 -956 -5 -1180 88 -986 319 -1806 757 -2680 351 -701 762 -1269 1319 -1825 496 -495 985 -870 1536 -1177 833 -465 1677 -748 2620 -878 380 -52 937 -73 1330 -51 1003 58 1961 313 2850 762 680 342 1274 773 1820 1319 695 694 1182 1414 1555 2301 939 2231 696 4781 -648 6794 -421 630 -962 1208 -1582 1690 -556 432 -1232 805 -1905 1052 -680 250 -1341 388 -2070 433 -149 9 -649 11 -775 3z m925 -332 c365 -37 572 -69 908 -141 879 -189 1740 -569 2494 -1098 315 -222 508 -384 822 -692 276 -271 388 -394 580 -634 310 -388 514 -704 737 -1141 408 -796 640 -1593 735 -2515 24 -238 30 -822 10 -1100 -52 -754 -232 -1502 -529 -2205 -508 -1199 -1394 -2275 -2472 -3000 -960 -646 -2019 -1029 -3185 -1151 -232 -25 -997 -31 -1220 -10 -586 55 -1095 161 -1620 336 -765 256 -1469 638 -2089 1134 -440 352 -919 844 -1241 1276 -557 747 -988 1687 -1189 2590 -223 1004 -224 2028 -1 3015 344 1527 1207 2899 2440 3877 950 754 2089 1240 3325 1419 312 45 488 56 915 58 314 1 421 -3 580 -18z"></path>
    <path d="M7885 14433 c-109 -15 -411 -125 -581 -211 -308 -158 -745 -495 -1128 -872 -502 -494 -860 -936 -1006 -1242 -97 -204 -172 -520 -190 -793 -14 -224 1 -528 35 -710 38 -205 93 -438 127 -535 51 -145 241 -520 485 -955 111 -198 133 -229 174 -251 56 -28 78 -6 182 187 54 100 58 89 -58 158 -39 24 -121 58 -187 79 l-116 37 -20 45 c-11 25 -37 82 -57 128 l-37 83 72 129 c124 223 123 231 -36 279 -245 74 -268 85 -290 136 -30 74 -14 110 144 318 121 159 184 260 203 326 12 42 12 45 -12 64 -47 39 -238 8 -398 -64 -35 -16 -65 -29 -67 -29 -2 0 -4 46 -4 102 l0 101 64 66 c35 37 78 95 96 131 37 73 110 289 110 324 0 45 -88 54 -207 21 -28 -8 -54 -15 -58 -15 -7 0 -5 14 22 138 l15 72 33 -29 c45 -39 89 -45 164 -22 123 38 175 87 321 306 30 44 56 73 58 66 2 -7 -1 -47 -8 -88 -6 -41 -9 -77 -6 -81 10 -9 228 105 298 156 33 24 110 86 170 138 60 52 111 94 113 94 3 0 -7 -30 -21 -67 -50 -130 -85 -239 -139 -428 -55 -194 -108 -355 -151 -457 -13 -32 -24 -73 -24 -93 0 -31 6 -40 45 -67 70 -50 73 -103 7 -131 -20 -8 -62 -25 -93 -37 -31 -12 -65 -29 -75 -39 -22 -21 -297 -395 -401 -546 -120 -173 -108 -190 169 -240 122 -22 176 -15 218 26 34 35 135 237 210 424 28 72 55 133 59 138 4 4 17 -39 30 -95 l22 -103 -69 -145 c-97 -203 -107 -233 -93 -268 7 -15 24 -35 39 -44 35 -20 120 -38 183 -38 49 0 50 -1 69 -42 11 -24 20 -51 20 -61 0 -17 -2 -17 -32 0 -41 21 -183 28 -292 15 -77 -10 -80 -12 -133 -64 -68 -66 -170 -216 -179 -263 -9 -51 4 -123 28 -147 11 -11 63 -41 116 -66 91 -44 102 -47 179 -47 67 0 87 4 110 21 43 31 126 155 193 288 66 131 59 130 95 14 l18 -57 -56 -119 c-58 -120 -69 -171 -47 -213 13 -23 121 -79 245 -126 129 -49 132 -50 187 -125 52 -69 75 -86 62 -45 -3 12 -34 83 -67 157 -203 456 -219 497 -302 770 -142 465 -175 680 -194 1245 -11 303 -1 567 24 638 45 131 73 177 109 177 54 -1 50 43 57 -802 7 -828 9 -854 60 -1133 71 -385 177 -689 350 -1007 58 -108 84 -138 116 -138 28 0 29 10 3 78 -27 72 -27 133 3 159 12 11 33 26 46 33 40 21 194 68 339 104 256 64 266 66 573 66 l284 1 23 -28 c12 -15 30 -53 39 -83 32 -111 -19 -169 -204 -230 -210 -70 -231 -81 -175 -95 27 -7 544 -26 550 -20 2 1 -15 97 -38 211 -88 452 -101 542 -107 779 -6 243 9 634 32 814 36 277 133 558 230 664 47 51 68 49 99 -10 45 -89 47 -286 4 -499 l-31 -159 -4 -415 c-5 -456 7 -748 37 -924 20 -114 67 -292 94 -358 16 -38 72 -108 86 -108 4 0 -1 46 -12 103 -95 514 -113 673 -113 987 1 331 30 525 130 867 79 271 189 550 221 560 6 2 16 -19 22 -47 33 -143 123 -284 206 -324 69 -33 318 -16 404 28 128 65 605 399 670 470 49 54 77 107 68 131 -12 31 -106 -5 -197 -77 -46 -35 -52 -35 -44 2 8 35 -9 46 -51 36 -14 -4 -95 -54 -181 -112 l-156 -106 7 44 c3 23 11 180 16 348 15 477 60 791 140 966 l28 62 67 -14 c111 -23 130 -44 115 -125 -11 -54 -59 -193 -100 -284 -38 -85 -46 -133 -27 -160 15 -19 16 -19 51 18 41 44 189 337 207 410 19 79 3 113 -99 206 -108 99 -306 258 -392 315 -121 81 -289 159 -395 186 -104 26 -183 -23 -207 -128 -16 -69 -15 -821 1 -1217 11 -258 21 -334 71 -535 38 -152 54 -196 93 -253 l32 -48 87 7 c138 10 196 -11 136 -50 -71 -45 -200 -61 -257 -32 -104 54 -190 249 -270 611 -83 375 -134 785 -162 1290 -14 248 -8 379 26 615 28 188 41 250 54 250 33 0 246 -211 279 -276 28 -55 46 -69 150 -114 208 -90 427 -234 695 -457 136 -113 135 -113 348 -87 33 4 56 1 79 -11 19 -10 68 -19 121 -22 49 -3 89 -7 89 -8 0 -2 -15 -36 -34 -76 -19 -41 -58 -132 -87 -203 -29 -71 -93 -210 -143 -310 l-91 -181 -62 -30 c-76 -37 -89 -49 -114 -96 -25 -50 -24 -100 2 -133 26 -33 54 -33 110 2 92 59 235 256 368 507 139 264 152 285 224 349 38 34 77 79 89 105 l21 44 -40 36 c-22 20 -93 75 -159 123 -162 119 -228 180 -347 322 -55 66 -166 186 -246 266 -194 193 -166 180 -731 355 -118 36 -343 114 -500 172 -532 197 -723 254 -968 287 -111 16 -138 17 -197 9z m562 -213 c-18 -48 6 -83 66 -94 64 -13 101 0 105 37 2 15 7 27 12 27 17 0 49 -36 56 -62 7 -33 -32 -78 -69 -78 -42 0 -177 39 -206 60 -26 18 -61 74 -61 98 0 22 33 42 70 42 l38 0 -11 -30z m-699 -48 c17 -22 15 -73 -4 -100 -20 -29 -102 -69 -238 -117 l-109 -39 -23 30 c-30 37 -30 71 0 109 l24 30 26 -28 c21 -22 33 -27 73 -27 48 0 123 28 155 57 20 17 24 58 8 68 -18 11 -11 34 13 38 31 6 60 -2 75 -21z m357 -181 c-28 -10 -51 -25 -53 -34 -2 -9 2 -42 7 -73 18 -96 57 -122 153 -103 82 16 118 48 118 101 0 35 -7 47 -44 84 -43 43 -43 44 -17 44 62 0 101 -58 101 -150 0 -77 -11 -97 -63 -120 -62 -27 -219 -47 -252 -32 -37 17 -67 91 -73 179 -4 66 -3 73 21 97 23 23 34 26 89 25 l63 -1 -50 -17z m434 0 c12 -8 12 -12 -2 -26 -20 -20 -31 -59 -23 -80 11 -29 69 -55 123 -55 64 0 83 17 83 73 0 39 1 40 18 24 12 -13 17 -34 17 -72 0 -43 -5 -59 -25 -80 -24 -26 -29 -27 -93 -22 -126 11 -173 48 -191 150 -6 33 -3 41 23 67 31 31 46 36 70 21z m-1388 -54 c43 -29 64 -66 56 -99 -5 -20 -24 -33 -89 -63 -111 -51 -216 -87 -241 -83 -29 4 -52 48 -43 82 l7 27 30 -25 c41 -35 90 -34 155 4 66 37 106 84 102 119 -3 22 -8 26 -40 29 -38 3 -50 16 -25 25 27 11 56 6 88 -16z m689 -7 c26 -14 70 -161 70 -234 0 -28 -7 -40 -33 -60 -52 -40 -147 -79 -202 -84 -44 -4 -53 -1 -77 23 -37 37 -88 141 -88 180 0 46 29 76 109 119 120 63 180 78 221 56z m-453 -213 c47 -26 102 -126 103 -185 0 -45 -32 -103 -72 -129 -62 -41 -153 -77 -206 -81 -53 -5 -53 -5 -101 46 -26 29 -62 81 -81 117 l-35 66 40 36 c22 19 53 41 68 49 l28 15 -31 -42 c-43 -60 -40 -83 20 -141 63 -60 109 -66 201 -26 74 31 93 57 87 118 -6 60 -23 81 -96 117 -53 26 -53 27 -30 39 29 17 76 17 105 1z m2349 -122 c188 -61 344 -146 344 -188 0 -19 -26 -26 -131 -33 -77 -6 -92 -4 -133 16 -26 12 -68 46 -94 76 -57 67 -116 164 -99 164 2 0 53 -16 113 -35z m-1206 -60 c0 -12 -80 -44 -125 -50 -71 -10 -131 -52 -120 -83 3 -7 37 -58 77 -114 40 -55 80 -110 88 -121 18 -26 19 -26 -100 53 -163 109 -173 113 -247 108 -59 -4 -69 -7 -94 -36 -16 -18 -29 -40 -29 -50 0 -22 110 -125 293 -273 81 -66 147 -122 147 -125 0 -7 -34 12 -113 63 -113 72 -313 191 -380 225 -83 42 -140 44 -190 5 -30 -23 -37 -34 -37 -63 0 -43 43 -108 103 -157 48 -40 227 -152 394 -247 62 -35 111 -65 109 -67 -2 -2 -75 31 -162 73 -242 116 -434 200 -508 224 -58 19 -73 21 -113 11 -105 -27 -223 -148 -223 -229 0 -18 7 -43 15 -55 18 -29 102 -67 220 -102 142 -42 341 -119 598 -231 274 -120 341 -144 396 -144 57 0 86 14 109 52 28 47 34 95 18 156 -14 51 -14 52 8 52 12 0 31 -6 41 -14 18 -13 17 -19 -29 -167 -26 -85 -56 -208 -67 -274 -24 -144 -63 -234 -138 -317 l-52 -57 -9 -131 c-8 -108 -14 -142 -36 -191 -29 -63 -70 -107 -87 -90 -6 6 0 38 17 86 37 106 50 206 32 248 -18 45 -92 110 -167 148 -213 107 -712 236 -1063 274 -217 24 -325 24 -359 2 -69 -45 -126 -173 -130 -290 -2 -63 0 -68 34 -104 68 -73 68 -67 -10 -118 -38 -26 -74 -44 -79 -41 -6 3 -17 27 -26 53 -46 133 17 379 136 538 61 81 66 91 87 192 l18 88 169 170 c93 94 189 199 214 234 96 136 123 163 275 276 85 64 155 119 155 124 0 15 112 122 171 162 130 88 473 259 614 305 62 21 155 32 155 19z m-1634 -100 c53 -26 102 -89 124 -157 23 -75 -27 -153 -146 -228 -93 -59 -109 -63 -150 -44 -47 23 -148 135 -181 201 -25 52 -25 57 -11 82 24 40 145 138 191 155 63 22 116 19 173 -9z m-406 -383 c50 -42 79 -101 80 -158 0 -98 -110 -227 -263 -305 l-85 -43 -58 38 c-164 109 -234 181 -234 243 0 28 12 45 83 116 88 89 146 132 242 184 l60 32 66 -35 c37 -20 86 -52 109 -72z m-660 -379 c42 -29 68 -64 114 -153 l44 -85 -33 -50 c-40 -61 -67 -86 -170 -160 -92 -66 -194 -119 -257 -135 -66 -17 -90 -3 -118 65 -21 51 -22 61 -10 94 20 56 62 142 67 137 2 -2 -3 -19 -12 -37 -28 -53 -31 -138 -7 -192 14 -32 27 -47 40 -47 22 0 199 115 287 187 87 71 120 122 120 187 0 41 -6 61 -28 93 -65 94 -160 82 -277 -36 -33 -32 -55 -50 -49 -39 20 38 134 143 179 165 54 27 78 28 110 6z m1772 -1029 c198 -45 425 -208 462 -332 7 -26 12 -49 10 -51 -9 -10 -1090 183 -1142 205 -41 17 -35 29 27 56 62 27 252 96 326 118 77 24 222 25 317 4z m-526 -329 c495 -63 980 -162 1081 -221 24 -14 50 -39 60 -57 19 -38 22 -110 3 -131 -17 -22 -82 -20 -238 3 -176 27 -342 39 -732 51 -467 15 -533 21 -604 56 -68 33 -96 65 -96 109 0 46 55 149 98 185 35 29 40 30 133 30 53 0 186 -11 295 -25z m209 -465 c199 -10 298 -20 555 -60 315 -48 338 -63 328 -224 -6 -94 -33 -167 -70 -188 -37 -21 -810 -17 -1033 6 -314 31 -449 63 -481 111 -21 32 -44 121 -44 170 0 22 7 72 17 112 16 68 18 72 47 76 65 8 490 6 681 -3z m605 -603 c177 -31 249 -70 279 -150 29 -76 -5 -204 -64 -243 -41 -27 -192 -33 -777 -34 l-556 0 -42 48 c-50 58 -119 194 -127 249 -7 50 25 113 72 144 29 20 40 20 555 15 497 -5 532 -6 660 -29z m167 -557 c65 -19 119 -72 139 -134 9 -30 14 -61 11 -70 -14 -37 -142 -64 -497 -106 -221 -26 -390 -53 -539 -86 -64 -15 -163 -37 -220 -49 -58 -13 -108 -22 -112 -19 -4 2 -33 83 -65 180 -66 200 -66 202 13 257 38 28 50 30 170 37 211 13 1051 5 1100 -10z"></path>
    <path d="M7678 13886 c-61 -22 -86 -44 -99 -85 -17 -57 -2 -110 40 -138 40 -27 85 -29 143 -6 54 20 87 49 104 91 19 43 -1 91 -52 126 -43 29 -80 32 -136 12z"></path>
    <path d="M7189 12510 c-106 -19 -196 -92 -274 -219 -64 -107 -60 -212 10 -246 39 -18 154 -43 365 -79 242 -42 371 -72 593 -140 296 -90 332 -99 417 -99 179 -2 282 112 240 263 -12 44 -78 89 -282 193 -262 134 -555 251 -753 301 -111 28 -246 39 -316 26z"></path>
    <path d="M6741 13419 c-29 -6 -60 -22 -90 -47 -73 -62 -77 -100 -23 -181 55 -82 116 -100 200 -60 24 12 62 39 84 60 39 37 40 41 36 87 -10 106 -93 162 -207 141z"></path>
    <path d="M6228 13075 c-83 -30 -184 -122 -215 -193 -54 -127 128 -250 272 -183 53 25 154 108 182 150 88 130 -77 285 -239 226z"></path>
    <path d="M10589 12775 c-30 -16 -77 -86 -174 -260 -86 -152 -178 -298 -221 -351 -28 -35 -40 -42 -79 -47 -79 -8 -136 -82 -150 -193 -8 -57 2 -85 40 -110 23 -15 26 -15 49 3 66 52 293 331 384 471 77 120 232 428 235 467 2 27 -1 30 -28 32 -16 2 -42 -4 -56 -12z"></path>
    <path d="M5995 11769 c-22 -4 -74 -19 -115 -34 -183 -66 -291 -150 -372 -288 -59 -101 -151 -331 -152 -381 -1 -35 3 -40 38 -59 39 -20 41 -20 125 -4 221 45 324 147 463 458 76 171 103 299 65 312 -7 2 -30 0 -52 -4z"></path>
    <path d="M6125 9048 c-62 -69 -101 -137 -92 -161 4 -11 30 -17 99 -22 117 -9 617 -1 641 9 17 8 17 10 -4 32 -52 55 -216 122 -441 179 -137 35 -137 35 -203 -37z"></path>
    <path d="M9894 8691 c-2 -2 -4 -347 -4 -767 l0 -762 168 -7 c175 -8 997 1 1332 14 213 9 222 11 297 75 65 57 82 102 94 259 14 189 3 272 -47 343 -20 30 -50 62 -65 71 -16 10 -29 21 -29 25 0 4 22 36 49 72 60 79 64 100 59 302 -3 128 -7 156 -25 197 -33 72 -78 123 -131 149 l-47 23 -823 5 c-453 3 -826 3 -828 1z m1407 -423 c19 -36 23 -140 6 -163 -15 -19 -29 -20 -476 -23 l-461 -3 0 105 0 106 460 0 459 0 12 -22z m-145 -528 l142 0 11 -31 c12 -35 14 -101 5 -136 l-6 -23 -469 0 -469 0 0 93 c0 52 3 97 8 102 4 4 148 5 321 1 173 -3 378 -6 457 -6z"></path>
    <path d="M13585 8692 l-160 -4 -157 -196 c-182 -228 -298 -364 -315 -369 -6 -2 -112 122 -235 276 l-223 280 -292 0 c-161 1 -293 -2 -293 -6 0 -9 83 -110 507 -620 l293 -353 0 -255 0 -255 245 0 245 0 0 248 0 248 162 199 c324 400 620 770 629 788 9 16 3 17 -74 17 -46 0 -104 1 -128 3 -24 2 -116 2 -204 -1z"></path>
    <path d="M2175 8671 c-88 -11 -168 -80 -217 -187 -21 -45 -23 -65 -26 -272 l-4 -223 27 -54 c71 -146 139 -160 823 -172 l393 -6 20 -38 c23 -47 25 -115 3 -170 l-17 -41 -376 4 c-281 2 -382 6 -398 16 -27 15 -43 42 -58 102 l-11 45 -196 3 c-179 2 -196 1 -203 -15 -4 -10 -9 -74 -12 -143 -5 -111 -3 -131 14 -170 27 -62 67 -107 132 -148 l54 -35 656 5 c748 5 700 -1 798 95 87 85 86 81 85 370 -1 192 -5 261 -16 287 -32 76 -133 145 -247 166 -30 6 -245 13 -479 16 -234 3 -441 10 -461 15 -43 11 -49 24 -49 127 l0 72 233 0 c129 0 308 -3 399 -6 l164 -7 20 -56 20 -56 203 -3 203 -2 -4 132 c-4 157 -16 186 -102 265 -103 94 -50 88 -726 89 -327 1 -617 -1 -645 -5z"></path>
    <path d="M5593 8672 l-163 -2 -2 -268 -3 -267 -497 -3 -498 -2 -2 267 -3 268 -237 3 -238 2 0 -750 0 -750 230 0 230 0 0 255 0 255 500 0 500 0 2 -252 3 -253 253 -3 252 -2 0 755 0 755 -82 -2 c-46 -2 -156 -4 -245 -6z"></path>
    <path d="M6160 7920 l0 -750 613 0 c336 0 717 -3 845 -7 l232 -6 0 181 0 182 -605 0 -605 0 0 115 0 115 565 0 565 0 0 170 0 170 -557 2 -558 3 -3 118 -3 117 611 0 610 0 -2 168 -3 167 -852 3 -853 2 0 -750z"></path>
    <path d="M8157 8144 c-7 -539 -9 -964 -4 -964 42 -5 871 -20 1157 -20 l395 -1 3 180 2 181 -520 0 -520 0 -2 573 -3 572 -251 3 -251 2 -6 -526z"></path>
    <path d="M5456 6969 c-109 -26 -246 -137 -300 -242 -42 -85 -210 -914 -202 -1004 9 -111 74 -206 174 -255 46 -23 53 -23 434 -26 l386 -3 12 53 c6 29 14 78 17 109 9 92 19 89 -375 89 -208 0 -340 4 -352 10 -43 23 -44 43 -9 221 l33 169 348 0 c418 0 387 -11 418 144 11 54 20 100 20 103 0 2 -171 3 -380 1 -209 -2 -380 0 -380 3 0 14 90 310 100 329 6 11 26 30 43 40 30 19 53 20 370 20 280 0 343 3 367 15 33 17 33 18 59 143 l18 92 -381 -1 c-209 -1 -398 -5 -420 -10z"></path>
    <path d="M7545 6963 c-53 -27 -85 -66 -100 -118 -35 -125 -257 -1275 -251 -1300 4 -14 22 -43 41 -63 l33 -37 349 -3 c240 -2 365 0 403 8 121 26 253 127 314 239 19 35 38 99 56 190 31 151 28 226 -9 300 l-20 39 40 43 c22 24 53 70 70 104 40 81 72 240 66 331 -7 123 -79 221 -194 264 -50 19 -77 20 -411 20 -305 -1 -361 -3 -387 -17z m713 -249 c28 -19 28 -51 2 -180 -37 -182 -42 -184 -387 -184 -212 0 -263 3 -263 13 0 8 16 92 35 187 19 95 35 175 35 177 0 2 125 3 278 3 235 0 281 -2 300 -16z m-137 -625 c37 -19 39 -49 14 -179 -44 -223 -39 -220 -396 -220 l-266 0 41 205 41 205 273 0 c174 0 281 -4 293 -11z"></path>
    <path d="M9495 6958 c-2 -7 -70 -344 -150 -748 -80 -404 -148 -743 -151 -752 -5 -16 5 -18 104 -18 90 0 114 3 131 18 17 14 28 53 58 200 l36 183 96 -3 95 -3 54 -180 c36 -124 59 -185 73 -197 18 -15 41 -18 140 -18 72 0 119 4 119 10 0 5 -30 107 -66 226 l-65 216 23 16 c45 31 99 94 128 152 20 39 41 113 65 230 19 94 35 180 35 191 0 17 -8 19 -95 19 -101 0 -149 -14 -159 -47 -3 -10 -19 -82 -34 -160 -31 -150 -47 -188 -88 -203 -25 -10 -304 -14 -304 -5 0 2 45 190 100 417 99 410 100 413 81 438 -17 23 -25 25 -120 28 -76 2 -102 -1 -106 -10z"></path>
    <path d="M8905 6908 c-13 -58 -35 -171 -35 -182 0 -7 9 -22 20 -34 19 -20 31 -22 120 -22 55 0 100 2 100 4 0 2 9 48 20 101 24 118 24 107 0 133 -19 20 -31 22 -120 22 -95 0 -100 -1 -105 -22z"></path>
    <path d="M8725 6013 c-53 -269 -97 -498 -97 -511 0 -12 8 -32 18 -43 16 -18 28 -19 118 -17 l100 3 99 494 c54 271 96 503 93 516 -8 33 -48 45 -145 45 l-88 0 -98 -487z"></path>
    <path d="M10560 6381 c-66 -70 -86 -126 -142 -407 -49 -247 -51 -263 -39 -317 22 -100 98 -182 192 -207 22 -6 153 -9 325 -8 l288 3 18 85 c22 107 22 102 -2 128 -20 22 -27 22 -273 22 -180 0 -259 4 -276 13 -22 11 -24 18 -26 94 l-2 81 24 -9 c13 -5 156 -9 317 -9 279 0 295 1 319 20 31 25 39 48 72 220 28 144 28 206 -2 264 -35 70 -8 66 -401 66 l-355 0 -37 -39z m558 -134 c10 -11 5 -58 -13 -134 -5 -23 -6 -23 -205 -23 -224 0 -208 -7 -189 79 18 86 31 91 229 91 122 0 170 -3 178 -13z"></path>
    <path d="M11678 6388 c-49 -53 -77 -111 -98 -204 -24 -107 -25 -136 -5 -174 18 -34 28 -38 345 -120 129 -33 242 -63 251 -66 18 -5 17 -16 -3 -82 -18 -58 -40 -62 -361 -62 -338 0 -314 10 -345 -142 l-19 -98 327 0 c269 0 336 3 381 16 101 29 185 97 230 186 27 53 72 264 64 304 -10 58 -34 69 -295 134 -135 33 -262 66 -283 71 -37 10 -38 12 -32 42 15 69 8 67 319 67 237 0 285 2 303 15 20 14 29 35 47 118 l6 27 -401 0 -401 0 -30 -32z"></path>
    <path d="M6401 6316 c-16 -17 -29 -53 -42 -113 -10 -48 -18 -94 -19 -100 0 -10 65 -13 294 -13 358 0 335 -9 366 144 11 54 20 100 20 102 0 2 -134 4 -298 4 l-299 0 -22 -24z"></path>
    <path d="M9763 5313 l-23 -4 22 -42 c29 -58 48 -132 48 -195 0 -52 -17 -140 -29 -154 -31 -36 -887 -98 -1013 -74 -50 9 -94 56 -134 141 -37 77 -74 209 -74 263 l0 35 -96 -6 c-54 -4 -99 -9 -102 -11 -15 -16 2 -63 51 -134 57 -84 87 -158 108 -276 l12 -63 -36 -59 c-59 -98 -80 -149 -74 -176 4 -13 34 -56 68 -94 93 -105 119 -155 119 -234 l0 -65 -80 -52 c-77 -51 -79 -54 -69 -80 124 -320 133 -378 65 -435 -12 -9 -63 -34 -113 -55 l-93 -38 0 -68 c0 -53 7 -86 30 -144 34 -84 36 -109 16 -157 -14 -34 -15 -34 -98 -41 -112 -9 -160 -21 -175 -41 -20 -28 -15 -113 12 -188 24 -68 24 -70 5 -95 -10 -14 -32 -39 -48 -55 l-30 -28 -119 21 c-118 21 -207 27 -238 15 -29 -12 -45 -61 -60 -197 -8 -74 -17 -141 -20 -149 -6 -15 -66 -38 -100 -38 -10 0 -76 28 -147 61 -106 51 -139 62 -183 63 -67 1 -90 -18 -111 -91 -17 -59 -37 -85 -59 -77 -19 8 -19 13 5 74 50 127 16 198 -139 287 l-56 32 45 0 c25 0 65 -4 90 -10 115 -24 103 -27 150 37 64 89 92 116 102 102 4 -7 8 -51 8 -98 l0 -84 53 -51 c30 -27 76 -61 103 -75 58 -29 135 -34 159 -9 24 24 65 148 65 198 0 41 -5 49 -53 96 -29 29 -82 67 -116 85 l-63 34 29 14 c25 13 33 13 74 -1 64 -23 86 -21 105 8 12 19 14 38 9 87 -6 62 -6 64 34 126 l41 63 110 -7 109 -7 -14 59 c-8 33 -28 96 -45 142 -32 88 -38 143 -17 159 6 6 56 13 111 17 97 6 140 20 166 50 10 14 10 24 -5 64 -23 62 -64 134 -114 201 -33 44 -41 63 -41 97 0 23 6 46 13 52 6 5 46 13 87 17 74 7 132 27 178 63 l24 18 -28 59 c-36 75 -79 117 -165 160 -71 36 -89 58 -89 111 0 22 4 24 46 24 78 0 133 20 180 64 59 57 63 83 25 159 -59 120 -148 196 -227 197 -21 0 -34 6 -39 18 -15 39 -32 143 -24 148 5 3 31 -2 59 -10 l51 -15 44 40 c46 42 89 107 100 150 l6 24 -178 -3 c-160 -2 -243 -8 -243 -16 0 -1 11 -69 25 -150 31 -182 44 -389 35 -561 -6 -116 -10 -138 -38 -204 -71 -165 -152 -261 -219 -261 -11 0 -35 16 -54 36 -49 51 -123 107 -294 221 -464 310 -751 464 -1001 537 -260 76 -434 99 -739 99 -307 -1 -392 -16 -565 -102 -155 -78 -248 -146 -380 -280 -192 -193 -328 -404 -399 -618 -50 -147 -39 -235 43 -342 l26 -35 -24 -40 c-51 -87 -168 -311 -196 -375 -56 -128 -61 -223 -19 -320 22 -51 140 -170 244 -248 126 -94 423 -263 557 -316 109 -44 744 -163 998 -187 188 -18 598 -23 855 -11 256 12 403 26 690 67 185 27 215 27 395 3 117 -15 649 -15 779 0 211 25 387 82 662 213 l145 69 225 -45 c392 -79 405 -80 859 -80 462 -1 459 -1 705 86 308 110 428 200 525 396 126 254 53 554 -210 867 -161 192 -611 632 -820 802 -111 91 -180 137 -320 212 -63 35 -122 70 -131 79 -10 10 -30 78 -49 167 -17 83 -50 205 -72 273 l-40 122 -67 -1 c-36 -1 -76 -4 -88 -6z m108 -571 c27 -35 59 -146 59 -208 0 -68 -28 -127 -67 -142 -26 -10 -119 -25 -608 -98 -205 -30 -382 -37 -433 -15 -42 18 -69 69 -88 168 -15 80 -18 191 -6 209 10 16 31 21 187 43 428 60 518 68 763 67 170 -1 174 -2 193 -24z m-3830 -41 c42 -2 178 -162 166 -194 -3 -7 -54 -28 -113 -46 -60 -18 -121 -37 -135 -41 -22 -7 -31 -3 -52 18 -30 32 -53 76 -78 151 -19 53 -19 56 -1 73 19 20 123 45 169 42 16 -1 35 -3 44 -3z m-378 -119 c19 -21 97 -193 97 -215 0 -8 -14 -27 -31 -41 -48 -40 -158 -99 -174 -92 -21 8 -33 43 -62 184 -29 140 -28 144 46 166 64 20 105 19 124 -2z m-729 -171 c24 -27 30 -107 12 -164 -20 -66 -52 -109 -105 -145 -42 -26 -183 -82 -210 -82 -24 0 0 223 31 286 19 39 53 61 148 94 101 35 102 35 124 11z m1755 -15 c24 -13 61 -55 61 -70 0 -3 -16 6 -36 19 -53 36 -127 35 -150 -1 -15 -22 -15 -32 -4 -81 15 -68 46 -103 92 -103 48 0 96 33 106 72 l8 32 17 -42 c10 -24 15 -47 12 -52 -8 -12 -87 -55 -138 -75 -78 -29 -96 -12 -158 157 -38 103 -36 129 11 145 49 17 145 16 179 -1z m-316 -205 c76 -151 82 -183 40 -224 -32 -30 -101 -62 -157 -73 -55 -10 -44 11 29 55 73 44 108 92 99 136 -11 54 -64 153 -95 179 -58 49 -187 22 -231 -49 -35 -55 -7 -184 58 -273 17 -23 17 -23 -12 -16 -50 12 -71 40 -93 129 -12 47 -21 107 -21 135 0 64 24 90 107 113 84 24 92 25 153 24 l55 -2 68 -134z m3543 23 c8 -55 0 -158 -17 -214 -26 -86 -111 -152 -235 -184 -162 -40 -470 -69 -691 -64 l-153 3 -32 32 c-29 29 -33 40 -36 102 -7 116 36 226 95 249 16 6 107 13 203 16 201 6 432 34 611 76 68 15 152 29 186 29 l62 1 7 -46z m-5432 10 c16 -42 -16 -239 -49 -305 -23 -43 -121 -147 -158 -166 -26 -13 -31 -13 -48 3 -28 25 -33 74 -16 159 30 143 91 238 192 296 57 33 70 35 79 13z m1353 -114 c40 -116 25 -143 -49 -92 -28 20 -61 33 -95 37 -59 8 -83 27 -66 53 18 30 114 73 153 70 34 -3 36 -6 57 -68z m-486 -29 c80 -61 116 -99 103 -110 -15 -14 -335 -201 -344 -201 -18 0 -32 71 -37 185 l-6 120 79 27 c114 38 130 37 205 -21z m4829 -30 c0 -5 -16 -18 -35 -30 -70 -41 -68 -119 5 -185 40 -36 82 -46 125 -30 22 9 45 56 45 93 0 40 16 48 28 13 21 -61 -76 -172 -150 -172 -43 0 -148 130 -148 183 0 33 24 94 47 119 17 19 83 26 83 9z m-5250 -263 l-1 -173 -101 -85 c-55 -47 -116 -98 -134 -113 l-33 -28 -19 38 c-47 92 -68 302 -37 362 38 75 198 168 293 170 l32 1 0 -172z m789 86 c21 -15 23 -22 18 -75 -7 -75 9 -99 63 -99 32 0 48 8 90 45 52 46 70 52 114 35 37 -14 32 -32 -21 -76 -85 -71 -249 -184 -266 -184 -12 0 -97 271 -97 309 0 58 49 80 99 45z m-221 -99 c11 -13 24 -50 31 -82 13 -68 41 -277 41 -309 0 -41 -251 -314 -289 -314 -14 0 -114 208 -135 279 -23 78 -21 175 5 228 42 86 222 222 296 223 22 0 37 -8 51 -25z m1766 -28 c17 -12 16 -20 -18 -157 -38 -156 -57 -193 -101 -198 -24 -3 -39 7 -94 65 -36 38 -77 90 -91 116 l-25 48 25 19 c20 16 39 20 92 18 65 -2 70 0 103 32 19 19 37 42 41 52 6 21 42 24 68 5z m-839 -69 c13 -62 36 -88 77 -88 50 0 78 33 78 92 l0 48 38 0 c41 0 82 -23 82 -45 0 -8 -62 -63 -137 -124 -162 -128 -149 -129 -219 14 l-44 90 36 33 c50 47 76 41 89 -20z m4668 31 c44 -12 49 -29 8 -29 -16 0 -39 -9 -52 -19 -21 -17 -24 -28 -24 -88 0 -61 3 -74 29 -107 39 -51 107 -93 175 -107 151 -31 191 -52 191 -101 0 -16 -10 -18 -89 -18 l-89 0 -12 -47 c-17 -69 -14 -218 10 -382 23 -169 21 -179 -63 -229 -108 -65 -148 -64 -268 9 -84 51 -131 68 -184 68 -60 0 -99 -26 -173 -119 -75 -94 -103 -117 -149 -126 -52 -10 -43 16 61 176 l94 144 -35 70 c-40 78 -94 155 -145 204 l-34 32 -102 -55 c-101 -53 -158 -91 -216 -139 l-30 -25 22 -113 c12 -62 22 -125 22 -139 0 -14 7 -40 16 -57 17 -35 11 -72 -12 -72 -31 0 -55 22 -80 73 -43 86 -71 117 -104 117 -17 0 -84 -28 -155 -65 -130 -68 -160 -75 -222 -52 l-32 12 75 40 c87 46 184 129 208 179 23 49 20 86 -15 194 -26 82 -28 99 -18 124 15 36 26 32 67 -23 73 -98 93 -119 131 -130 58 -17 83 -6 165 74 125 124 141 182 80 283 -65 105 -69 113 -62 120 15 14 79 -8 144 -51 37 -25 73 -45 79 -45 16 0 69 35 132 86 121 99 240 123 437 89 54 -9 101 -14 104 -11 4 5 -48 216 -66 265 -4 11 8 13 69 7 41 -4 91 -12 112 -17z m-3406 -5 c6 -17 -53 -205 -74 -232 -11 -15 -12 -12 -13 21 0 59 -14 77 -61 77 -49 0 -82 -29 -100 -89 -18 -61 0 -114 51 -147 l39 -26 -28 -42 c-16 -22 -43 -57 -60 -76 l-31 -35 -30 35 c-37 43 -46 85 -32 166 18 109 83 338 100 352 10 8 53 12 124 12 90 0 110 -3 115 -16z m2133 -21 c0 -3 -27 -81 -61 -172 -38 -106 -70 -176 -86 -193 -73 -77 -327 -164 -543 -187 -150 -17 -385 -25 -453 -17 -77 10 -91 25 -83 94 12 100 122 352 172 391 45 36 91 42 374 51 273 10 561 27 569 36 7 7 111 5 111 -3z m-3622 -110 c30 -43 58 -102 81 -172 l21 -64 -135 -221 c-158 -260 -185 -296 -212 -280 -31 19 -81 113 -117 223 -58 175 -61 194 -33 255 31 67 89 125 192 192 75 49 159 93 177 94 4 0 15 -12 26 -27z m640 -74 c91 -108 212 -267 232 -305 26 -54 23 -100 -15 -173 -44 -87 -135 -147 -241 -158 -66 -7 -80 4 -156 115 -91 134 -141 265 -124 320 13 41 234 232 268 232 5 0 21 -14 36 -31z m-1833 -177 c9 -37 19 -102 22 -144 5 -66 3 -78 -9 -78 -20 0 -231 141 -236 158 -2 8 32 50 77 95 l81 81 24 -23 c15 -14 30 -48 41 -89z m-620 28 c14 -22 39 -47 57 -56 l32 -17 -23 -16 c-13 -9 -43 -34 -66 -56 -49 -46 -75 -116 -75 -201 0 -43 4 -56 22 -68 29 -20 97 -20 173 0 81 21 100 35 134 102 l30 57 1 -36 c1 -85 71 -120 205 -100 65 10 92 10 120 1 56 -18 66 -43 72 -177 3 -65 10 -126 15 -137 21 -40 204 -2 265 56 l23 22 31 -30 c17 -16 60 -64 95 -106 101 -120 147 -139 212 -87 27 21 72 26 72 8 0 -6 -9 -24 -21 -40 -11 -16 -23 -44 -26 -62 -5 -31 0 -37 72 -102 43 -38 73 -71 66 -73 -6 -2 -49 17 -95 42 -104 57 -158 61 -238 19 -51 -27 -137 -38 -155 -20 -4 5 6 20 22 34 87 72 85 69 85 115 -1 73 -44 146 -96 162 -28 8 -197 -64 -247 -105 -32 -26 -37 -36 -37 -73 0 -23 -6 -50 -13 -60 -12 -16 -15 -15 -52 12 -22 16 -55 45 -73 64 l-32 34 -73 -18 c-87 -22 -134 -17 -234 24 l-71 29 -4 144 c-3 127 -5 147 -24 172 -17 22 -30 29 -67 31 -77 5 -124 -14 -185 -75 -64 -63 -64 -63 -154 17 -58 52 -59 69 -5 95 56 26 115 82 128 122 14 45 6 136 -16 170 -15 22 -38 35 -97 56 -14 5 -16 12 -9 29 7 20 17 24 75 29 54 5 72 11 95 33 16 16 32 39 35 52 9 34 22 30 51 -16z m1294 -218 c23 -45 91 -238 91 -258 0 -23 -95 -17 -195 11 -122 35 -165 54 -165 76 0 26 210 209 241 209 5 0 17 -17 28 -38z m788 -129 c34 -59 65 -120 68 -135 6 -25 4 -28 -33 -38 -59 -15 -177 -29 -255 -30 -80 0 -89 10 -61 73 26 57 104 174 147 220 29 31 39 36 54 28 10 -5 46 -58 80 -118z m3097 50 c-1 -28 -81 -161 -147 -243 -103 -127 -159 -153 -429 -194 -194 -30 -363 -44 -630 -53 -136 -4 -198 -3 -198 4 0 15 202 243 283 321 36 34 81 69 99 76 22 9 99 16 228 20 229 8 398 26 605 66 175 33 190 33 189 3z m-3284 -419 c57 -58 107 -84 165 -84 43 0 47 3 80 49 38 53 85 81 135 81 l32 0 -22 -32 c-12 -18 -35 -61 -52 -96 -26 -55 -30 -70 -24 -114 l7 -51 -44 6 c-25 4 -87 20 -139 37 -87 27 -129 51 -252 137 -34 24 -49 28 -107 28 -57 0 -72 4 -90 22 -18 18 -20 25 -10 37 16 19 42 23 171 25 l106 1 44 -46z m2750 -165 c0 -13 -183 -97 -260 -118 -138 -38 -262 -51 -495 -51 -227 0 -369 11 -406 30 -21 12 -21 12 12 46 18 19 51 46 73 61 l39 28 246 6 c347 8 791 8 791 -2z"></path>
    <path d="M5950 4673 c-50 -18 -64 -68 -35 -123 19 -36 43 -50 89 -50 66 0 116 32 116 75 0 38 -21 75 -51 91 -28 14 -90 18 -119 7z"></path>
    <path d="M5541 4541 c-11 -11 -21 -30 -21 -42 0 -39 22 -107 41 -128 43 -46 139 -11 139 50 0 33 -30 98 -53 118 -9 6 -31 15 -50 18 -27 4 -39 1 -56 -16z"></path>
    <path d="M4793 4353 c-78 -15 -136 -168 -72 -188 51 -17 169 65 169 116 0 21 -51 80 -67 78 -4 -1 -18 -4 -30 -6z"></path>
    <path d="M4325 4098 c-35 -27 -75 -112 -75 -159 0 -35 35 -89 59 -89 19 0 72 76 86 124 36 121 2 181 -70 124z"></path>
    <path d="M4712 3823 c-33 -13 -58 -112 -41 -161 13 -37 35 -52 79 -52 48 0 75 34 90 115 13 67 12 69 -10 87 -21 17 -87 24 -118 11z"></path>
    <path d="M5320 3617 c-55 -36 -75 -81 -75 -165 0 -71 1 -75 34 -104 27 -24 39 -29 64 -24 79 16 131 132 98 219 -11 27 -69 97 -81 97 -4 0 -22 -10 -40 -23z"></path>
    <path d="M10641 3418 c-32 -7 -56 -23 -90 -57 -56 -58 -121 -166 -121 -201 0 -29 57 -130 98 -173 43 -45 88 -69 124 -65 30 3 37 10 80 93 65 124 108 237 108 284 0 31 -7 49 -31 75 -16 19 -38 37 -47 40 -43 12 -81 13 -121 4z"></path>
    <path d="M10974 3311 c-17 -4 -36 -11 -42 -15 -14 -8 -86 -195 -118 -304 -49 -171 -27 -223 150 -342 63 -42 123 -51 150 -21 29 32 42 194 29 374 -8 122 -14 152 -37 203 -28 60 -71 115 -90 113 -6 -1 -25 -4 -42 -8z"></path>
    <path d="M6004 3419 c-36 -10 -110 -86 -120 -123 -7 -28 15 -101 49 -161 42 -74 96 -55 148 51 36 74 44 143 19 188 -20 38 -57 55 -96 45z"></path>
    <path d="M6744 3311 c-17 -11 -36 -33 -42 -50 -25 -71 49 -201 115 -201 64 0 101 83 78 173 -23 88 -83 119 -151 78z"></path>
    <path d="M4788 2915 c-61 -17 -127 -54 -149 -85 -20 -27 -38 -132 -39 -221 0 -94 60 -144 143 -119 69 20 192 88 214 118 65 88 70 252 11 305 -24 21 -109 22 -180 2z"></path>
    <path d="M8200 5098 c-30 -18 -68 -52 -84 -76 l-30 -42 23 -48 c44 -90 108 -169 156 -192 53 -26 79 -22 141 21 55 38 88 83 80 112 -6 26 -109 181 -149 226 -35 40 -68 40 -137 -1z"></path>
    <path d="M8229 4516 c-37 -25 -76 -57 -88 -71 -19 -25 -19 -29 -6 -62 35 -84 150 -206 205 -218 61 -13 180 72 180 128 0 64 -156 267 -205 267 -11 0 -50 -20 -86 -44z"></path>
    <path d="M8170 3984 c-30 -8 -65 -22 -79 -30 -21 -14 -23 -22 -19 -65 7 -64 58 -167 111 -219 l42 -42 86 4 c120 7 179 42 179 106 0 49 -57 158 -111 215 -43 45 -48 47 -100 46 -30 0 -79 -7 -109 -15z"></path>
    <path d="M8043 3500 c-65 -14 -114 -40 -124 -68 -7 -19 -5 -43 10 -91 47 -151 104 -196 241 -189 71 3 82 6 109 32 38 36 40 70 11 170 -22 77 -40 109 -73 131 -29 18 -120 26 -174 15z"></path>
    <path d="M7611 3116 c-31 -37 20 -202 75 -245 63 -49 235 -87 282 -62 27 15 28 41 2 116 -51 147 -113 196 -260 203 -70 4 -88 1 -99 -12z"></path>
    </g>
</svg>