<?xml version="1.0" standalone="no"?>
<!DOCTYPE svg PUBLIC "-//W3C//DTD SVG 20010904//EN"
 "http://www.w3.org/TR/2001/REC-SVG-20010904/DTD/svg10.dtd">
<svg version="1.0" xmlns="http://www.w3.org/2000/svg"
 width="632.000000pt" height="390.000000pt" viewBox="0 0 632.000000 390.000000"
 preserveAspectRatio="xMidYMid meet">
<metadata>
Created by potrace 1.15, written by Peter Selinger 2001-2017
</metadata>
<g transform="translate(0.000000,390.000000) scale(0.100000,-0.100000)"
fill="#000000" stroke="none">
<path d="M3283 3098 c-51 -6 -91 -13 -88 -17 2 -4 -8 -6 -23 -4 -15 2 -58 -3
-97 -11 -66 -14 -56 -15 55 -1 l45 5 -50 -16 c-27 -8 -63 -17 -80 -20 -105
-15 -117 -22 -31 -17 49 2 92 4 95 5 3 0 26 0 50 -1 72 -2 40 -12 -56 -17 -48
-3 -142 -12 -208 -19 -66 -8 -121 -12 -123 -10 -4 4 139 51 193 64 22 5 30 9
18 10 -31 1 -178 -46 -243 -79 -63 -32 -229 -140 -362 -236 -81 -59 -91 -63
-103 -48 -19 26 -61 10 -95 -38 -17 -22 -30 -49 -30 -58 0 -22 -19 -37 -80
-66 -59 -27 -116 -36 -605 -95 -236 -28 -369 -48 -454 -70 -80 -20 -207 -79
-204 -95 1 -5 -5 -16 -13 -25 -8 -9 -11 -19 -7 -22 3 -4 1 -7 -5 -7 -7 0 -12
-5 -12 -12 0 -6 10 -2 22 9 65 61 297 137 523 173 39 6 83 13 100 16 l29 4
-22 -20 c-28 -26 -28 -33 1 -25 19 5 20 5 4 -5 -10 -7 -25 -9 -32 -6 -8 3 -14
0 -12 -6 1 -6 -9 -17 -21 -24 -13 -6 -29 -17 -35 -23 -6 -6 -15 -11 -21 -11
-5 0 -1 7 10 15 39 29 3 14 -69 -30 -84 -51 -137 -72 -205 -81 -109 -15 -159
-31 -194 -65 l-31 -29 59 -1 c58 -2 58 -2 -24 -11 -46 -6 -82 -12 -80 -14 4
-4 62 -14 104 -18 16 -2 39 -6 50 -10 13 -4 29 3 49 22 68 63 315 233 315 217
0 -3 -53 -39 -117 -82 -108 -71 -285 -224 -273 -237 3 -2 41 -8 83 -12 l78 -7
57 54 c31 30 50 46 43 37 -15 -21 -2 -24 19 -5 7 6 -5 -10 -28 -37 -23 -27
-40 -51 -38 -53 2 -2 43 -11 91 -18 l88 -15 87 83 c76 72 180 155 180 144 0
-2 -34 -30 -75 -62 -41 -33 -88 -75 -104 -95 l-29 -36 37 -2 c43 -3 303 -48
345 -60 l30 -8 -37 -29 -38 -28 21 -22 c11 -12 20 -26 20 -31 0 -5 12 -27 27
-49 23 -34 18 -31 -33 21 -48 48 -74 66 -132 87 -192 71 -821 152 -951 123
-33 -8 -34 -8 -27 20 4 16 10 44 14 62 4 18 12 34 17 35 10 1 36 60 37 85 1 7
28 37 60 67 64 60 69 73 9 25 -62 -50 -114 -126 -128 -189 -27 -120 -38 -147
-72 -177 -31 -28 -35 -38 -39 -93 -2 -34 -8 -64 -13 -67 -19 -11 -9 -63 15
-79 17 -12 29 -37 46 -100 13 -47 25 -83 28 -80 12 11 33 -35 24 -52 -13 -23
10 -47 27 -30 21 21 11 -5 -21 -57 -17 -28 -37 -62 -44 -74 l-12 -24 -21 21
c-26 26 -26 51 0 102 11 23 19 43 16 45 -10 10 -49 -96 -43 -119 4 -17 0 -29
-11 -38 -9 -8 -22 -27 -29 -44 -7 -16 -13 -23 -14 -15 0 8 9 30 21 49 23 38
20 48 -10 31 -12 -6 -27 -10 -34 -8 -6 1 -32 -9 -57 -22 -45 -24 -51 -26 -71
-29 -5 0 -7 -5 -4 -11 3 -5 0 -7 -9 -4 -8 3 -23 1 -33 -5 -11 -6 -13 -11 -5
-11 7 0 10 -5 7 -11 -4 -6 -9 -8 -12 -5 -3 3 -24 -5 -47 -18 -22 -13 -54 -27
-71 -32 -16 -4 -32 -8 -35 -9 -3 -1 -22 -9 -44 -18 -21 -9 -42 -17 -47 -17 -5
0 -9 -51 -9 -114 l0 -115 52 -19 c29 -11 78 -25 108 -32 61 -15 80 -31 73 -60
-6 -24 34 -43 177 -84 52 -16 105 -32 118 -37 27 -11 291 -75 347 -84 22 -4
105 -20 185 -35 189 -37 368 -58 560 -65 245 -9 899 -11 965 -2 112 15 190 28
280 47 301 62 397 84 507 115 68 19 139 40 158 45 19 6 46 12 60 13 14 2 32 6
40 9 23 9 122 35 260 69 l125 32 295 1 c224 1 303 4 328 15 24 10 30 17 23 24
-6 6 -11 19 -11 28 0 19 -26 28 -90 30 -25 1 -58 5 -75 9 -28 7 -29 8 -4 9 22
1 67 12 269 67 30 8 98 27 150 43 52 16 133 39 180 51 47 12 103 28 125 35 23
8 70 18 105 25 122 21 295 64 525 131 39 11 115 38 170 60 55 21 106 39 113
39 7 0 33 11 58 25 25 14 51 22 57 19 7 -4 9 -4 5 1 -4 4 13 24 37 43 37 28
45 41 45 67 0 32 -1 33 -82 58 -101 31 -140 41 -152 38 -16 -3 -46 10 -41 19
6 10 -20 26 -50 31 -11 2 -26 10 -33 17 -18 16 -56 16 -46 0 4 -8 3 -10 -2 -5
-5 5 -10 13 -10 18 -1 5 -2 13 -3 18 0 6 -13 6 -31 1 -19 -6 -29 -5 -27 2 1 6
-4 13 -12 16 -9 3 -11 0 -6 -9 6 -11 5 -11 -5 -2 -18 17 -63 -10 -78 -46 -11
-26 -11 -26 -5 4 3 17 6 30 7 30 12 2 149 102 155 114 5 9 12 48 16 86 4 39
13 95 21 125 12 48 11 62 -2 105 -12 39 -14 75 -10 160 6 99 4 122 -19 210
-33 127 -67 191 -111 207 -18 6 -35 19 -37 28 -5 18 -52 28 -253 51 -55 6
-115 20 -136 30 -21 11 -41 19 -45 19 -4 -1 40 -25 99 -55 97 -49 233 -94 290
-96 20 -1 19 -2 -6 -10 -36 -10 -98 4 -183 42 l-62 27 -61 -19 c-34 -10 -69
-19 -79 -19 -9 0 -77 -20 -151 -44 -74 -25 -153 -47 -175 -50 -22 -4 3 6 55
22 53 15 114 37 135 49 40 20 40 21 39 77 -1 39 -7 63 -19 76 -17 18 -15 18
26 -2 24 -12 52 -21 62 -20 9 0 15 -2 13 -6 -3 -4 3 -8 12 -8 9 -1 26 -4 37
-8 11 -4 7 1 -10 10 -42 25 -298 137 -372 164 -35 12 -61 26 -58 30 10 16
-371 106 -565 134 -114 16 -358 32 -350 23 3 -3 78 -11 165 -16 147 -9 405
-49 379 -58 -12 -4 -95 6 -254 31 -133 22 -410 34 -710 31 -231 -2 -260 -4
-313 -23 -38 -14 -65 -18 -79 -13 -17 6 -2 13 68 30 82 21 113 23 414 24 232
1 291 3 205 8 -175 9 -486 8 -592 -3z m1362 -143 c48 -12 46 -13 -51 -8 -274
15 -395 -59 -560 -342 -43 -75 -89 -152 -102 -171 l-23 -36 28 6 c21 5 31 2
40 -13 11 -17 9 -19 -23 -23 -25 -3 -34 0 -34 11 0 12 -3 11 -13 -3 -11 -16
-22 -17 -65 -11 -29 4 -52 10 -52 15 0 4 26 11 58 16 45 7 50 9 25 12 l-32 3
37 62 c123 210 268 421 283 411 5 -2 35 9 69 26 33 17 84 37 113 45 65 17 235
17 302 0z m-65 -46 c0 -3 11 -4 24 -2 36 7 163 -16 177 -33 6 -7 8 -21 5 -31
-4 -9 -1 -20 6 -25 8 -4 -11 -8 -44 -8 -32 0 -58 4 -58 10 0 6 -12 10 -27 9
-25 0 -25 -1 -8 -8 11 -5 -20 -6 -70 -3 -49 2 -91 8 -93 13 -2 4 -9 6 -17 3
-7 -3 -15 -2 -18 3 -3 5 -36 6 -74 3 -37 -3 -84 -3 -103 0 l-35 5 50 22 c72
31 134 45 162 38 14 -3 22 -2 20 2 -3 4 19 8 49 8 30 0 54 -3 54 -6z m-2210
-204 c-10 -12 -10 -15 0 -15 10 0 10 -3 0 -15 -7 -8 -9 -15 -5 -15 4 0 2 -7
-5 -15 -7 -8 -16 -12 -21 -9 -5 3 -8 0 -7 -8 2 -7 -3 -12 -9 -10 -7 1 -13 -2
-13 -8 0 -5 -17 -21 -37 -35 -30 -20 -33 -25 -18 -26 11 0 14 -3 7 -6 -18 -7
-4 -23 21 -23 18 0 19 -2 7 -10 -8 -5 -25 -10 -38 -10 -13 0 -20 -4 -17 -10 8
-13 65 -13 65 0 0 11 90 2 105 -11 5 -5 -12 -9 -40 -10 -28 0 -63 -3 -80 -5
-125 -18 -238 -37 -297 -49 -76 -16 -84 -17 -76 -10 2 3 49 14 104 26 54 11
108 22 119 25 11 3 35 7 54 10 39 5 54 14 25 14 -16 0 -17 2 -4 11 12 9 12 10
-4 5 -11 -4 -68 -14 -127 -23 -60 -9 -107 -19 -105 -22 2 -3 -19 -6 -47 -6
-29 1 -57 -2 -62 -7 -6 -4 -20 -7 -30 -7 -11 0 -33 -3 -50 -6 -16 -4 -39 -8
-50 -10 -11 -2 -20 -4 -20 -5 0 -3 -19 -6 -75 -14 -19 -2 -27 -2 -17 0 9 3 15
9 12 14 -3 4 4 6 15 3 12 -3 20 0 20 6 0 7 6 11 13 10 6 -1 24 3 38 9 15 6 88
20 163 31 84 13 152 29 178 42 23 12 58 21 79 21 30 -1 45 7 81 41 24 23 65
57 92 75 26 18 46 36 43 39 -3 3 -36 -16 -74 -43 -37 -26 -63 -42 -58 -36 11
12 147 111 154 112 2 0 -2 -7 -9 -15z m3485 -147 c40 -85 37 -91 -51 -117 -59
-17 -74 -25 -70 -37 3 -9 6 -27 6 -40 0 -16 7 -27 21 -32 19 -7 19 -9 5 -21
-9 -8 -16 -27 -16 -43 l0 -30 -37 32 c-118 104 -243 69 -359 -100 -26 -38 -54
-70 -61 -70 -25 0 -82 28 -122 60 -33 27 -45 31 -82 28 -24 -2 -49 -7 -54 -10
-23 -14 -146 -40 -401 -83 -149 -25 -373 -65 -498 -89 -143 -27 -226 -39 -226
-32 0 6 -5 4 -10 -5 -7 -12 -27 -16 -88 -17 -43 0 -85 -2 -92 -4 -16 -4 -24
24 -16 56 5 21 14 24 78 32 40 5 82 9 93 9 11 0 22 3 25 6 13 16 1096 205
1137 198 21 -3 200 77 191 87 -3 3 -75 -6 -159 -20 -85 -14 -197 -30 -249 -36
-109 -12 -384 -55 -680 -106 -257 -44 -233 -39 -315 -60 -77 -19 -135 -64
-135 -104 0 -34 -16 -56 -65 -89 -26 -17 -48 -31 -51 -31 -2 0 -28 20 -58 44
-77 63 -127 79 -228 74 -95 -4 -164 -31 -237 -92 -42 -36 -44 -36 -65 -19 -20
17 -20 17 -4 -1 15 -18 13 -23 -43 -93 -33 -42 -69 -93 -79 -114 -11 -21 -36
-51 -57 -66 -20 -15 -55 -45 -79 -66 -34 -31 -52 -39 -96 -43 -81 -9 -83 -10
-64 -39 22 -33 13 -48 -20 -33 -22 10 -24 13 -10 23 14 10 14 14 1 31 -20 26
-19 29 12 32 39 3 58 24 44 50 -23 43 -14 58 49 81 32 12 62 26 65 31 3 5 -13
3 -36 -5 -67 -24 -69 -17 -4 14 65 31 92 57 152 142 21 31 44 54 51 51 16 -5
54 27 46 39 -6 11 8 12 22 2 5 -5 1 0 -9 10 -23 21 -50 21 -192 2 -60 -8 -116
-15 -122 -15 -7 0 -16 18 -19 39 -5 31 -10 38 -23 34 -30 -9 32 35 123 87 50
28 128 62 174 76 99 28 325 68 513 89 122 14 473 61 509 69 13 2 15 -12 13
-88 l-1 -91 7 88 c5 48 10 89 12 91 9 9 131 18 126 9 -9 -14 37 -87 57 -91 10
-2 33 -1 52 3 39 7 44 30 19 79 -8 15 -15 29 -15 31 0 6 142 18 243 20 83 2
110 6 120 18 9 11 49 18 146 28 85 8 138 17 147 26 8 8 23 15 34 16 11 1 20 6
20 11 0 5 3 7 6 4 3 -4 18 -3 34 2 24 7 32 3 58 -23 17 -18 44 -54 61 -81 17
-28 31 -45 31 -40 0 18 -59 104 -107 155 -42 45 -44 49 -22 49 17 0 20 -3 11
-9 -10 -6 -6 -13 15 -27 35 -23 76 -28 114 -15 16 5 31 6 34 2 2 -5 31 2 63
15 58 23 131 34 447 69 77 8 154 19 170 24 17 5 34 10 38 10 4 1 19 -23 32
-51z m-3025 -628 c0 -5 7 -10 15 -10 21 0 -102 -149 -142 -172 -41 -24 -132
-41 -148 -28 -7 6 -26 8 -42 5 l-28 -6 30 14 c17 8 36 21 44 30 12 15 11 17
-2 17 -9 0 -22 -6 -29 -14 -11 -12 -17 -12 -43 2 -29 15 -30 14 -16 -4 7 -10
2 -7 -12 8 -18 19 -24 34 -20 50 10 38 23 49 44 37 13 -6 19 -6 19 0 0 13 62
2 72 -13 4 -6 8 -7 8 -2 0 6 -9 19 -20 31 -13 14 -16 22 -8 23 7 1 67 10 133
21 146 23 145 23 145 11z m-626 -82 c-8 -12 16 -49 26 -43 6 3 7 0 4 -8 -3 -8
4 -30 15 -48 28 -46 27 -49 -16 -51 -32 -1 -29 -2 17 -8 l55 -7 -58 -1 c-31
-1 -65 2 -75 7 -9 6 -28 12 -42 15 -14 3 -33 19 -43 35 -19 33 -99 91 -124 91
-9 0 -14 2 -12 5 3 2 43 7 89 10 47 2 79 1 73 -3 -9 -6 -3 -23 24 -62 52 -79
59 -83 25 -14 -32 64 -32 73 2 75 18 1 18 2 -4 9 -22 7 -20 8 12 7 20 -1 34
-5 32 -9z m2924 -34 c26 -16 40 -30 35 -35 -13 -13 -1242 -321 -1254 -314 -5
4 -9 11 -9 17 0 5 -9 21 -20 35 -25 33 -26 53 0 53 10 0 222 56 470 125 517
144 574 158 612 153 16 -3 28 -1 28 2 0 14 94 -11 138 -36z m-4532 -104 c4
-27 12 -54 18 -59 12 -10 231 -61 261 -61 14 0 15 -3 5 -15 -7 -9 -11 -17 -9
-19 2 -2 40 -11 84 -19 75 -14 81 -14 100 3 14 12 26 15 40 10 18 -8 16 -10
-14 -14 -5 0 -12 -4 -15 -8 -3 -5 -3 -6 1 -3 3 3 11 1 17 -4 6 -5 51 -14 100
-21 81 -11 91 -11 101 4 12 15 23 15 141 2 254 -29 272 -29 298 -13 13 9 34
32 46 51 12 20 28 36 36 36 8 0 14 4 14 8 0 9 120 -4 129 -14 3 -4 -22 -4 -56
-1 -36 4 -65 2 -68 -3 -4 -6 12 -10 37 -10 31 0 39 -3 28 -10 -8 -5 -30 -10
-47 -10 -46 0 -41 -20 5 -21 57 -1 82 -7 108 -28 l24 -19 -43 -7 -42 -8 42 -7
c24 -3 45 -9 49 -12 12 -12 -111 -20 -200 -13 -50 4 -111 6 -136 6 -43 -2
-283 23 -342 35 -26 5 -28 3 -29 -28 l-2 -33 -6 35 -6 35 -85 12 c-47 7 -125
20 -173 29 -49 8 -108 17 -130 20 -23 2 -62 8 -87 14 -25 5 -77 17 -117 26
-99 23 -113 38 -113 119 0 50 3 65 15 65 10 0 16 -16 21 -50z"/>
</g>
</svg>
