<!--?xml version="1.0" standalone="no"?-->
<svg xmlns="http://www.w3.org/2000/svg" version="1.0" width="1200.000000pt" height="1200.000000pt" viewBox="0 0 1200.000000 1200.000000" preserveAspectRatio="xMidYMid meet">
    <metadata>
    Created by potrace 1.15, written by Peter Selinger 2001-2017
    </metadata>
    <g transform="translate(0.000000,1200.000000) scale(0.100000,-0.100000)" fill="#000000" stroke="none">
    <path d="M5905 10284 c-359 -267 -839 -539 -1305 -739 -564 -243 -1216 -359 -2137 -382 l-273 -6 0 -541 0 -541 78 -13 c216 -34 412 -221 429 -411 l6 -61 -1227 0 -1226 0 0 -1510 0 -1510 1141 0 1142 0 -6 -37 c-21 -125 -148 -269 -284 -321 -80 -31 -225 -65 -325 -77 -32 -3 -58 -8 -58 -10 0 -11 253 -235 492 -437 1086 -918 2264 -1660 3053 -1923 389 -130 674 -147 1013 -59 866 223 2317 1142 3591 2273 l164 146 -44 8 c-399 71 -593 193 -616 386 l-6 51 1122 0 1121 0 0 1510 0 1510 -1220 0 -1220 0 0 33 c0 18 7 60 15 92 46 178 213 318 413 347 l82 12 0 543 0 543 -122 0 c-173 0 -468 17 -703 40 -1098 110 -1994 437 -2828 1033 -84 60 -157 111 -162 113 -6 3 -51 -26 -100 -62z m212 -342 c361 -252 777 -481 1203 -662 522 -222 1127 -330 1943 -347 l297 -6 0 -336 -1 -336 -100 -48 c-84 -40 -114 -61 -178 -125 -125 -123 -189 -250 -212 -418 l-12 -84 -119 0 -119 0 5 43 c3 23 8 68 11 100 27 253 197 506 432 644 l43 25 0 158 0 157 -192 7 c-470 17 -822 58 -1178 138 -557 125 -1251 428 -1787 780 l-153 100 -107 -70 c-371 -241 -950 -493 -1483 -647 -433 -125 -973 -226 -1490 -280 -85 -9 -170 -18 -187 -21 l-33 -5 0 -157 0 -157 62 -40 c231 -148 395 -421 423 -702 l7 -73 -120 0 -119 0 -7 78 c-22 241 -169 451 -388 555 l-88 42 0 336 0 336 288 6 c656 14 1229 101 1677 254 305 104 790 333 1105 520 150 90 379 238 439 284 13 11 27 19 32 19 5 0 52 -31 106 -68z m152 -637 l250 -130 1 -143 0 -144 -62 35 c-122 67 -275 147 -282 147 -3 0 -6 -333 -6 -740 l0 -740 -145 0 -145 0 -2 755 -3 755 -159 -91 c-87 -50 -165 -93 -172 -96 -11 -4 -14 20 -14 133 l0 139 228 127 c125 70 235 126 244 125 10 -1 130 -60 267 -132z m-864 -255 c19 -12 44 -38 57 -58 l23 -37 0 -580 c0 -641 -1 -650 -61 -710 -61 -62 -108 -70 -384 -70 -236 0 -247 1 -297 24 -63 28 -117 85 -133 138 -8 26 -10 173 -8 483 4 607 -15 566 333 707 326 132 334 134 388 129 27 -3 64 -15 82 -26z m1670 -85 c295 -116 316 -129 357 -219 23 -50 23 -55 26 -496 2 -294 0 -457 -7 -481 -19 -63 -67 -118 -129 -147 -53 -24 -67 -26 -262 -30 -127 -3 -227 0 -264 7 -78 14 -149 61 -184 120 l-27 46 0 605 c0 589 1 606 20 632 31 43 112 80 160 74 23 -3 162 -53 310 -111z m-2645 -785 l0 -590 -125 0 -125 0 0 247 c0 145 -4 243 -9 237 -5 -5 -53 -111 -107 -236 -54 -125 -100 -225 -103 -223 -4 2 -53 105 -111 229 -58 124 -108 225 -112 226 -5 0 -8 -108 -8 -240 l0 -240 -125 0 -125 0 0 494 0 494 74 11 c41 6 99 13 128 17 l54 6 104 -221 c58 -121 107 -221 111 -221 3 0 59 123 124 273 l117 273 102 26 c55 14 109 26 119 27 16 1 17 -33 17 -589z m3630 500 c330 -64 397 -84 469 -145 59 -51 71 -91 71 -253 0 -161 -8 -191 -66 -242 l-34 -29 30 -16 c61 -32 70 -61 70 -242 l0 -163 -130 0 -130 0 0 125 c0 198 -8 205 -242 205 l-138 0 0 -165 0 -165 -135 0 -135 0 0 581 0 581 28 -6 c15 -3 169 -33 342 -66z m3440 -2615 l0 -1235 -5490 0 -5490 0 0 1235 0 1235 5490 0 5490 0 0 -1235z m-8365 -1572 c-18 -196 -65 -305 -182 -422 -46 -46 -82 -87 -81 -91 5 -12 155 -146 263 -235 266 -218 627 -480 1074 -779 677 -453 1121 -674 1541 -768 86 -19 133 -23 260 -23 140 1 167 4 280 32 218 55 428 137 715 280 549 274 1184 684 1700 1098 180 144 446 373 460 395 3 5 -25 38 -62 74 -117 110 -186 260 -199 431 l-7 85 130 0 129 0 13 -75 c28 -171 149 -332 319 -425 45 -25 82 -48 82 -52 0 -8 -220 -214 -335 -313 -282 -243 -638 -508 -1060 -790 -485 -325 -813 -520 -1150 -685 -303 -148 -498 -222 -732 -276 -163 -38 -376 -40 -533 -6 -467 104 -1055 403 -1900 965 -559 372 -993 706 -1286 990 l-124 120 62 31 c86 43 153 91 206 145 52 55 115 180 137 276 9 39 19 76 21 83 2 9 38 12 135 12 l131 0 -7 -77z m785 -58 l0 -115 -114 0 -114 0 -26 -31 c-26 -30 -26 -32 -26 -202 0 -150 2 -176 19 -202 10 -17 73 -71 139 -120 l121 -90 1 -132 c0 -73 -1 -133 -3 -133 -15 0 -447 344 -465 370 -39 58 -43 98 -40 373 3 257 4 263 27 305 18 30 39 49 75 67 48 24 58 25 228 25 l178 0 0 -115z m689 90 c19 -11 43 -33 55 -48 21 -28 21 -35 24 -710 2 -668 2 -683 -18 -715 -33 -53 -90 -65 -176 -36 -25 8 -131 75 -235 147 -179 124 -191 134 -217 186 l-27 56 -3 495 c-2 329 0 507 7 531 6 20 23 49 38 64 52 52 70 55 303 52 194 -2 218 -4 249 -22z m530 -390 c68 -229 127 -413 130 -409 3 3 58 189 121 412 l115 407 108 3 107 3 0 -1071 c0 -588 -3 -1070 -7 -1070 -5 1 -53 18 -108 38 l-100 37 -5 610 c-3 336 -8 603 -12 595 -7 -12 -130 -451 -178 -628 -10 -38 -14 -43 -37 -40 -25 3 -30 16 -137 375 -61 205 -114 373 -118 373 -4 0 -9 -238 -10 -529 l-3 -529 -107 62 -107 61 -1 858 0 857 113 0 113 0 123 -415z m1254 403 c55 -17 101 -65 116 -121 14 -56 15 -912 1 -971 -21 -92 -75 -125 -255 -156 -71 -12 -140 -24 -152 -27 l-23 -5 0 -452 0 -451 -87 3 c-49 1 -98 5 -110 7 l-23 5 0 1090 0 1090 246 0 c164 0 260 -4 287 -12z m647 8 c0 -2 61 -378 135 -836 74 -459 134 -834 132 -836 -21 -18 -204 -111 -208 -106 -4 4 -19 92 -35 195 -25 170 -29 188 -46 184 -10 -3 -74 -17 -142 -32 l-123 -27 -37 -267 c-21 -146 -38 -267 -39 -268 -8 -8 -261 -102 -265 -98 -3 3 253 1538 340 2038 l10 57 139 0 c76 0 139 -2 139 -4z m533 -43 c7 -27 47 -178 88 -337 l74 -288 3 336 2 336 120 0 120 0 0 -620 0 -620 -106 -71 c-58 -39 -107 -69 -108 -67 -1 2 -42 147 -90 323 -49 176 -92 324 -97 329 -5 6 -9 -154 -9 -385 l-1 -394 -77 -47 c-42 -26 -92 -57 -109 -69 l-33 -21 0 821 0 821 105 0 104 0 14 -47z m733 -107 c27 -85 52 -152 56 -148 3 4 27 73 53 155 l47 147 100 0 c91 0 100 -2 93 -17 -4 -10 -45 -129 -91 -266 l-84 -247 0 -163 0 -162 -113 -88 -112 -88 -6 223 -5 223 -97 285 c-53 156 -97 288 -97 292 0 5 46 8 103 8 l104 0 49 -154z"></path>
    <path d="M5135 8749 c-16 -5 -79 -30 -138 -56 -86 -37 -112 -54 -125 -78 -15 -26 -17 -75 -20 -366 -3 -329 -3 -336 18 -362 l21 -27 145 0 c131 0 146 2 164 20 19 19 20 33 20 434 0 319 -3 416 -12 423 -22 17 -42 20 -73 12z"></path>
    <path d="M6858 8746 l-23 -12 -3 -417 c-2 -406 -2 -417 18 -437 18 -18 33 -20 170 -20 137 0 152 2 170 20 19 19 20 33 20 355 0 367 -3 391 -57 418 -39 20 -223 94 -250 100 -12 2 -32 -1 -45 -7z"></path>
    <path d="M7960 8310 l0 -140 174 0 c206 0 201 -3 201 106 0 103 -3 106 -199 143 -88 17 -163 31 -168 31 -4 0 -8 -63 -8 -140z"></path>
    <path d="M750 6075 l0 -995 5260 0 5260 0 0 995 0 995 -5260 0 -5260 0 0 -995z m8503 785 c71 -27 124 -71 148 -125 16 -34 19 -67 19 -212 l0 -173 -110 0 -110 0 0 108 c0 171 -16 202 -102 202 -81 -1 -98 -34 -98 -190 l0 -108 47 -52 c26 -29 92 -91 147 -139 119 -102 170 -153 203 -202 24 -37 24 -37 21 -277 l-3 -240 -30 -44 c-37 -53 -135 -106 -221 -117 -132 -18 -275 22 -327 91 -42 57 -47 90 -47 299 l0 199 110 0 110 0 0 -152 c0 -102 4 -161 13 -178 15 -30 63 -45 112 -36 29 6 39 14 51 41 20 48 19 224 -1 273 -21 49 -80 109 -197 198 -53 40 -112 93 -132 117 -63 77 -66 92 -66 337 0 236 5 267 53 318 79 85 272 114 410 62z m769 0 c76 -28 122 -80 137 -152 8 -38 11 -236 9 -649 -3 -593 -3 -594 -25 -636 -47 -86 -151 -134 -294 -135 -125 0 -192 22 -250 82 -36 37 -49 59 -58 99 -18 82 -15 1184 3 1244 27 89 80 133 201 164 70 18 206 10 277 -17z m-8692 -310 l0 -310 90 0 90 0 0 310 0 310 115 0 115 0 0 -770 0 -770 -115 0 -115 0 0 330 0 330 -90 0 -90 0 0 -330 0 -330 -115 0 -115 0 0 770 0 770 115 0 115 0 0 -310z m1005 278 c7 -46 165 -1464 165 -1488 0 -19 -7 -20 -109 -20 l-109 0 -6 43 c-3 23 -10 98 -16 167 -6 69 -13 140 -16 158 l-5 32 -89 0 -89 0 -5 -32 c-3 -18 -10 -89 -16 -158 -6 -69 -13 -144 -16 -167 l-6 -43 -100 0 -100 0 6 38 c8 48 166 1468 166 1487 0 13 27 15 170 15 l169 0 6 -32z m800 -3 c35 -21 56 -45 74 -80 25 -48 26 -54 26 -260 0 -197 -1 -213 -23 -259 -12 -28 -35 -66 -49 -85 -21 -27 -24 -36 -12 -40 28 -9 67 -61 78 -105 7 -29 11 -160 11 -360 l0 -316 -110 0 -110 0 0 284 c0 271 -1 284 -21 309 -20 26 -99 57 -146 57 l-23 0 0 -325 0 -325 -115 0 -115 0 0 770 0 771 243 -3 244 -3 48 -30z m475 -615 l0 -650 120 0 120 0 0 -120 0 -120 -235 0 -235 0 0 770 0 770 115 0 115 0 0 -650z m800 535 l0 -115 -135 0 -135 0 0 -195 0 -195 120 0 120 0 0 -115 0 -115 -120 0 -120 0 0 -225 0 -225 135 0 135 0 0 -120 0 -120 -240 0 -240 0 0 770 0 770 240 0 240 0 0 -115z m309 -137 c28 -139 51 -258 51 -265 0 -6 4 -14 9 -17 5 -3 39 116 76 264 l67 270 99 0 c55 0 99 -2 99 -4 0 -2 -52 -214 -115 -471 l-115 -467 0 -299 0 -299 -105 0 -105 0 0 279 0 279 -124 491 -124 491 117 0 118 0 52 -252z m1390 217 c62 -34 104 -86 128 -159 15 -44 17 -115 21 -549 4 -627 -2 -677 -99 -746 -57 -42 -115 -51 -319 -51 l-180 0 0 771 0 771 198 -4 197 -3 54 -30z m736 -7 c8 -59 165 -1473 165 -1487 0 -7 -35 -11 -110 -11 l-109 0 -5 33 c-3 17 -10 86 -16 152 -6 66 -13 142 -16 168 l-6 48 -91 -3 -92 -3 -24 -197 -24 -198 -99 0 c-79 0 -98 3 -98 14 0 8 41 352 90 764 50 413 90 752 90 756 0 3 76 6 169 6 l170 0 6 -42z m359 5 c3 -21 29 -229 57 -463 28 -234 52 -426 54 -428 2 -2 6 11 9 29 7 41 106 871 106 887 0 9 34 12 113 12 l114 0 -111 -770 -110 -770 -126 0 -125 0 -103 763 c-57 419 -103 765 -103 770 1 4 50 7 110 7 l109 0 6 -37z m726 -733 l0 -770 -110 0 -110 0 0 770 0 770 110 0 110 0 0 -770z m581 744 c62 -29 114 -85 141 -153 22 -55 23 -63 26 -573 2 -338 -1 -537 -8 -575 -16 -87 -54 -142 -125 -178 l-59 -30 -203 -3 -203 -4 0 772 0 772 193 -4 c170 -3 197 -5 238 -24z m2069 22 c0 -19 153 -755 160 -771 5 -12 9 135 9 378 l1 397 115 0 115 0 0 -770 0 -770 -139 0 c-124 0 -140 2 -145 18 -2 9 -44 204 -91 432 -48 228 -91 419 -96 424 -5 6 -9 -172 -9 -432 l0 -442 -110 0 -110 0 0 770 0 770 150 0 c83 0 150 -2 150 -4z m-5040 -756 l0 -90 -215 0 -215 0 0 90 0 90 215 0 215 0 0 -90z"></path>
    <path d="M9785 6625 l-25 -24 0 -501 c0 -500 2 -531 34 -552 6 -4 34 -8 62 -8 40 0 55 5 72 23 22 23 22 23 22 531 l0 507 -25 24 c-18 19 -35 25 -70 25 -35 0 -52 -6 -70 -25z"></path>
    <path d="M2116 6303 c-15 -159 -30 -298 -33 -310 -5 -22 -3 -23 67 -23 l72 0 -6 28 c-3 15 -17 154 -33 310 -15 155 -30 282 -33 282 -3 0 -18 -129 -34 -287z"></path>
    <path d="M2830 6425 l0 -235 44 0 c23 0 57 5 75 11 54 19 61 47 61 237 0 156 -2 171 -21 196 -19 24 -27 26 -90 26 l-69 0 0 -235z"></path>
    <path d="M5880 6096 l0 -536 40 0 c58 0 89 18 101 59 6 24 9 197 7 498 -3 459 -3 463 -25 484 -14 15 -38 23 -72 27 l-51 5 0 -537z"></path>
    <path d="M6650 6569 c0 -30 -37 -498 -44 -556 l-6 -43 63 0 63 0 -31 304 c-17 168 -34 308 -38 312 -4 4 -7 -4 -7 -17z"></path>
    <path d="M8300 6096 l0 -536 44 0 c110 0 106 -20 106 539 l0 470 -23 27 c-18 21 -35 28 -75 32 l-52 5 0 -537z"></path>
    <path d="M4264 4283 l-35 -38 3 -367 c3 -417 -3 -387 94 -460 53 -41 108 -58 127 -39 9 9 13 126 15 429 3 363 1 422 -13 455 -18 43 -45 57 -112 57 -40 0 -50 -5 -79 -37z"></path>
    <path d="M6080 3915 l0 -406 68 7 c84 8 97 15 122 64 19 37 20 59 20 354 0 214 -4 323 -11 340 -15 32 -56 46 -135 46 l-64 0 0 -405z"></path>
    <path d="M6885 3949 c-13 -77 -83 -594 -80 -597 4 -4 159 38 173 47 8 5 -71 567 -82 579 -3 2 -7 -11 -11 -29z"></path>
    </g>
</svg>