<?xml version="1.0" standalone="no"?>
<!DOCTYPE svg PUBLIC "-//W3C//DTD SVG 20010904//EN"
 "http://www.w3.org/TR/2001/REC-SVG-20010904/DTD/svg10.dtd">
<svg xmlns="http://www.w3.org/2000/svg" version="1.0" width="1200.000000pt" height="1200.000000pt" viewBox="0 0 1200.000000 1200.000000" preserveAspectRatio="xMidYMid meet">
<metadata>
Created by potrace 1.15, written by Peter Selinger 2001-2017
</metadata>
<g transform="translate(0.000000,1200.000000) scale(0.100000,-0.100000)" fill="#000000" stroke="none">
<path d="M5720 11744 c-25 -2 -108 -8 -185 -14 -1082 -84 -2183 -508 -3035 -1169 -259 -201 -589 -509 -800 -746 -620 -699 -1056 -1529 -1279 -2437 -122 -492 -166 -859 -166 -1383 0 -524 44 -891 166 -1383 223 -908 660 -1739 1279 -2437 122 -137 392 -405 525 -521 690 -600 1507 -1024 2397 -1243 492 -122 859 -166 1383 -166 343 0 462 8 753 45 574 75 1164 248 1702 499 983 459 1853 1233 2431 2164 429 690 714 1487 819 2289 37 291 45 410 45 753 0 524 -44 891 -166 1383 -305 1239 -1001 2323 -2010 3128 -858 685 -1904 1105 -3039 1219 -145 15 -714 28 -820 19z m760 -234 c954 -96 1795 -388 2553 -886 1240 -815 2095 -2077 2391 -3529 117 -574 142 -1140 76 -1717 -104 -909 -438 -1796 -953 -2533 -320 -458 -723 -881 -1172 -1230 -575 -447 -1299 -797 -2023 -979 -465 -116 -866 -166 -1346 -166 -481 0 -873 48 -1331 162 -1013 253 -1897 759 -2626 1505 -423 433 -745 889 -1009 1428 -732 1494 -756 3206 -68 4725 424 936 1127 1758 1988 2325 810 534 1755 846 2745 909 111 7 669 -3 775 -14z" style="fill: #d6d6d6;"/>
<path d="M5720 11379 c-943 -49 -1874 -353 -2660 -867 -329 -215 -573 -414 -865 -707 -293 -292 -492 -536 -707 -865 -841 -1286 -1090 -2887 -682 -4375 93 -338 200 -616 364 -950 276 -562 580 -986 1024 -1431 434 -433 867 -745 1407 -1013 1542 -766 3341 -754 4874 33 502 258 932 572 1341 980 404 405 720 836 975 1331 685 1328 791 2863 296 4275 -195 559 -495 1101 -861 1559 -503 629 -1105 1117 -1816 1470 -840 418 -1759 609 -2690 560z m610 -239 c1003 -70 1959 -421 2747 -1008 201 -150 360 -288 559 -487 201 -200 303 -315 451 -507 789 -1020 1170 -2336 1048 -3612 -103 -1078 -526 -2071 -1229 -2887 -140 -163 -432 -453 -581 -578 -792 -661 -1718 -1058 -2755 -1182 -223 -26 -676 -36 -905 -20 -1000 73 -1944 421 -2731 1009 -206 153 -362 289 -564 492 -416 415 -713 826 -969 1340 -391 785 -573 1628 -540 2497 64 1666 934 3200 2336 4117 721 471 1598 765 2463 825 179 12 501 12 670 1z" style="&#10;    fill: #c3c3c3;&#10;"/>
<path d="M5890 10820 c-88 -15 -336 -109 -440 -167 -229 -127 -558 -382 -804 -623 -268 -262 -508 -538 -645 -740 -125 -184 -166 -277 -221 -501 -42 -174 -53 -292 -48 -523 5 -185 9 -217 47 -404 43 -215 72 -312 125 -426 79 -171 389 -743 417 -768 17 -17 41 -28 57 -28 24 0 33 11 85 104 31 57 57 106 57 109 0 9 -106 75 -146 91 -21 8 -65 22 -97 31 l-58 17 -45 96 c-46 97 -46 97 -28 127 93 160 104 182 104 215 0 34 -1 35 -63 53 -199 58 -223 68 -240 97 -36 60 -22 95 93 240 89 112 148 204 161 253 9 33 8 41 -8 53 -38 29 -197 2 -302 -51 l-51 -25 0 80 0 80 46 42 c55 51 84 106 130 246 26 80 32 108 23 118 -15 18 -83 18 -145 -1 -27 -8 -50 -15 -52 -15 -4 0 2 36 20 113 l10 48 24 -26 c37 -41 119 -31 206 24 43 28 60 48 173 215 14 21 29 36 31 33 3 -3 0 -33 -7 -66 -6 -34 -9 -64 -6 -67 8 -8 178 80 233 122 27 20 83 68 125 106 42 37 79 68 82 68 2 0 -13 -42 -34 -94 -22 -52 -57 -161 -79 -243 -54 -196 -86 -294 -122 -375 -36 -80 -33 -107 17 -131 30 -14 35 -22 35 -50 0 -33 -2 -34 -78 -61 -75 -26 -81 -30 -122 -89 -24 -34 -98 -136 -165 -227 -200 -270 -199 -264 -25 -303 138 -30 180 -29 218 5 27 25 95 163 163 332 l44 108 18 -81 19 -82 -60 -123 c-33 -69 -63 -137 -66 -153 -13 -59 45 -92 159 -93 50 0 51 -1 64 -37 8 -21 16 -43 18 -50 3 -7 -11 -4 -33 7 -31 16 -54 19 -144 16 -59 -2 -115 -8 -126 -14 -51 -28 -170 -184 -179 -236 -3 -17 -2 -49 2 -71 8 -37 14 -43 78 -77 97 -51 154 -64 212 -47 42 11 50 20 98 93 57 88 104 176 115 216 6 22 10 16 29 -42 l22 -67 -46 -94 c-40 -81 -46 -98 -39 -131 6 -37 11 -41 88 -76 44 -21 107 -46 139 -56 50 -15 63 -25 99 -73 23 -31 43 -58 45 -60 1 -2 5 -2 8 1 6 6 -7 38 -106 256 -43 95 -95 219 -115 275 -54 156 -132 428 -154 542 -30 160 -52 447 -54 715 -1 263 4 309 51 412 22 51 29 58 54 58 15 0 31 -5 35 -12 4 -7 8 -276 9 -598 1 -546 2 -594 22 -720 53 -333 112 -533 228 -769 91 -186 108 -211 142 -211 20 0 24 4 18 18 -47 115 -45 148 10 179 47 25 204 72 371 110 108 24 138 27 327 27 207 1 209 1 228 -22 26 -33 43 -95 35 -128 -13 -50 -56 -77 -197 -123 -110 -36 -129 -45 -114 -54 11 -6 109 -12 229 -15 l209 -5 -6 24 c-11 46 -77 394 -93 494 -12 76 -16 164 -15 364 2 350 23 550 78 726 50 163 127 287 168 271 27 -10 47 -76 52 -177 5 -81 1 -120 -23 -240 -29 -143 -29 -146 -29 -514 0 -455 14 -592 81 -814 18 -58 35 -93 55 -114 17 -16 31 -28 33 -26 2 2 -9 69 -25 149 -110 555 -103 898 25 1327 51 171 121 358 147 395 l23 32 9 -35 c38 -155 109 -252 192 -265 62 -9 207 2 248 20 56 23 450 292 502 343 59 56 91 114 71 125 -20 12 -76 -9 -120 -44 -23 -17 -47 -36 -53 -41 -10 -7 -12 -2 -7 22 6 29 5 31 -23 31 -21 0 -63 -24 -148 -85 -65 -47 -120 -84 -121 -82 -2 2 1 19 6 38 6 18 10 101 10 184 0 345 46 679 110 805 l19 38 46 -9 c106 -20 113 -37 70 -167 -19 -55 -46 -124 -60 -152 -27 -53 -31 -110 -8 -117 21 -7 54 40 120 173 77 154 87 202 51 254 -26 39 -263 235 -372 307 -76 51 -230 119 -292 129 -58 9 -106 -14 -129 -62 -25 -51 -29 -241 -16 -759 9 -373 10 -382 40 -515 41 -175 58 -228 89 -269 l25 -34 82 6 c77 5 105 -1 105 -24 0 -3 -24 -17 -52 -29 -151 -66 -232 -6 -307 227 -90 280 -160 743 -180 1203 -9 191 -8 232 9 365 21 161 36 251 46 266 14 23 189 -144 218 -208 17 -38 26 -44 108 -79 150 -63 334 -185 546 -363 82 -68 92 -70 209 -50 54 9 67 9 88 -5 16 -11 47 -16 94 -16 l70 0 -19 -32 c-10 -18 -39 -87 -65 -153 -44 -116 -163 -364 -188 -395 -6 -8 -32 -22 -57 -30 -77 -26 -120 -130 -71 -174 67 -60 220 118 391 455 71 140 85 160 131 195 51 39 79 78 79 111 0 12 -29 37 -80 71 -121 80 -239 182 -300 258 -99 124 -273 305 -334 345 -40 27 -100 52 -190 80 -357 110 -438 138 -656 219 -359 134 -496 174 -683 199 -87 12 -102 12 -167 1z m452 -142 c-7 -7 -12 -24 -12 -38 0 -31 32 -50 83 -50 43 0 61 13 54 39 -4 18 -2 19 14 11 31 -17 43 -49 28 -76 -15 -29 -59 -32 -140 -8 -62 18 -82 34 -99 75 -16 39 0 59 48 59 28 0 33 -3 24 -12z m-541 -38 c24 -14 26 -72 2 -95 -19 -20 -70 -43 -180 -82 l-76 -27 -18 23 c-24 30 -24 53 1 82 l21 24 15 -22 c20 -29 72 -30 129 -4 59 26 71 45 51 75 -14 23 -14 25 2 29 28 8 33 7 53 -3z m284 -145 c-22 -8 -42 -15 -44 -15 -2 0 -1 -25 1 -57 7 -85 47 -109 140 -83 48 14 68 34 68 70 0 34 -42 87 -73 93 -14 3 -8 5 15 6 53 2 88 -42 88 -110 0 -86 -15 -97 -155 -118 -57 -9 -73 -8 -92 4 -27 18 -56 108 -51 162 4 45 31 63 98 62 l45 0 -40 -14z m325 -5 c9 -6 10 -10 3 -10 -18 0 -35 -39 -29 -65 6 -25 50 -45 97 -45 49 0 59 9 59 54 1 38 2 40 15 22 23 -30 19 -92 -6 -117 -18 -18 -29 -21 -74 -16 -59 6 -110 28 -124 55 -5 9 -12 34 -16 54 -6 29 -3 40 14 57 23 23 38 26 61 11z m-1029 -49 c31 -32 37 -62 16 -80 -30 -24 -221 -101 -239 -95 -24 7 -41 40 -33 65 l7 21 19 -21 c29 -31 77 -27 133 11 76 50 89 108 24 108 -25 0 -29 3 -18 10 27 18 61 10 91 -19z m516 -12 c7 -14 20 -59 28 -99 14 -68 14 -74 -2 -93 -27 -30 -133 -77 -174 -77 -41 0 -56 13 -93 84 -45 85 -32 118 63 166 112 56 158 61 178 19z m-349 -144 c12 -9 34 -36 48 -61 32 -54 29 -112 -7 -151 -32 -33 -143 -85 -187 -86 -29 -1 -41 6 -71 40 -20 22 -47 61 -61 86 l-24 46 21 23 c12 13 37 32 55 42 l33 20 -27 -33 c-38 -44 -35 -67 12 -113 44 -41 71 -47 131 -26 64 21 89 46 89 86 0 20 -7 46 -15 56 -22 29 -67 56 -95 57 -24 1 -24 1 5 14 40 19 66 18 93 0z m1772 -95 c115 -38 227 -96 236 -122 3 -11 4 -21 2 -23 -2 -2 -33 -9 -68 -14 -90 -15 -133 -1 -190 58 -47 49 -98 131 -82 131 6 0 52 -14 102 -30z m-930 -45 c-14 -16 -72 -35 -111 -35 -14 0 -36 -11 -49 -25 l-23 -25 47 -70 c25 -39 62 -88 82 -110 31 -35 22 -30 -82 40 -102 69 -124 80 -161 80 -54 0 -88 -16 -103 -49 -11 -25 -9 -29 52 -86 34 -33 110 -98 168 -144 160 -128 161 -129 -90 27 -230 141 -260 151 -325 101 -33 -26 -32 -57 4 -106 38 -52 92 -91 286 -203 88 -51 165 -97 170 -102 6 -6 -57 24 -140 65 -209 104 -373 175 -421 183 -52 8 -99 -12 -158 -66 -46 -43 -72 -96 -62 -128 12 -37 54 -63 143 -87 122 -34 271 -90 482 -184 235 -104 260 -113 311 -109 38 3 48 8 67 37 25 36 29 83 13 127 -6 15 -9 29 -6 31 9 9 56 -10 56 -24 0 -8 -17 -67 -39 -131 -21 -65 -41 -148 -45 -185 -9 -96 -39 -168 -95 -229 l-48 -53 -5 -100 c-4 -82 -10 -109 -31 -151 -24 -48 -52 -72 -66 -59 -3 4 5 34 18 68 14 34 26 90 29 124 3 59 2 63 -32 101 -48 53 -126 92 -278 140 -263 84 -524 135 -759 148 -91 5 -108 3 -134 -14 -44 -28 -88 -122 -93 -198 -4 -59 -3 -63 32 -101 20 -22 36 -43 36 -45 0 -3 -24 -21 -54 -41 l-54 -36 -16 34 c-47 99 9 323 111 435 29 33 38 54 50 117 l15 78 128 125 c76 75 146 153 173 195 54 84 84 114 201 195 50 34 99 74 110 89 63 80 101 110 243 188 207 113 370 181 437 182 24 1 27 -1 16 -14z m-1196 -79 c37 -27 76 -98 76 -135 0 -48 -31 -90 -99 -134 -85 -56 -97 -60 -129 -43 -58 31 -152 153 -152 199 0 14 59 73 105 104 73 49 143 52 199 9z m-331 -270 c35 -25 67 -85 67 -124 0 -79 -84 -174 -209 -237 l-54 -27 -84 57 c-87 60 -127 102 -138 146 -5 22 4 36 67 101 48 48 100 89 148 116 l74 41 50 -26 c27 -14 63 -35 79 -47z m-473 -302 c17 -15 47 -58 66 -96 l35 -70 -26 -43 c-49 -85 -279 -229 -353 -223 -31 3 -36 8 -54 53 l-19 49 27 63 c14 35 30 66 35 69 5 2 0 -15 -11 -38 -11 -24 -20 -58 -20 -76 0 -45 25 -102 46 -102 20 0 194 119 248 169 73 68 80 140 21 204 -48 51 -128 27 -210 -65 -31 -35 -39 -41 -24 -18 54 80 141 148 191 150 9 0 31 -12 48 -26z m1305 -759 c150 -31 324 -154 353 -249 6 -22 10 -41 9 -42 -4 -3 -779 133 -830 146 -85 22 -80 27 104 95 188 70 236 77 364 50z m-406 -246 c321 -37 730 -117 818 -160 53 -26 78 -72 68 -126 -8 -43 -30 -48 -136 -29 -165 30 -259 37 -604 46 -192 5 -371 14 -397 20 -50 12 -104 44 -121 71 -23 37 27 148 82 182 34 22 79 21 290 -4z m366 -364 c77 -9 204 -27 283 -40 183 -31 201 -48 189 -174 -6 -70 -29 -119 -63 -131 -33 -13 -482 -13 -659 0 -311 23 -449 51 -473 97 -5 10 -15 45 -22 77 -10 51 -10 68 5 122 l17 63 71 4 c137 8 513 -2 652 -18z m180 -426 c33 -6 89 -15 125 -20 112 -19 169 -64 178 -145 3 -31 -1 -55 -18 -89 -40 -83 -20 -80 -564 -80 l-478 0 -34 39 c-48 56 -94 152 -94 197 0 46 38 95 83 108 40 12 719 3 802 -10z m218 -435 c53 -18 82 -48 98 -105 23 -73 16 -76 -372 -124 -218 -27 -330 -46 -465 -79 -99 -25 -182 -42 -185 -38 -11 13 -89 249 -89 269 0 21 29 52 70 74 19 11 96 16 305 20 387 9 578 4 638 -17z" style="&#10;    fill: grey;&#10;"/>
<path d="M5756 10414 c-61 -22 -76 -40 -76 -94 0 -36 5 -52 23 -68 44 -42 146 -20 190 40 27 37 14 84 -32 115 -39 26 -51 27 -105 7z" style="&#10;    fill: grey;&#10;"/>
<path d="M5377 9380 c-81 -21 -131 -63 -192 -165 -30 -51 -35 -68 -33 -109 5 -76 17 -81 285 -126 260 -44 288 -50 503 -119 251 -79 312 -86 400 -41 47 24 70 64 70 122 0 75 -5 81 -113 140 -207 114 -368 185 -602 263 -119 40 -244 53 -318 35z" style="&#10;    fill: grey;&#10;"/>
<path d="M5025 10056 c-29 -12 -85 -69 -85 -84 1 -63 69 -142 123 -142 46 0 135 59 148 97 12 39 -8 92 -49 123 -29 23 -92 26 -137 6z" style="&#10;    fill: grey;&#10;"/>
<path d="M4642 9794 c-62 -31 -129 -104 -138 -150 -13 -69 58 -134 144 -134 50 0 68 8 140 63 82 62 99 110 64 176 -22 41 -74 71 -122 71 -20 0 -59 -12 -88 -26z" style="&#10;    fill: grey;&#10;"/>
<path d="M7918 9563 c-14 -16 -56 -84 -93 -153 -37 -69 -97 -170 -134 -225 -65 -97 -68 -100 -101 -97 -58 5 -106 -55 -117 -147 -5 -41 -2 -52 16 -70 11 -11 27 -21 34 -21 23 0 226 242 304 362 54 84 183 337 183 361 0 29 -61 23 -92 -10z" style="&#10;    fill: grey;&#10;"/>
<path d="M4440 8811 c-184 -58 -266 -126 -340 -284 -49 -105 -90 -214 -90 -242 0 -9 16 -23 35 -31 31 -12 44 -12 104 0 163 34 238 112 348 364 49 114 65 190 42 209 -10 8 -36 4 -99 -16z" style="&#10;    fill: grey;&#10;"/>
<path d="M4587 6779 c-57 -63 -76 -104 -57 -123 13 -13 488 -16 534 -3 l29 8 -24 25 c-41 44 -174 93 -401 148 -23 5 -33 -2 -81 -55z" style="&#10;    fill: grey;&#10;"/>
<path d="M7420 5947 l0 -575 157 -7 c160 -8 1066 9 1115 21 38 9 108 72 126 113 20 47 29 270 13 329 -13 46 -61 107 -92 117 -19 6 -18 9 10 41 60 68 66 88 65 224 0 108 -3 132 -22 175 -26 57 -54 90 -97 113 -27 15 -96 17 -652 20 l-623 3 0 -574z m1060 242 c14 -32 16 -76 5 -109 -6 -19 -15 -20 -356 -20 l-349 0 0 80 0 80 344 0 344 0 12 -31z m7 -421 c8 -25 9 -47 2 -72 l-10 -36 -349 0 -350 0 0 75 0 75 347 -2 348 -3 12 -37z" style="&#10;    fill: #404040;&#10;"/>
<path d="M9895 6299 c-143 -176 -181 -217 -190 -207 -7 7 -85 104 -174 216 l-162 202 -219 0 c-121 0 -220 -2 -220 -5 0 -3 135 -167 300 -366 l300 -361 0 -194 0 -194 185 0 185 0 0 188 1 187 299 370 c165 204 300 373 300 378 0 4 -96 7 -214 7 l-214 0 -177 -221z" style="&#10;    fill: #404040;&#10;"/>
<path d="M1585 6494 c-51 -26 -94 -75 -117 -133 -19 -49 -22 -75 -23 -216 0 -153 1 -162 25 -204 57 -101 106 -111 561 -118 l346 -5 17 -28 c20 -35 21 -80 2 -125 l-15 -35 -263 0 c-146 0 -279 5 -299 10 -37 10 -49 28 -63 93 l-6 27 -149 0 -148 0 -7 -46 c-3 -26 -6 -79 -6 -119 0 -63 4 -77 31 -118 17 -26 50 -59 73 -72 l43 -25 484 0 c315 0 498 4 523 11 51 14 133 91 147 138 7 22 9 107 7 222 -3 185 -3 186 -31 222 -40 52 -101 85 -182 97 -39 5 -215 10 -391 10 -366 0 -334 -9 -334 96 l0 64 296 -2 296 -3 17 -45 17 -45 152 -3 152 -3 0 93 c0 68 -5 104 -19 133 -23 51 -98 118 -149 133 -28 9 -175 12 -498 12 -396 0 -463 -2 -489 -16z" style="&#10;    fill: #404040;&#10;"/>
<path d="M4208 6503 l-138 -4 0 -199 0 -200 -375 0 -375 0 0 200 0 200 -180 0 -180 0 0 -560 0 -560 175 0 175 0 0 190 0 190 375 0 375 0 0 -190 0 -190 190 0 190 0 0 565 0 565 -47 -2 c-27 -1 -110 -4 -185 -5z" style="&#10;    fill: #404040;&#10;"/>
<path d="M4620 5940 l0 -560 468 0 c258 0 544 -3 635 -7 l167 -6 0 136 0 137 -455 0 -455 0 0 85 0 85 425 0 425 0 0 130 0 130 -420 0 -420 0 0 90 0 90 455 0 455 0 0 125 0 125 -640 0 -640 0 0 -560z" style="&#10;    fill: #404040;&#10;"/>
<path d="M6116 5944 c-3 -307 -5 -558 -4 -560 2 -1 265 -6 586 -10 l582 -7 0 136 0 137 -390 0 -390 0 0 430 0 430 -188 0 -189 0 -7 -556z" style="&#10;    fill: #404040;&#10;"/>
<path d="M6290 5240 l-555 -5 -39 -78 c-21 -43 -41 -97 -43 -121 -5 -39 -2 -45 32 -75 20 -18 66 -47 102 -64 l65 -32 38 43 39 43 10 -38 c6 -21 13 -54 16 -73 3 -19 26 -64 51 -100 24 -36 40 -66 34 -68 -6 -2 -35 10 -64 27 l-55 30 -30 -34 c-37 -42 -58 -110 -40 -131 19 -23 176 -154 185 -154 4 0 23 14 41 32 18 17 35 29 39 26 3 -4 6 -32 6 -64 1 -52 5 -65 46 -123 38 -56 82 -140 82 -158 0 -3 -17 17 -38 44 -50 62 -108 113 -130 113 -20 0 -65 -44 -76 -73 -3 -10 -3 -30 0 -43 8 -33 158 -164 188 -164 32 0 54 28 58 75 l3 40 20 -58 c19 -58 19 -59 -9 -127 -4 -9 13 -40 43 -80 43 -56 53 -78 71 -158 l22 -92 -47 -81 c-54 -92 -54 -98 14 -171 71 -79 91 -116 91 -172 l0 -51 -60 -39 c-33 -21 -60 -40 -60 -42 0 -3 20 -58 45 -123 69 -181 62 -210 -65 -261 l-80 -32 0 -59 c0 -43 7 -73 27 -113 25 -52 26 -56 12 -93 l-15 -38 -86 -5 c-50 -3 -92 -11 -102 -19 -23 -19 -21 -105 4 -159 l20 -44 -37 -44 c-25 -29 -43 -42 -54 -39 -41 13 -175 35 -215 35 -55 0 -69 -20 -78 -110 -17 -180 -13 -167 -60 -179 -41 -10 -47 -8 -140 39 -148 76 -211 67 -230 -35 -7 -37 -30 -55 -47 -38 -7 7 -3 24 12 52 43 84 7 158 -106 215 l-50 25 35 0 c31 1 96 -11 142 -25 12 -4 25 8 44 38 33 52 64 88 76 88 4 0 8 -33 8 -74 0 -73 0 -74 40 -109 72 -66 144 -91 190 -67 24 13 63 134 55 171 -8 34 -57 81 -123 117 l-52 29 25 11 c21 10 32 9 57 -4 59 -30 98 2 82 69 -10 43 -8 52 29 106 29 43 35 46 62 40 17 -4 52 -7 79 -8 l48 -1 -7 38 c-4 20 -20 71 -36 112 -25 62 -28 81 -20 103 10 26 13 27 82 27 81 0 139 21 139 51 0 30 -45 120 -89 178 -41 55 -46 68 -35 107 5 19 14 22 73 26 53 3 77 9 110 31 l41 27 -15 37 c-32 76 -59 99 -175 153 -8 4 -16 23 -18 44 l-3 36 51 0 c59 0 97 17 134 60 35 42 33 66 -12 136 -53 81 -94 114 -143 114 -42 0 -38 -6 -58 88 -10 49 -17 46 64 26 21 -5 32 1 61 31 43 46 74 105 74 142 0 36 -38 99 -76 123 -35 24 -101 26 -151 5 -19 -8 -37 -15 -38 -15 -1 0 -5 21 -8 48 -3 26 -8 54 -12 64 -6 14 -1 16 35 11 48 -7 78 16 112 80 l19 39 -26 40 c-45 68 -129 148 -154 148 -13 0 -39 -9 -57 -21 l-34 -21 -9 24 c-4 13 -18 49 -30 81 -11 32 -21 60 -21 62 0 2 14 -1 30 -7 45 -15 77 -2 107 43 38 58 38 118 -2 159 -34 35 -157 100 -190 100 -12 0 -34 -9 -48 -20 -23 -18 -27 -19 -41 -4 -9 8 -16 32 -16 52 0 27 -10 49 -43 91 -24 31 -47 61 -50 68 -4 7 31 -1 80 -18 l87 -29 21 20 c22 21 45 81 45 118 0 37 -81 45 -122 13 -24 -19 -25 -19 -54 0 -23 15 -47 19 -121 19 -51 0 -93 -2 -93 -5 0 -2 34 -66 77 -142 280 -505 382 -759 458 -1138 46 -229 58 -352 53 -515 -4 -136 -5 -138 -45 -222 -48 -100 -92 -154 -134 -163 -27 -6 -35 -2 -66 35 -53 62 -523 365 -718 462 -252 127 -533 183 -855 172 -201 -7 -246 -16 -375 -81 -118 -59 -206 -125 -304 -228 -123 -131 -217 -282 -275 -443 -39 -109 -32 -168 30 -249 l24 -32 -51 -93 c-112 -201 -149 -287 -149 -346 0 -93 17 -130 95 -208 85 -86 233 -184 416 -277 133 -67 136 -68 339 -107 441 -83 511 -92 805 -97 334 -6 558 7 830 47 206 31 211 32 283 16 100 -22 555 -23 692 -1 134 21 270 67 421 142 l130 64 127 -25 c336 -67 352 -69 654 -73 327 -5 365 -1 563 68 175 60 236 93 305 165 112 117 160 276 127 422 -23 99 -72 201 -147 302 -115 154 -539 571 -719 705 -47 36 -132 89 -189 117 -71 37 -104 59 -107 73 -58 285 -59 290 -193 606 -112 265 -217 544 -318 851 l-69 208 -60 -3 c-33 -1 -310 -4 -615 -7z m485 -70 c33 -17 61 -42 81 -72 37 -55 90 -178 115 -267 16 -56 17 -66 4 -91 -30 -57 -61 -61 -454 -58 l-353 3 -28 33 c-29 35 -154 297 -176 370 -12 40 -12 43 9 56 70 44 169 55 482 53 268 -2 271 -2 320 -27z m242 -579 c47 -22 76 -62 130 -178 50 -108 60 -161 38 -206 -14 -31 -23 -37 -66 -46 -28 -6 -118 -11 -202 -11 -84 0 -218 -5 -298 -12 -114 -9 -158 -9 -200 0 l-54 12 -76 198 -77 197 27 17 c62 40 123 47 436 47 274 1 304 -1 342 -18z m215 -548 c55 -25 93 -76 114 -154 17 -66 18 -105 2 -163 l-12 -44 -70 -11 c-192 -30 -616 -53 -696 -37 -59 10 -113 107 -145 256 -19 88 -9 103 82 123 57 13 199 33 353 51 19 2 100 3 180 2 124 -2 152 -5 192 -23z m158 -473 c10 -5 28 -35 39 -65 41 -109 18 -206 -51 -219 -86 -16 -494 -76 -588 -86 -115 -13 -173 -5 -203 28 -24 26 -47 127 -47 203 0 56 3 69 18 73 27 8 381 56 484 65 135 12 326 13 348 1z m-2817 -70 c42 -37 90 -105 85 -121 -2 -6 -51 -25 -108 -41 l-105 -29 -22 25 c-21 25 -63 124 -63 151 0 19 74 42 142 44 28 1 46 -6 71 -29z m-291 -127 c20 -43 38 -86 41 -95 4 -12 -12 -28 -67 -62 -82 -51 -91 -54 -104 -28 -16 30 -54 211 -47 223 12 18 67 38 106 39 35 0 37 -2 71 -77z m-571 -80 c25 -67 -5 -162 -66 -209 -42 -32 -166 -77 -178 -65 -12 12 10 173 28 212 15 30 28 39 98 66 45 16 88 28 95 25 8 -3 18 -16 23 -29z m1303 7 c14 -5 33 -24 42 -42 l16 -33 -29 28 c-22 20 -39 27 -71 27 -49 0 -65 -21 -55 -72 11 -61 31 -88 64 -88 48 0 89 26 90 58 l1 27 13 -30 c8 -16 14 -35 15 -42 0 -15 -116 -73 -146 -73 -26 0 -39 21 -79 125 -32 86 -32 101 3 113 35 13 104 15 136 2z m-241 -142 c68 -132 71 -150 39 -182 -32 -29 -91 -56 -127 -56 -36 0 -31 12 14 33 53 24 91 64 91 96 0 33 -41 122 -69 150 -35 35 -115 25 -168 -23 -38 -33 -26 -138 24 -204 l25 -33 -29 7 c-40 9 -43 14 -64 90 -22 80 -24 133 -6 158 18 24 112 54 172 55 l50 1 48 -92z m2665 -21 c7 -140 -30 -214 -128 -256 -90 -39 -348 -71 -567 -71 -113 0 -124 2 -148 23 -20 16 -28 35 -32 68 -8 68 13 154 45 185 26 26 30 26 182 29 152 3 348 30 505 69 33 8 78 14 100 13 l40 -2 3 -58z m-4077 -70 c-17 -107 -38 -153 -93 -203 -69 -64 -84 -69 -104 -39 -13 20 -15 38 -10 80 14 121 71 217 154 259 46 24 47 24 56 5 6 -13 5 -50 -3 -102z m1021 8 c10 -33 16 -66 13 -72 -7 -20 -29 -15 -55 12 -17 18 -34 25 -60 25 -45 0 -81 23 -63 41 27 28 90 57 117 56 27 -2 31 -7 48 -62z m-381 -4 c24 -16 57 -43 72 -59 l28 -29 -132 -79 c-72 -43 -134 -79 -137 -79 -14 0 -31 84 -31 156 l-1 76 68 21 c86 27 81 27 133 -7z m3639 -31 c0 -6 -8 -13 -17 -17 -62 -21 -71 -82 -22 -138 25 -28 38 -35 68 -35 47 0 68 22 73 75 l3 40 14 -27 c13 -25 12 -31 -12 -65 -33 -47 -80 -77 -110 -69 -20 6 -69 63 -95 113 -14 25 8 100 35 121 20 15 63 16 63 2z m-3940 -198 l0 -127 -102 -87 -103 -87 -17 32 c-20 40 -38 134 -38 202 0 37 6 61 23 85 29 44 149 110 200 110 l37 0 0 -128z m591 62 c15 -13 17 -26 12 -62 -5 -37 -3 -47 12 -58 33 -24 66 -16 106 25 35 38 39 39 74 30 20 -6 35 -15 32 -22 -6 -20 -218 -177 -239 -177 -4 0 -24 52 -44 116 -30 95 -34 120 -25 140 12 28 46 32 72 8z m-155 -90 c7 -18 21 -89 29 -159 l16 -127 -56 -68 c-59 -72 -148 -160 -163 -160 -14 0 -90 159 -107 225 -16 63 -13 120 11 166 35 69 187 174 235 162 12 -3 27 -21 35 -39z m1324 -11 c0 -2 -11 -54 -25 -115 -38 -169 -69 -187 -154 -92 -27 31 -57 71 -65 88 -15 29 -14 32 5 48 15 13 31 16 69 11 45 -5 51 -3 79 25 17 17 31 37 31 46 0 12 5 13 30 5 17 -6 30 -13 30 -16z m-646 -19 c3 -9 6 -25 6 -37 0 -11 7 -29 17 -39 39 -43 110 -3 100 58 -6 33 -5 34 28 34 30 0 66 -21 64 -38 0 -4 -48 -45 -106 -91 l-106 -84 -22 27 c-12 15 -32 53 -45 83 l-23 56 27 24 c32 27 51 29 60 7z m3499 1 c50 -7 56 -25 8 -25 -34 0 -47 -14 -56 -60 -16 -86 63 -170 177 -186 74 -10 105 -23 117 -50 6 -14 11 -27 11 -29 0 -3 -31 -5 -69 -5 l-69 0 -11 -44 c-15 -62 -13 -130 8 -276 21 -140 27 -124 -58 -181 -63 -41 -111 -40 -179 7 -95 64 -160 75 -218 38 -11 -8 -40 -41 -64 -74 -49 -68 -78 -90 -116 -90 -33 0 -33 1 55 134 l71 108 -37 71 c-21 40 -57 91 -81 114 l-44 43 -89 -46 c-48 -25 -107 -62 -130 -83 l-43 -37 22 -100 c13 -64 17 -101 10 -105 -5 -4 -3 -9 6 -12 10 -4 16 -18 16 -37 0 -28 -3 -31 -27 -28 -23 2 -33 14 -60 69 -43 91 -60 94 -165 33 -100 -57 -127 -65 -175 -52 l-37 10 67 35 c84 45 142 100 157 150 10 34 8 47 -18 119 -24 65 -27 85 -18 102 6 11 15 21 19 22 5 0 26 -26 47 -59 40 -62 55 -74 105 -85 27 -6 38 0 88 45 31 28 69 71 83 95 32 55 28 87 -19 153 -52 72 -52 71 -14 71 25 0 50 -11 88 -39 51 -39 53 -40 82 -25 16 9 48 33 72 55 77 71 186 98 302 73 37 -8 78 -14 90 -14 l21 0 -28 106 -29 105 42 -5 c23 -3 63 -8 90 -11z m-2543 -8 c0 -17 -45 -150 -59 -174 -9 -15 -10 -13 -11 14 0 51 -9 63 -45 63 -86 0 -113 -144 -34 -182 l29 -15 -40 -54 c-23 -30 -44 -55 -49 -57 -15 -5 -52 46 -57 80 -5 31 17 130 72 321 5 15 18 17 100 17 71 0 94 -3 94 -13z m1559 -119 c-23 -62 -45 -124 -50 -138 -20 -54 -160 -123 -315 -155 -105 -21 -351 -38 -441 -30 -69 6 -72 8 -78 36 -9 38 16 118 70 233 63 132 50 128 400 138 154 4 300 12 325 17 25 5 64 9 87 10 l42 1 -40 -112z m-2658 -13 c15 -27 33 -71 40 -97 l13 -46 -115 -191 c-76 -128 -119 -191 -131 -191 -34 0 -85 100 -123 241 -22 84 -22 87 -5 125 10 22 37 58 61 80 50 47 197 136 218 132 7 -2 26 -25 42 -53z m516 -92 c139 -173 144 -184 118 -262 -21 -63 -76 -115 -146 -135 -83 -25 -94 -22 -138 37 -65 87 -99 150 -115 211 -18 67 -13 77 61 148 30 29 129 98 139 98 2 0 38 -44 81 -97z m-1452 -7 c22 -34 51 -204 36 -219 -7 -7 -35 6 -97 49 -47 32 -88 62 -91 67 -6 10 107 127 123 127 8 0 21 -11 29 -24z m-445 -41 c0 -7 15 -20 34 -30 l34 -19 -44 -28 c-51 -32 -73 -74 -81 -155 -4 -35 -2 -58 7 -68 16 -20 91 -20 159 1 50 15 54 18 82 77 16 34 27 51 24 37 -17 -83 42 -120 157 -100 56 10 71 9 96 -4 36 -19 42 -38 42 -141 0 -50 5 -86 12 -93 31 -31 180 8 206 53 9 17 27 0 129 -122 53 -63 91 -74 134 -38 16 13 36 22 44 19 18 -7 19 -20 4 -30 -6 -3 -18 -23 -26 -42 -14 -35 -14 -37 9 -57 116 -99 115 -98 83 -91 -16 4 -50 21 -75 38 -55 38 -111 42 -161 10 -33 -20 -62 -27 -106 -24 -34 3 -28 14 22 50 39 27 45 36 45 67 0 59 -45 125 -85 125 -24 0 -162 -64 -187 -87 -12 -11 -18 -31 -18 -60 0 -58 -20 -57 -78 4 l-45 46 -46 -13 c-67 -20 -119 -16 -182 14 l-56 26 0 93 c0 64 -4 103 -16 130 -15 36 -18 37 -67 37 -62 0 -98 -18 -138 -66 l-31 -37 -50 38 c-74 54 -79 68 -31 90 21 9 53 32 71 51 29 30 32 39 32 94 0 70 -16 94 -76 112 -22 7 -35 14 -28 16 6 2 11 10 11 18 0 10 13 14 48 14 56 0 84 17 102 61 13 29 14 30 27 13 7 -10 13 -23 13 -29z m1002 -235 c20 -58 37 -111 37 -117 1 -20 -57 -15 -154 13 -109 31 -126 40 -119 59 10 25 167 156 184 153 9 -2 29 -42 52 -108z m572 -41 c27 -49 46 -92 45 -93 -31 -25 -270 -49 -283 -28 -10 16 63 149 111 199 40 44 44 46 61 30 10 -9 40 -58 66 -108z m2291 14 c-44 -80 -123 -182 -166 -212 -48 -35 -119 -53 -334 -82 -161 -21 -535 -38 -535 -24 0 11 79 102 178 207 60 63 94 90 120 98 21 5 101 10 180 10 146 0 269 14 467 53 126 25 131 23 90 -50z m-2444 -269 c44 -46 79 -64 123 -64 31 0 39 6 61 40 26 42 57 60 101 60 l24 0 -34 -52 c-42 -64 -51 -98 -38 -138 13 -37 7 -38 -93 -11 -100 26 -136 43 -201 96 -55 45 -60 47 -105 42 -39 -5 -53 -2 -71 14 -23 19 -23 19 -4 34 14 11 45 15 111 15 l91 0 35 -36z m2069 -119 c0 -3 -31 -20 -69 -40 -149 -74 -314 -101 -585 -92 -172 5 -236 15 -236 36 0 5 21 27 47 48 41 34 54 39 117 44 87 7 726 11 726 4z" style="&#10;    fill: grey;&#10;"/>
<path d="M4452 3500 c-30 -13 -36 -32 -22 -75 14 -42 47 -59 94 -49 50 11 66 26 66 61 0 60 -67 91 -138 63z" style="&#10;    fill: grey;&#10;"/>
<path d="M4150 3405 c-16 -19 -8 -86 14 -120 33 -51 125 -14 111 44 -14 56 -39 86 -76 89 -23 2 -40 -3 -49 -13z" style="&#10;    fill: grey;&#10;"/>
<path d="M3584 3260 c-54 -22 -88 -121 -47 -137 29 -11 96 20 116 54 16 28 17 36 5 60 -14 30 -39 38 -74 23z" style="&#10;    fill: grey;&#10;"/>
<path d="M3237 3070 c-29 -23 -58 -99 -50 -132 5 -22 29 -48 45 -48 17 0 57 56 67 96 15 60 14 91 -5 98 -24 9 -29 8 -57 -14z" style="&#10;    fill: grey;&#10;"/>
<path d="M3543 2870 c-29 -12 -44 -43 -45 -92 -1 -51 31 -83 71 -73 39 9 50 25 61 85 8 41 7 57 -2 66 -18 18 -59 25 -85 14z" style="&#10;    fill: grey;&#10;"/>
<path d="M3983 2710 c-53 -32 -72 -144 -32 -194 30 -38 69 -35 108 9 45 52 40 127 -11 183 -26 27 -25 27 -65 2z" style="&#10;    fill: grey;&#10;"/>
<path d="M7975 2563 c-11 -3 -32 -14 -47 -24 -30 -21 -108 -140 -108 -164 0 -30 49 -112 89 -148 30 -27 50 -37 74 -37 33 0 35 2 90 118 69 143 74 187 28 233 -29 29 -69 36 -126 22z" style="&#10;    fill: grey;&#10;"/>
<path d="M8224 2483 c-29 -4 -32 -9 -79 -136 -77 -211 -73 -249 37 -332 109 -82 160 -82 172 1 10 74 7 278 -5 333 -12 55 -62 142 -81 139 -7 0 -27 -3 -44 -5z" style="&#10;    fill: grey;&#10;"/>
<path d="M4476 2551 c-31 -21 -66 -68 -66 -90 0 -31 44 -133 62 -142 30 -16 66 14 95 78 30 66 27 127 -7 155 -28 23 -48 23 -84 -1z" style="&#10;    fill: grey;&#10;"/>
<path d="M5065 2488 c-50 -27 -57 -67 -25 -134 52 -106 158 -59 136 61 -13 69 -61 101 -111 73z" style="&#10;    fill: grey;&#10;"/>
<path d="M3597 2189 c-60 -14 -112 -45 -127 -76 -7 -15 -15 -67 -18 -115 -4 -83 -3 -88 21 -112 35 -35 66 -33 151 8 82 39 100 56 121 115 27 78 12 168 -30 185 -22 8 -71 6 -118 -5z" style="&#10;    fill: grey;&#10;"/>
<path d="M6159 3830 c-43 -22 -89 -74 -89 -98 1 -20 24 -63 65 -120 37 -51 84 -76 126 -67 33 7 109 76 109 98 0 21 -116 193 -134 200 -26 10 -37 8 -77 -13z" style="&#10;    fill: grey;&#10;"/>
<path d="M6152 3374 c-57 -41 -63 -49 -57 -72 8 -34 65 -112 111 -151 41 -36 74 -39 120 -10 77 47 82 92 20 176 -48 66 -90 103 -115 103 -9 0 -44 -21 -79 -46z" style="&#10;    fill: grey;&#10;"/>
<path d="M6105 2982 c-45 -15 -50 -20 -53 -51 -4 -44 47 -150 91 -187 30 -25 36 -26 101 -21 128 11 156 64 91 172 -57 94 -70 105 -129 105 -28 -1 -73 -9 -101 -18z" style="&#10;    fill: grey;&#10;"/>
<path d="M5984 2611 c-52 -23 -58 -40 -39 -104 32 -111 76 -147 179 -147 44 0 60 5 86 26 34 29 34 33 4 143 -23 80 -49 101 -126 101 -40 0 -78 -7 -104 -19z" style="&#10;    fill: grey;&#10;"/>
<path d="M5713 2343 c-33 -13 2 -149 48 -187 55 -47 202 -74 228 -43 12 15 -9 90 -43 155 -23 45 -100 82 -168 81 -29 0 -59 -3 -65 -6z" style="&#10;    fill: grey;&#10;"/>
</g>
</svg>
