<?xml version="1.0" standalone="no"?>
<!DOCTYPE svg PUBLIC "-//W3C//DTD SVG 20010904//EN"
 "http://www.w3.org/TR/2001/REC-SVG-20010904/DTD/svg10.dtd">
<svg version="1.0" xmlns="http://www.w3.org/2000/svg"
 width="1920.000000pt" height="1080.000000pt" viewBox="0 0 1920.000000 1080.000000"
 preserveAspectRatio="xMidYMid meet">
<metadata>
Created by potrace 1.15, written by Peter Selinger 2001-2017
</metadata>
<g transform="translate(0.000000,1080.000000) scale(0.100000,-0.100000)"
fill="#000000" stroke="none">
<path d="M0 10385 l0 -415 40 0 c29 0 40 4 40 15 0 11 11 15 40 15 22 0 40 -4
40 -10 0 -5 18 -10 40 -10 22 0 40 5 40 10 0 6 60 10 160 10 136 0 160 2 160
15 0 20 10 19 26 -2 13 -17 15 -17 28 0 17 22 26 22 26 -3 0 -17 7 -20 40 -20
29 0 40 4 40 15 0 17 16 20 25 5 8 -13 52 -13 57 0 5 16 310 18 316 2 6 -18
18 -15 48 14 19 20 28 24 34 14 8 -14 38 -2 60 24 9 12 33 16 96 16 49 0 84 4
84 10 0 6 18 10 40 10 22 0 40 5 40 10 0 6 33 10 80 10 47 0 80 4 80 10 0 6 8
5 20 -2 16 -10 24 -10 40 0 18 11 20 10 20 -18 0 -35 15 -39 39 -8 15 18 27
21 70 19 34 -1 51 2 51 10 0 8 16 10 50 7 27 -3 54 0 60 6 7 7 14 6 22 -2 17
-17 63 -15 78 3 7 8 9 15 4 15 -4 0 -2 6 4 12 10 10 15 10 20 1 4 -6 41 -13
82 -16 41 -2 58 -2 38 0 -53 6 -48 25 5 22 24 -2 49 1 57 7 8 5 79 11 158 12
78 2 142 8 142 13 0 12 78 11 82 -1 2 -7 15 -6 36 2 27 11 34 10 41 -1 5 -7
14 -10 20 -6 9 5 7 11 -6 21 -16 12 -4 13 89 14 60 0 110 4 113 10 3 6 46 10
96 10 72 0 89 3 89 15 0 11 11 15 40 15 22 0 40 5 40 10 0 6 7 6 19 -1 11 -7
26 -9 37 -4 11 4 38 7 62 6 24 -2 42 2 42 8 0 6 11 11 24 11 14 0 28 5 31 10
9 15 25 12 25 -5 0 -12 16 -15 80 -15 77 0 80 1 80 23 0 21 4 23 43 22 23 -1
62 5 86 12 24 7 59 13 78 13 18 0 33 5 33 10 0 15 77 12 83 -2 3 -10 9 -10 26
0 25 15 51 16 51 2 0 -5 18 -10 40 -10 22 0 40 5 40 10 0 6 18 10 40 10 22 0
40 5 40 10 0 6 6 10 14 10 8 0 17 6 20 13 5 10 7 10 12 0 4 -9 34 -13 99 -13
66 0 95 -4 98 -12 3 -10 12 -9 35 5 37 21 42 21 42 2 0 -20 30 -19 45 2 11 14
36 18 161 21 180 4 267 11 274 22 3 4 40 11 83 15 67 6 77 5 77 -9 0 -19 5
-20 33 -4 14 8 55 11 115 9 l92 -3 0 30 0 29 77 7 c42 3 96 6 120 6 23 0 43 5
43 10 0 6 18 10 40 10 22 0 40 5 40 10 0 6 33 10 79 10 61 0 80 -3 85 -15 7
-20 34 -19 32 1 0 9 9 23 22 31 20 14 22 14 22 -1 0 -12 10 -16 40 -16 25 0
40 -5 40 -12 0 -7 9 -2 20 12 l20 25 20 -25 20 -25 0 23 c0 22 2 22 120 22 73
0 120 4 120 10 0 13 77 13 82 0 2 -5 23 0 47 10 30 14 65 20 116 20 46 0 75 4
77 11 3 8 49 13 136 15 72 2 143 6 157 10 15 4 25 2 25 -5 0 -6 17 -11 40 -11
22 0 40 5 40 10 0 6 18 10 40 10 33 0 40 3 40 20 0 14 7 20 23 20 13 0 29 6
36 13 11 10 14 10 18 0 3 -8 21 -13 43 -13 21 0 40 -4 42 -9 3 -11 78 10 78
21 0 5 18 8 40 8 22 0 40 -4 40 -10 0 -14 43 -13 58 2 11 11 321 24 500 20 81
-2 82 -2 82 23 l0 25 -4080 0 -4080 0 0 -415z"/>
<path d="M17986 10784 c-7 -19 8 -41 34 -49 11 -4 17 -12 14 -20 -3 -8 6 -25
20 -39 15 -13 25 -29 24 -36 -2 -7 5 -14 16 -15 10 -2 25 -13 33 -24 8 -12 23
-21 35 -21 11 0 33 -9 49 -21 16 -11 29 -16 29 -10 0 6 5 11 10 11 6 0 10 -18
10 -41 0 -33 6 -47 30 -69 17 -15 30 -37 30 -48 0 -20 42 -42 81 -42 11 0 28
-9 39 -20 11 -11 31 -20 44 -20 18 0 31 -11 50 -42 14 -24 25 -37 26 -30 0 6
6 12 14 12 9 0 14 -9 13 -20 -1 -11 -5 -20 -10 -20 -4 0 0 -13 10 -30 9 -16
23 -30 30 -30 8 0 13 -14 13 -40 0 -38 2 -40 29 -40 17 0 33 -4 36 -10 3 -5
13 -10 21 -10 20 0 84 -43 84 -56 0 -6 23 -17 52 -25 57 -15 71 -32 36 -44
l-23 -8 25 -4 c13 -3 26 0 28 6 5 14 42 15 42 1 0 -5 9 -10 20 -10 17 0 20 -7
20 -48 0 -51 12 -72 42 -72 10 0 23 -9 30 -20 7 -11 21 -20 30 -20 10 0 18 -4
18 -9 0 -5 11 -12 24 -15 13 -3 31 -9 40 -12 15 -6 16 44 16 535 l0 541 -604
0 c-548 0 -604 -1 -610 -16z"/>
<path d="M0 6759 l0 -589 48 -1 c112 -2 309 -32 325 -48 5 -5 0 -14 -13 -21
-23 -13 -91 -9 -175 9 -27 6 -80 14 -117 17 -64 6 -68 5 -68 -15 0 -18 4 -20
26 -15 21 5 25 4 19 -6 -6 -10 -3 -12 13 -8 12 3 23 1 26 -6 3 -8 7 -7 14 2 7
10 15 9 43 -5 19 -10 36 -20 39 -23 3 -3 26 -6 53 -8 36 -2 47 0 47 12 0 12
10 14 53 10 91 -9 115 -14 120 -27 3 -9 8 -9 17 -1 17 17 116 -9 104 -27 -3
-5 -10 -7 -15 -4 -5 4 -80 8 -167 10 -86 2 -210 7 -274 10 l-118 6 0 -416 0
-417 43 9 c57 11 130 7 159 -8 17 -9 122 -15 383 -19 198 -4 368 -10 378 -15
28 -12 20 -22 -34 -40 -57 -19 -54 -31 9 -39 57 -6 66 -16 15 -16 -58 0 -103
-11 -103 -24 0 -29 73 -41 235 -38 88 2 171 5 185 7 14 2 39 4 55 4 24 1 31 6
31 21 0 15 -7 20 -26 20 -35 0 -70 11 -70 21 0 5 9 9 20 9 11 0 20 7 20 15 0
10 10 15 29 15 16 0 31 6 34 13 3 8 28 11 91 10 66 -2 88 0 92 11 7 18 89 28
264 32 80 2 147 3 150 4 3 0 -4 7 -14 15 -11 8 -16 15 -10 16 5 0 20 2 34 4
66 9 202 7 213 -4 8 -8 7 -11 -6 -11 -21 0 -22 -13 -2 -30 11 -9 38 -11 103
-5 48 4 100 7 116 6 34 -2 31 7 -5 15 -35 9 -68 12 -123 13 -27 1 -46 4 -42 8
7 8 13 8 84 11 35 2 42 5 40 20 -2 14 4 17 34 17 49 0 57 12 17 24 -27 9 -12
10 73 7 59 -3 110 -1 112 3 3 4 -9 15 -25 25 -23 13 -34 15 -42 7 -13 -13 -64
-15 -72 -2 -3 5 -62 8 -132 7 -142 -2 -199 4 -195 22 1 8 -10 12 -30 11 -49
-2 -69 -9 -62 -21 5 -8 -31 -9 -122 -3 -71 4 -160 9 -199 9 -77 2 -113 14 -79
27 12 5 -6 8 -47 8 -36 1 -69 -2 -73 -6 -4 -4 -39 -9 -77 -11 -55 -2 -70 0
-67 10 3 7 18 15 34 18 l29 6 -33 7 c-22 4 -31 11 -26 18 4 7 3 9 -3 6 -5 -3
-29 1 -54 9 -35 13 -71 15 -169 10 -152 -7 -183 -10 -199 -21 -11 -6 -11 -9 0
-16 14 -9 -32 -14 -91 -12 -14 1 -83 2 -153 3 -78 0 -125 5 -122 10 4 6 -4 10
-16 10 -18 0 -19 2 -9 15 9 11 33 15 91 15 66 0 81 -3 90 -19 10 -15 19 -17
48 -10 20 4 69 10 110 14 48 5 69 10 60 16 -9 6 3 9 36 10 28 1 53 1 58 0 4 0
7 4 7 10 0 8 -12 10 -33 6 -37 -6 -74 8 -47 17 8 3 24 7 35 9 11 3 -2 6 -30 8
l-50 2 60 6 c33 3 98 1 144 -6 46 -6 136 -11 200 -11 115 1 215 -7 234 -19 12
-7 -27 -24 -46 -19 -6 1 -9 1 -4 -1 16 -10 5 -23 -20 -23 -14 0 -23 -3 -20 -7
11 -10 135 -14 141 -4 3 5 15 7 26 4 28 -8 26 25 -2 36 -17 6 -3 10 52 15 41
4 93 9 115 11 22 2 54 7 71 10 19 4 34 3 38 -4 4 -6 13 -11 19 -11 7 0 6 4 -3
10 -13 8 -12 10 5 11 58 4 119 -17 111 -37 -4 -10 4 -14 27 -16 73 -3 151 3
162 12 7 6 23 10 36 11 80 2 107 5 106 13 -4 20 22 14 64 -14 43 -29 109 -41
109 -20 0 6 18 10 41 10 24 0 38 4 34 10 -8 13 8 13 21 0 5 -5 40 -14 78 -19
37 -5 70 -12 73 -14 2 -3 -3 -12 -12 -21 -15 -14 -15 -16 -1 -16 9 0 16 4 16
8 0 9 117 8 127 -2 3 -3 -15 -6 -41 -6 -29 0 -45 -4 -41 -10 7 -12 151 -12
180 -1 17 7 15 10 -18 20 -76 25 -6 40 121 25 34 -5 52 -11 52 -20 0 -8 7 -14
15 -14 9 0 12 6 8 15 -5 14 7 15 88 11 52 -3 128 -10 169 -17 92 -16 231 -13
242 4 6 9 10 9 17 -2 7 -10 47 -13 190 -13 100 1 204 -3 231 -7 37 -6 55 -4
70 6 28 19 134 9 170 -17 25 -18 44 -20 162 -19 73 0 154 4 180 8 32 5 59 3
85 -6 21 -7 92 -15 158 -16 82 -3 134 -9 165 -21 48 -18 126 -14 114 6 -5 7 3
9 22 5 l29 -6 -27 12 c-16 6 -28 14 -28 19 0 4 -9 8 -21 8 -12 0 -19 5 -16 13
2 6 17 11 32 10 22 -2 26 0 16 10 -14 14 -224 19 -215 6 3 -5 -2 -9 -10 -9 -8
0 -17 4 -20 9 -10 15 -57 20 -62 6 -5 -12 -82 -14 -241 -6 -13 1 -23 7 -23 16
0 8 -7 15 -15 15 -8 0 -15 -4 -15 -9 0 -16 -96 -23 -161 -11 -73 14 -117 20
-139 20 -137 -1 -297 2 -342 7 -39 4 -63 1 -73 -7 -12 -10 -15 -10 -15 1 0 12
-2 12 -9 0 -8 -12 -40 -12 -212 -1 -112 7 -217 14 -234 15 -16 2 -79 6 -139 9
-105 6 -158 16 -83 16 20 0 37 3 37 6 0 15 -30 31 -70 38 -68 11 -307 17 -291
7 11 -7 10 -10 -6 -15 -44 -14 -133 -15 -170 -2 l-38 14 45 6 c25 3 61 7 80 9
19 2 -16 5 -77 5 -115 2 -129 1 -126 -8 1 -3 -22 -6 -50 -7 -44 0 -47 1 -17 6
35 7 35 7 11 20 -17 9 -59 12 -152 9 -92 -2 -129 0 -129 8 0 7 -21 15 -47 19
-68 10 -284 14 -278 5 12 -19 -50 -17 -77 3 -22 16 -32 18 -50 10 -18 -8 -26
-7 -36 3 -11 12 -10 15 2 20 14 5 259 -2 406 -12 41 -2 153 -5 248 -5 144 -1
172 -4 168 -15 -4 -11 6 -14 42 -15 26 -1 84 -3 130 -5 45 -1 82 1 82 6 0 14
185 6 204 -9 14 -12 16 -12 10 4 -6 15 -3 16 17 9 27 -10 63 -10 134 -1 27 3
54 2 60 -2 18 -15 261 -29 274 -16 10 11 -11 15 -100 21 -52 3 -101 9 -109 14
-8 4 -21 5 -29 2 -7 -2 -17 2 -22 9 -7 11 -12 12 -28 2 -10 -6 -22 -9 -26 -5
-7 8 -11 8 -300 16 -255 8 -306 13 -302 29 1 6 -8 13 -20 15 -27 4 -31 -14 -5
-21 15 -4 15 -5 0 -6 -9 0 -20 4 -23 9 -9 14 -52 12 -58 -2 -3 -10 -12 -9 -38
5 -34 17 -107 26 -269 32 -47 2 -176 6 -287 10 -171 7 -203 6 -203 -6 0 -9 -3
-10 -8 -4 -12 18 -111 38 -125 26 -16 -13 -187 -14 -187 0 0 5 20 9 45 9 25 0
45 5 45 10 0 6 20 10 44 10 24 0 46 5 48 11 2 7 12 7 31 0 16 -6 36 -11 45
-11 13 0 13 2 -4 15 -18 14 -17 15 11 9 17 -4 33 -11 36 -17 4 -5 31 -11 60
-13 34 -1 45 0 29 5 -20 6 -22 9 -10 16 11 7 -1 12 -45 17 -83 10 -93 10 -234
-7 -44 -5 -62 -5 -58 2 6 10 -37 29 -55 25 -5 -1 -8 2 -8 8 0 5 -7 10 -15 10
-8 0 -15 5 -15 10 0 14 13 13 46 -5 16 -8 36 -15 45 -15 9 0 22 -7 29 -15 14
-17 40 -3 40 21 0 9 10 14 28 14 48 -1 132 12 132 21 0 5 -15 6 -32 3 l-33 -5
32 16 c30 16 33 16 54 -3 25 -24 86 -36 130 -27 29 7 31 8 13 18 -10 6 -22 15
-26 21 -5 7 -8 6 -8 -3 0 -11 -3 -11 -15 -1 -12 10 -18 8 -32 -6 -16 -16 -18
-16 -21 -1 -2 9 -9 14 -18 10 -8 -3 -14 -1 -14 5 0 12 23 22 58 23 20 1 17 3
-13 9 -22 4 -42 6 -44 4 -2 -2 2 -4 10 -4 11 0 11 -2 -1 -10 -22 -14 -33 -12
-26 5 4 10 -1 15 -14 15 -11 0 -20 -7 -20 -15 0 -8 -7 -15 -15 -15 -18 0 -20
19 -2 21 6 1 -1 5 -18 9 -29 7 -28 8 11 9 22 0 46 7 52 14 14 13 107 15 327 8
66 -2 167 1 225 7 58 6 215 12 350 13 188 1 235 4 200 11 -56 13 -110 36 -110
48 0 17 22 22 108 21 109 -1 195 -25 187 -52 -6 -17 2 -18 102 -17 59 1 169
-7 243 -16 74 -9 180 -21 235 -26 177 -16 197 -11 79 20 l-67 17 54 8 c46 6
50 9 29 15 -14 5 -42 8 -63 9 -47 1 -239 33 -233 38 8 8 290 -19 405 -38 62
-10 133 -19 157 -19 23 0 46 -4 49 -10 4 -6 -30 -10 -94 -10 -56 0 -101 -4
-101 -9 0 -12 25 -21 58 -22 15 0 36 -5 47 -10 14 -6 -4 -8 -55 -5 -62 4 -67
3 -30 -4 112 -21 253 -40 297 -39 l48 1 -40 13 c-62 20 -23 28 105 21 108 -5
134 -12 162 -40 35 -34 308 -74 308 -45 0 7 8 17 17 24 15 11 12 14 -30 20
-48 7 -64 24 -24 26 17 1 18 2 4 6 -10 3 -23 1 -30 -5 -16 -12 -234 4 -307 23
-30 7 -89 17 -130 21 -98 9 -139 26 -50 20 36 -2 76 -7 90 -10 14 -3 63 -9
110 -12 47 -3 115 -12 152 -20 80 -17 131 -19 108 -4 -8 5 -25 10 -37 10 -12
0 -25 5 -29 11 -4 7 0 9 12 5 18 -5 54 9 44 16 -3 2 -30 22 -60 45 -31 22 -70
44 -88 48 -17 3 -34 11 -37 15 -3 5 -32 21 -65 36 -57 25 -88 49 -78 59 5 5
92 -29 174 -66 23 -11 46 -19 52 -19 6 0 13 -8 17 -18 4 -13 23 -23 60 -31 30
-7 57 -12 60 -11 3 0 20 -7 38 -17 17 -9 46 -16 62 -15 25 1 27 0 10 -7 -19
-8 -18 -10 8 -20 16 -6 35 -11 42 -11 8 0 40 -7 72 -15 64 -17 122 -20 108 -6
-6 5 -41 19 -80 32 -42 14 -62 25 -51 27 22 5 157 -14 241 -33 33 -8 119 -19
190 -25 72 -6 144 -13 160 -15 17 -2 53 -6 82 -10 44 -5 55 -3 72 14 21 21 32
22 226 23 17 0 55 -3 86 -7 32 -4 78 -4 103 -1 l47 7 -26 20 c-14 11 -25 25
-25 31 0 12 -49 60 -87 85 -13 9 -23 20 -23 27 -1 15 -129 70 -213 90 l-68 17
-53 -26 c-57 -28 -100 -29 -138 -2 l-23 16 23 7 c13 4 20 10 15 13 -5 3 -19
21 -32 39 -18 26 -29 32 -59 33 -20 0 -46 4 -57 9 -18 7 -18 9 -3 15 9 4 21 4
25 2 5 -3 15 -2 23 3 13 8 11 13 -7 31 -16 16 -33 22 -62 21 -22 -1 -46 4 -53
11 -7 7 -26 19 -43 26 -25 12 -27 15 -11 19 27 6 106 -8 106 -19 0 -5 9 -9 19
-9 16 0 18 3 8 23 -6 13 -19 24 -29 24 -43 4 -88 25 -86 41 2 11 -8 18 -37 24
-21 5 -48 17 -60 28 -21 19 -168 80 -195 80 -12 0 -13 2 -1 9 10 6 5 11 -19
16 -25 5 -29 9 -19 17 9 6 3 7 -21 3 -27 -5 -32 -4 -20 5 12 9 6 10 -25 5 -51
-9 -235 -8 -283 1 -20 4 -50 15 -67 24 -16 9 -103 41 -193 70 l-164 54 -136
-27 c-75 -15 -168 -27 -205 -27 -53 0 -79 -6 -117 -25 -82 -42 -164 -58 -295
-59 -116 -1 -121 0 -156 27 -20 15 -39 27 -44 27 -4 0 -20 11 -37 25 -16 14
-41 25 -54 25 -14 0 -60 18 -102 40 -67 34 -101 43 -252 70 -232 40 -272 48
-358 73 -67 20 -79 20 -180 9 -150 -17 -207 -15 -347 10 l-122 21 -124 -58
-124 -58 -105 2 c-58 1 -150 3 -206 5 l-101 2 -79 48 c-43 26 -126 70 -184 98
-58 28 -120 62 -139 76 -34 25 -128 55 -291 92 -47 11 -110 31 -140 44 -30 14
-81 33 -112 44 l-58 20 0 -589z m1353 -659 c131 -16 193 -28 280 -57 124 -41
118 -52 -19 -33 -43 6 -117 15 -164 21 -47 5 -98 13 -115 18 -16 5 -66 12
-110 15 -99 6 -114 11 -108 37 7 24 23 24 236 -1z"/>
<path d="M8729 5713 c-18 -8 -40 -20 -49 -28 -12 -11 -40 -12 -150 -5 -186 12
-433 12 -527 0 -139 -19 -201 -46 -412 -178 -96 -59 -377 -263 -426 -308 -34
-32 -137 -118 -169 -141 -16 -13 -23 -23 -15 -23 8 0 124 -11 259 -25 135 -14
249 -25 253 -25 5 0 5 -5 1 -11 -4 -8 15 -9 67 -4 64 5 441 -24 514 -40 11 -3
80 -12 154 -20 74 -8 136 -17 138 -19 3 -2 -44 -1 -103 2 -109 5 -319 -12
-364 -31 -29 -12 -46 -6 138 -46 52 -12 98 -23 103 -27 5 -3 56 1 112 10 268
41 452 57 402 36 l-20 -9 20 -1 20 -1 -20 -9 c-11 -5 -33 -9 -49 -9 -16 -1
-26 -4 -23 -7 4 -4 62 -1 129 5 139 14 108 18 758 -84 393 -61 526 -78 589
-73 l44 3 89 270 c126 385 139 431 129 458 -18 46 -98 79 -296 121 -118 24
-430 78 -532 91 -29 4 -53 10 -53 13 0 4 17 21 37 39 31 25 34 32 18 31 -11 0
-29 3 -39 7 -15 6 -17 5 -11 -5 5 -8 4 -11 -3 -7 -11 8 -196 29 -251 29 -36 0
-111 -29 -111 -44 0 -4 -13 -8 -30 -8 -37 0 -38 14 -3 37 l27 18 -49 7 c-28 3
-81 7 -120 7 -38 1 -86 5 -106 10 -25 6 -46 4 -70 -6z m-216 -158 c31 -3 57
-10 57 -14 0 -5 -18 -31 -41 -58 -40 -50 -40 -50 -82 -41 -70 15 -191 22 -184
11 4 -7 -51 -10 -159 -10 -161 1 -165 1 -142 18 12 10 48 30 78 45 48 24 76
29 214 40 87 7 161 15 164 18 3 4 13 4 21 2 9 -2 42 -7 74 -11z m-298 -424
c-6 -5 -49 -26 -97 -45 l-87 -36 -121 12 c-66 6 -117 15 -113 19 4 4 40 10 78
13 39 2 111 12 160 20 50 8 108 17 130 19 22 2 44 4 50 5 6 1 6 -1 0 -7z"/>
<path d="M11414 5603 c-6 -4 -13 -16 -17 -25 -3 -10 -14 -18 -24 -19 -13 0
-11 -3 7 -11 l25 -11 -25 -6 c-22 -6 -23 -8 -7 -14 10 -4 39 -7 63 -7 44 0 58
-12 28 -24 -9 -3 -59 -6 -112 -7 -99 0 -219 -19 -206 -32 4 -4 28 -7 53 -7 33
0 42 -3 31 -10 -8 -5 -25 -7 -37 -3 -17 4 -23 1 -23 -11 0 -20 -29 -21 -36 -1
-4 8 -16 15 -28 14 -20 0 -20 -1 -1 -8 19 -8 19 -9 -5 -17 -14 -4 -29 -7 -33
-6 -15 4 5 -21 42 -52 20 -17 68 -60 106 -96 87 -81 121 -109 110 -91 -6 11
-4 13 8 8 10 -4 14 -2 11 7 -4 9 10 13 53 13 32 0 113 4 180 8 113 6 125 5
160 -14 21 -11 64 -27 96 -35 74 -19 80 -23 73 -52 -5 -20 -1 -28 24 -42 16
-9 30 -22 30 -28 0 -16 63 -24 103 -13 18 5 81 10 140 11 112 3 140 13 113 41
-18 18 -21 37 -6 37 6 0 10 7 10 15 0 9 9 15 24 15 14 0 32 7 40 16 9 8 16 12
16 7 0 -4 54 -9 119 -9 78 -1 135 -7 167 -17 34 -11 86 -16 167 -16 131 0 147
3 147 29 0 10 10 21 23 25 20 7 18 8 -15 18 -21 6 -38 16 -38 23 0 8 -6 11
-15 8 -8 -3 -20 -2 -27 2 -17 11 -228 15 -228 4 0 -31 -288 -67 -329 -41 -11
7 -10 11 5 20 11 6 14 11 8 11 -6 0 -17 -7 -24 -15 -14 -17 -46 -20 -54 -6 -4
5 0 12 6 14 7 3 -6 6 -29 6 -57 1 -97 20 -82 37 12 14 7 18 -36 27 -11 3 1 5
28 6 71 2 57 31 -15 31 -26 0 -29 2 -18 15 11 13 6 15 -34 15 -39 0 -46 3 -46
20 0 13 -7 20 -19 20 -11 0 -23 5 -27 11 -3 6 -20 9 -38 6 -17 -3 -40 -2 -51
3 -11 5 -16 9 -11 9 11 1 -49 57 -70 65 -10 4 -14 12 -10 22 3 9 6 20 6 25 0
5 9 9 20 9 11 0 20 6 20 14 0 20 -25 37 -44 30 -9 -4 -16 -1 -16 6 0 8 -9 10
-25 6 -14 -4 -31 -3 -38 1 -15 9 -38 15 -54 13 -41 -5 -110 -4 -198 3 -55 4
-105 4 -111 0z"/>
<path d="M6192 5461 c-16 -10 16 -21 63 -21 21 0 26 -3 18 -11 -8 -8 -20 -9
-42 -1 -23 8 -32 7 -42 -4 -9 -12 -15 -12 -27 -2 -12 10 -14 10 -9 1 6 -9 -17
-12 -95 -11 -57 1 -117 -2 -135 -6 -25 -6 -36 -4 -49 9 -13 13 -29 16 -60 12
-31 -3 -44 0 -48 9 -3 8 -11 14 -18 14 -9 0 -8 -3 2 -10 13 -9 13 -10 0 -10
-13 0 -13 -1 0 -10 11 -8 2 -10 -35 -10 -27 0 -90 -1 -138 -3 -48 -2 -90 0
-93 4 -3 5 -15 14 -26 20 -18 10 -20 9 -14 -7 6 -18 5 -18 -8 -1 -15 19 -37
23 -33 6 1 -8 -18 -11 -63 -10 -42 2 -61 -1 -55 -7 10 -10 82 -22 120 -21 11
0 25 0 30 0 9 1 133 -8 160 -11 25 -2 -26 -19 -61 -21 -52 -1 -161 8 -173 16
-6 3 -21 3 -35 -1 -22 -5 -24 -8 -11 -21 11 -10 32 -14 68 -12 28 2 76 2 106
1 43 -2 52 -5 47 -17 -4 -10 1 -15 17 -16 12 -1 29 -2 37 -3 8 -1 21 3 28 8 6
5 27 12 45 16 30 7 30 8 5 9 -15 1 -29 5 -32 10 -15 23 115 28 154 6 16 -9 40
-12 68 -8 28 4 42 2 42 -6 0 -6 -19 -11 -47 -12 -39 0 -44 -2 -25 -9 12 -5 40
-11 61 -12 22 -2 37 -6 34 -10 -2 -5 1 -8 7 -8 6 0 9 -4 6 -9 -3 -5 1 -12 10
-15 25 -9 66 -7 59 3 -9 16 31 31 64 25 17 -4 31 -10 31 -14 0 -4 36 -8 79 -8
44 0 88 -5 98 -11 14 -8 6 -10 -37 -11 -31 0 -61 5 -68 12 -7 7 -12 8 -12 3 0
-6 -27 -10 -60 -11 -63 -1 -148 -20 -165 -37 -7 -6 0 -7 19 -3 19 5 32 3 37
-6 7 -10 9 -10 9 0 0 14 38 16 60 2 21 -13 -1 -33 -39 -36 -15 -1 -39 -5 -52
-9 -22 -7 -22 -8 -4 -21 10 -8 28 -14 40 -14 12 0 25 -3 29 -7 16 -17 315 -19
381 -3 29 6 74 9 107 5 53 -6 102 5 81 18 -5 4 -40 7 -76 8 -46 1 -67 6 -67
14 0 15 -22 25 -55 25 -13 0 -27 5 -31 12 -5 7 0 9 14 6 12 -4 26 0 33 8 9 11
7 14 -10 14 -11 0 -21 5 -21 10 0 6 5 10 10 10 6 0 10 7 10 15 0 21 52 19 78
-2 11 -10 30 -26 41 -35 12 -10 29 -18 38 -18 15 0 14 2 -3 15 -17 13 -15 14
31 14 40 -1 45 -3 25 -9 -24 -8 -23 -8 8 -9 20 -1 31 3 27 9 -3 6 3 10 14 10
12 0 26 8 32 18 8 13 21 17 48 15 20 -2 29 0 21 4 -8 3 -17 9 -20 13 -9 12
-69 20 -75 10 -3 -5 -27 -9 -53 -8 -37 0 -42 2 -24 9 12 5 22 13 22 19 0 5 22
10 50 10 38 0 50 4 50 15 0 8 8 15 18 16 9 1 -12 7 -48 15 -75 17 -93 29 -67
48 23 17 22 21 -8 22 -14 1 -25 -2 -25 -7 0 -5 -15 -9 -32 -9 -25 0 -29 3 -18
10 25 16 -10 12 -40 -5 -28 -16 -70 -20 -70 -6 0 4 11 6 24 4 13 -3 26 0 30 5
10 17 -267 38 -292 23z"/>
<path d="M10720 5408 c188 -57 331 -127 456 -222 91 -69 103 -88 111 -169 4
-42 10 -64 15 -59 6 6 5 39 -3 87 l-13 77 -72 59 c-152 124 -343 215 -484 232
-44 5 -44 5 -10 -5z"/>
<path d="M19025 5405 c-44 -7 -109 -22 -144 -34 -72 -24 -115 -26 -181 -9 -25
6 -106 13 -180 15 -223 5 -234 4 -246 -12 -6 -8 -25 -15 -41 -15 -33 0 -214
-52 -260 -75 -67 -33 -132 -38 -419 -27 -262 9 -283 11 -354 36 -190 67 -329
76 -595 37 -84 -13 -135 -14 -118 -3 14 9 -112 7 -287 -3 -63 -3 -124 -6 -135
-6 -11 0 -55 1 -98 2 -87 1 -112 -10 -102 -48 5 -20 1 -23 -35 -29 -41 -7 -46
-24 -7 -24 17 0 19 -2 8 -9 -9 -6 -24 -6 -38 0 -33 12 -150 12 -158 -1 -10
-16 -26 -11 -23 7 4 21 -69 50 -85 34 -5 -5 -16 -7 -24 -4 -8 3 -18 1 -22 -5
-4 -7 -21 -7 -56 0 -46 10 -140 13 -284 9 -34 -1 -62 4 -77 14 -29 19 -31 35
-4 35 22 0 27 15 8 22 -7 2 -33 6 -58 7 -25 2 -47 7 -48 12 -2 5 -17 -2 -34
-16 -28 -24 -55 -30 -108 -26 -29 2 -92 29 -101 43 -4 6 -26 11 -50 11 -34 2
-44 -1 -43 -14 1 -11 -6 -14 -27 -11 -22 3 -29 0 -29 -12 0 -9 -6 -16 -14 -16
-8 0 -16 -4 -18 -9 -2 -6 -25 -4 -54 4 -63 16 -174 9 -174 -11 0 -8 -16 -16
-40 -20 -22 -4 -40 -10 -40 -15 0 -15 -67 -10 -80 6 -15 19 -100 20 -119 3
-11 -10 -13 -10 -7 0 5 8 0 12 -13 12 -33 0 -25 -9 26 -31 55 -24 48 -39 -20
-42 -58 -2 -63 -17 -6 -17 23 0 55 -6 72 -14 49 -23 222 -44 329 -41 114 3
196 27 209 62 7 20 16 23 64 23 48 0 55 -2 55 -20 0 -13 7 -20 19 -20 11 0 23
-5 27 -11 5 -9 84 -10 291 -7 204 4 287 2 296 -6 7 -6 50 -11 107 -11 66 0 94
-3 93 -12 -2 -7 24 -14 69 -18 40 -4 78 -14 86 -21 8 -8 33 -14 60 -14 53 1
42 13 -22 24 -48 9 -38 18 40 40 76 20 76 20 104 -4 24 -21 70 -27 70 -10 0
23 212 52 225 30 3 -5 1 -10 -6 -10 -22 0 1 -14 29 -17 15 -2 35 -13 45 -25
12 -14 30 -22 52 -22 19 -1 34 -5 32 -10 -3 -14 -76 -7 -101 9 -12 7 -43 20
-71 28 -41 12 -56 12 -85 1 -19 -7 -29 -13 -22 -13 6 -1 12 -7 12 -15 0 -14
87 -24 272 -29 42 -1 80 -5 84 -9 4 -5 32 -8 62 -8 42 0 53 -3 49 -14 -8 -20
22 -25 93 -17 43 5 79 3 118 -7 47 -12 71 -13 142 -3 155 22 249 24 312 6 42
-12 89 -15 171 -13 61 2 328 -4 592 -12 534 -17 769 -19 833 -7 27 4 42 4 42
-3 0 -5 -8 -11 -17 -12 -32 -3 170 -16 265 -17 l92 -1 0 250 0 250 -47 -1
c-27 -1 -84 -7 -128 -14z"/>
<path d="M3350 5403 c-35 -2 -69 -8 -75 -13 -6 -5 -40 -14 -75 -19 -36 -6 -66
-15 -68 -21 -2 -6 -7 -8 -12 -5 -9 5 -57 -9 -109 -32 -18 -8 -65 -19 -104 -25
-75 -10 -95 -17 -122 -45 -15 -15 -72 -28 -157 -36 -34 -4 -39 -9 -28 -27 6
-10 37 -16 102 -21 51 -3 73 -7 48 -8 -57 -2 -91 -11 -84 -22 3 -5 -4 -9 -16
-9 -11 0 -28 -4 -38 -9 -9 -6 -33 -13 -53 -16 -35 -5 -77 -35 -50 -35 6 0 11
-4 11 -9 0 -4 -62 -8 -137 -8 -144 1 -277 -18 -238 -34 11 -4 67 -8 125 -8 58
-1 137 -8 176 -16 42 -9 122 -15 190 -14 66 0 164 0 219 -1 93 0 102 2 130 25
17 14 24 25 17 25 -8 0 -12 6 -10 12 3 8 30 13 79 14 125 2 412 15 447 20 19
3 32 11 32 19 0 18 14 19 28 2 14 -16 152 -23 152 -8 0 6 -20 11 -47 11 -28 0
-43 4 -37 9 10 10 81 21 128 21 15 0 34 4 42 10 8 7 63 11 143 11 72 0 131 4
131 9 0 5 10 10 23 12 12 2 22 10 22 18 0 22 16 30 60 29 40 -1 103 -16 75
-18 -10 -1 -11 -4 -3 -12 15 -15 56 13 58 40 2 20 -32 24 -379 36 -77 3 -158
10 -180 15 -23 5 -62 10 -87 10 -33 0 -51 6 -64 20 -18 20 -17 20 41 20 69 0
104 8 104 23 0 6 -2 8 -5 5 -3 -3 -31 7 -62 23 -62 32 -110 37 -119 14 -4 -8
-17 -15 -31 -15 -14 0 -40 -7 -59 -16 -23 -11 -50 -15 -79 -11 -30 3 -45 1
-45 -7 0 -6 10 -12 23 -12 12 -1 40 -5 62 -9 22 -5 64 -9 93 -9 28 -1 52 -5
52 -10 0 -5 -33 -6 -76 -3 -53 5 -73 4 -68 -4 4 -8 1 -8 -13 -1 -29 16 -143
17 -184 2 -36 -13 -103 -7 -114 9 -2 5 5 20 16 35 15 19 30 26 55 26 19 0 65
4 102 10 73 10 142 19 155 20 5 0 5 5 2 10 -3 6 -16 9 -28 8 -12 -1 -51 -3
-87 -5z"/>
<path d="M13579 5363 c-30 -3 -38 -10 -49 -38 -10 -26 -20 -35 -49 -41 -20 -4
-50 -6 -66 -5 -19 1 -40 -6 -54 -18 -13 -12 -19 -21 -12 -21 7 0 9 -4 6 -10
-3 -5 -15 -10 -25 -10 -10 0 -23 -6 -27 -14 -11 -18 -47 -36 -75 -36 -20 -1
-81 -28 -68 -30 3 -1 41 -3 85 -6 70 -4 81 -2 95 15 13 17 21 18 58 12 23 -5
44 -5 47 -2 4 7 128 6 232 -2 29 -2 58 0 65 5 7 4 9 8 3 8 -5 0 1 7 15 15 14
8 19 14 12 15 -6 0 -29 18 -51 40 -42 44 -51 48 -51 25 0 -8 -7 -15 -15 -15
-25 0 -17 20 13 33 15 6 35 19 45 28 17 16 17 17 -10 22 -60 12 -67 14 -71 25
-2 7 -7 11 -10 10 -4 -1 -23 -3 -43 -5z"/>
<path d="M7146 5319 c2 -3 -36 -9 -84 -11 -50 -3 -101 -12 -117 -21 -35 -18
-76 -85 -73 -118 3 -23 -1 -24 -92 -34 l-95 -10 95 -5 c77 -5 105 -11 148 -33
29 -15 58 -24 65 -20 7 4 52 41 101 82 l88 74 -6 50 c-5 33 -4 47 4 42 5 -3
10 -2 10 3 0 6 -11 9 -24 8 -13 0 -22 -4 -20 -7z"/>
<path d="M14697 5114 c-3 -3 -27 -8 -54 -10 -30 -3 -63 -15 -88 -32 l-40 -27
33 -3 c31 -3 32 -4 15 -17 -17 -13 -16 -14 7 -9 23 4 23 3 -3 -7 -42 -16 -578
4 -633 25 -23 8 -54 13 -70 11 -16 -2 -41 -4 -56 -4 -16 -1 -28 -5 -28 -11 0
-6 29 -10 67 -10 107 0 62 -18 -72 -30 -66 -5 -190 -12 -275 -15 -85 -3 -189
-9 -230 -13 -41 -4 -129 -6 -195 -5 -66 1 -167 3 -225 4 -110 2 -228 -6 -320
-21 -30 -5 -134 -14 -230 -20 -96 -6 -222 -15 -280 -20 -58 -5 -119 -9 -137
-10 l-31 0 19 -42 c11 -24 23 -50 28 -58 7 -13 41 -15 227 -12 121 1 302 7
404 12 102 5 291 15 420 20 129 6 267 17 305 25 102 21 389 48 795 75 85 6
218 17 295 25 77 8 185 19 240 24 55 6 215 13 355 16 267 6 566 26 636 44 22
6 66 11 97 12 72 3 75 19 5 20 -29 0 -78 4 -108 8 -32 5 -65 4 -80 -1 -14 -6
-65 -9 -113 -8 -61 1 -87 -2 -82 -9 8 -14 -20 -25 -36 -15 -9 5 -7 10 7 15 12
5 -11 8 -58 10 -126 4 -156 3 -301 -5 -76 -4 -155 -5 -177 -1 -39 7 -61 32
-35 40 51 16 50 16 35 25 -18 11 -25 12 -33 4z"/>
<path d="M10301 4888 c-39 -117 -72 -220 -74 -228 -1 -12 7 -14 38 -12 44 3
95 20 95 32 0 5 -9 6 -20 3 -28 -7 -33 15 -15 66 20 57 21 135 1 128 -12 -5
-12 0 -1 36 42 131 56 180 51 184 -2 2 -36 -92 -75 -209z"/>
<path d="M0 4990 c0 -86 2 -89 58 -73 18 4 20 8 10 14 -13 9 -5 10 82 14 19 0
58 3 85 4 l50 4 -45 6 c-36 5 -22 8 75 15 142 11 269 12 380 3 86 -7 165 0
165 14 0 5 -18 12 -40 15 -22 4 -43 11 -46 15 -3 5 -24 9 -47 10 l-42 1 40 10
c22 5 50 7 63 5 12 -2 22 0 22 4 0 5 -48 9 -107 9 -58 0 -104 -3 -101 -6 7 -6
31 -12 63 -14 11 -1 15 -4 8 -6 -7 -3 -9 -12 -6 -20 4 -11 -9 -14 -70 -14 -41
0 -99 5 -128 11 -30 6 -75 10 -101 9 -28 0 -48 3 -48 10 0 6 26 10 66 10 44 0
63 3 58 11 -4 6 -33 9 -74 8 -38 -2 -72 0 -76 4 -4 4 -72 7 -151 7 l-143 0 0
-80z"/>
<path d="M7580 4934 c-8 -1 -48 -8 -88 -14 -40 -7 -72 -14 -70 -16 4 -3 83
-13 248 -30 80 -9 182 -6 211 5 17 6 7 9 -42 14 -35 3 -91 15 -123 27 -54 18
-97 23 -136 14z"/>
<path d="M10601 4858 c-37 -34 -84 -144 -77 -178 l6 -30 -84 0 c-96 0 -112 -4
-127 -32 -7 -12 -7 -18 -1 -14 17 10 24 -28 7 -40 -14 -10 -13 -12 5 -17 12
-3 46 -3 77 0 50 5 56 4 50 -10 -4 -10 -3 -17 2 -17 11 0 41 34 41 48 0 6 5
14 12 18 7 4 116 11 242 14 l229 7 24 27 c28 33 29 46 5 46 -26 0 -33 9 -20
29 16 26 -2 90 -32 112 -15 12 -71 26 -145 39 -154 26 -185 25 -214 -2z"/>
<path d="M5180 4848 c-53 -8 -251 -43 -297 -53 -14 -3 -20 -10 -17 -19 4 -11
-5 -17 -33 -21 -60 -10 -74 -16 -68 -26 4 -5 1 -9 -4 -9 -6 0 -11 -4 -11 -9 0
-5 81 -9 181 -10 99 -1 186 -4 192 -7 7 -2 60 0 119 4 94 8 112 12 155 40 26
17 81 47 121 67 75 37 91 50 46 39 -15 -4 -25 -3 -21 2 6 11 -288 13 -363 2z"/>
<path d="M18975 4785 c-82 -16 -145 -31 -152 -38 -8 -9 48 -15 137 -16 47 0
102 -3 123 -6 24 -5 37 -3 37 4 0 6 -10 11 -22 11 -13 0 -29 4 -37 9 -10 6 10
13 62 22 43 7 77 17 77 21 0 12 -145 7 -225 -7z"/>
<path d="M6715 4721 c-27 -10 -84 -34 -125 -53 -80 -37 -127 -50 -200 -52 -37
-2 -61 -13 -130 -59 -138 -92 -266 -189 -355 -270 -18 -17 -32 -18 -160 -10
-77 4 -214 8 -305 7 -151 -1 -172 -3 -240 -27 -47 -17 -65 -27 -49 -27 15 0
46 9 70 20 39 17 66 20 250 20 220 0 389 -9 389 -20 0 -6 -52 -68 -137 -163
l-34 -39 -145 16 c-79 9 -194 16 -254 16 l-110 0 -40 -36 c-22 -20 -40 -43
-40 -50 0 -8 -4 -14 -10 -14 -5 0 -10 -11 -10 -24 0 -14 -16 -52 -36 -85 -35
-59 -36 -63 -30 -128 10 -100 12 -103 54 -103 20 0 50 -7 66 -15 15 -8 35 -15
42 -15 17 0 51 -18 80 -43 11 -9 43 -20 70 -22 81 -9 98 -12 127 -24 21 -8 26
-8 21 1 -5 8 -2 9 12 4 10 -4 46 -14 79 -21 33 -7 67 -15 75 -18 8 -3 29 -8
45 -12 29 -6 29 -6 10 10 l-20 16 20 -9 c11 -5 27 -7 35 -5 8 3 -8 -11 -36
-30 -67 -46 -82 -87 -95 -241 -6 -67 -11 -124 -12 -127 -3 -8 -163 32 -307 77
-163 51 -216 80 -283 157 -52 59 -74 99 -46 81 6 -3 -1 12 -15 35 -14 22 -26
47 -26 54 0 7 -11 24 -26 37 -28 27 -43 17 -38 -26 1 -13 1 -24 -1 -24 -8 0
-53 99 -60 131 -4 19 -14 43 -21 54 -12 17 -14 6 -14 -87 0 -58 -3 -114 -6
-123 -4 -10 -2 -15 7 -13 8 2 15 -7 17 -20 2 -12 7 -20 11 -17 5 2 11 -31 14
-74 7 -112 47 -178 165 -273 l32 -27 -55 -85 c-31 -49 -62 -86 -71 -86 -24 0
-89 55 -146 123 -50 60 -50 61 -43 114 3 29 3 53 -2 53 -15 -1 -2544 -426
-3503 -590 -195 -33 -528 -89 -740 -125 -212 -36 -395 -67 -407 -70 l-23 -5 0
-1180 0 -1180 4276 0 4277 0 126 80 c69 44 185 118 256 165 72 46 164 106 205
132 41 26 145 93 230 148 85 56 261 171 390 255 129 84 286 186 347 226 62 41
118 74 124 74 6 0 8 7 5 16 -3 8 -2 12 4 9 10 -6 209 121 223 142 4 7 14 13
21 13 7 0 21 9 31 20 10 11 24 20 31 20 7 0 16 5 19 10 13 21 -37 9 -59 -15
-13 -14 -28 -25 -34 -25 -6 0 -19 -8 -29 -18 -21 -22 -53 -35 -53 -22 0 5 10
15 23 21 24 13 77 69 77 82 0 5 -7 2 -15 -7 -8 -8 -24 -18 -35 -21 -11 -3 -20
-11 -20 -16 0 -5 -7 -9 -16 -9 -9 0 -47 -19 -83 -42 -36 -23 -74 -41 -83 -40
-10 0 -18 -3 -18 -7 0 -4 -17 -16 -37 -27 -21 -10 -41 -23 -44 -28 -4 -5 -20
-9 -37 -10 -18 -1 -28 -6 -25 -12 5 -14 -61 -47 -129 -65 -27 -8 -48 -18 -48
-25 0 -9 -48 -38 -57 -35 -2 0 -19 -8 -38 -19 -40 -22 -45 -24 -45 -11 0 5 15
16 33 25 37 19 67 40 67 50 0 13 -19 5 -76 -34 -33 -22 -63 -40 -67 -40 -5 0
-23 -11 -41 -25 -18 -14 -38 -25 -44 -25 -6 0 -17 -6 -24 -13 -31 -31 -205
-123 -215 -114 -3 4 3 10 13 13 10 4 39 21 64 38 25 17 57 37 72 45 15 8 37
22 47 33 11 10 23 18 26 18 3 0 24 12 47 28 23 15 62 39 87 53 52 29 63 49 29
50 -22 0 -22 1 -4 12 11 7 32 24 47 39 31 30 49 34 78 17 15 -10 22 -8 39 9
12 12 42 30 67 42 25 11 45 25 45 30 0 6 -29 -5 -65 -25 -47 -25 -65 -31 -65
-20 0 7 5 17 11 21 8 4 6 10 -6 17 -13 7 -20 5 -27 -7 -5 -9 -22 -16 -39 -16
-16 0 -46 -9 -66 -20 -41 -22 -99 -26 -123 -9 -11 8 -12 12 -2 16 6 2 12 11
12 19 0 8 9 14 19 14 10 0 29 9 42 20 33 27 12 24 -36 -5 -22 -13 -56 -32 -75
-42 l-35 -18 30 -5 30 -6 -34 -17 c-19 -9 -32 -14 -28 -10 4 3 -1 15 -10 25
-17 19 -16 20 7 39 14 10 30 19 37 19 6 0 13 8 15 17 2 10 10 18 18 19 26 2
60 16 60 25 0 12 -17 11 -25 -1 -7 -11 -35 -2 -35 12 0 6 7 8 14 5 10 -4 13
-1 9 9 -4 10 -9 11 -17 4 -9 -6 -16 -6 -24 2 -8 8 -15 8 -27 -2 -12 -10 -15
-10 -15 4 0 12 -10 16 -41 16 l-42 0 26 24 c14 13 37 26 51 30 34 8 34 36 0
36 -17 0 -28 -6 -31 -20 -6 -21 -43 -29 -43 -9 0 15 -67 3 -98 -17 -29 -19
-41 -11 -34 21 3 16 0 25 -8 25 -12 0 -39 28 -40 42 0 3 14 11 31 17 17 6 28
15 24 21 -8 12 -35 13 -35 1 0 -5 -17 -16 -37 -26 -21 -9 -84 -40 -141 -67
-57 -28 -106 -48 -109 -45 -8 9 31 42 67 56 71 27 77 31 72 57 -5 27 12 33 26
8 8 -14 10 -14 21 0 8 9 21 16 30 17 10 0 11 2 4 6 -7 2 -13 12 -13 21 0 13
-3 12 -15 -4 -14 -18 -16 -18 -29 -1 -17 22 -26 22 -26 -2 0 -10 -9 -21 -20
-24 -25 -6 -26 -34 -2 -40 9 -3 -3 -3 -28 1 -41 5 -44 4 -31 -11 7 -10 9 -17
3 -17 -16 0 -19 19 -8 66 8 31 16 44 28 44 13 0 18 10 20 42 2 31 8 44 20 46
12 2 15 -2 11 -17 -9 -35 37 -24 50 11 5 13 -1 18 -26 20 l-32 4 39 8 c27 6
40 5 46 -4 5 -8 10 -9 14 -2 3 6 -3 13 -14 17 -11 4 -17 11 -14 17 4 7 9 6 14
-2 6 -9 13 -7 28 8 11 11 23 18 26 14 3 -3 6 0 6 7 0 15 47 34 80 32 20 -1 22
1 10 9 -14 9 -13 11 10 14 6 0 14 6 18 12 4 5 23 16 42 24 19 7 42 19 50 25 8
7 71 40 140 75 69 35 178 92 243 126 65 35 121 64 124 64 3 0 17 8 31 18 15
11 110 62 212 114 102 53 210 109 240 125 30 17 156 82 280 146 662 341 825
433 825 468 0 9 17 34 38 55 70 71 136 232 176 429 11 55 32 143 45 195 52
207 58 384 16 557 -26 109 -51 143 -105 143 -28 0 -43 -8 -77 -42 -55 -57
-141 -239 -207 -438 -28 -85 -54 -162 -58 -170 -3 -8 -7 -19 -7 -25 -4 -30
-19 -55 -34 -55 -15 0 -15 2 -2 10 12 8 11 10 -7 10 -12 0 -25 -5 -28 -10 -4
-6 -14 -8 -24 -5 -22 7 -69 -44 -51 -55 9 -6 7 -10 -6 -14 -11 -3 -28 -19 -38
-35 -11 -16 -32 -36 -48 -45 -15 -9 -43 -32 -63 -50 -42 -40 -101 -70 -121
-62 -9 3 -12 1 -9 -4 3 -6 0 -10 -8 -10 -7 0 -26 -13 -42 -30 -30 -32 -143
-82 -535 -238 -124 -49 -233 -92 -242 -95 -27 -10 -22 -30 5 -21 67 20 698
288 790 335 33 17 17 -8 -17 -26 -19 -11 -33 -22 -31 -26 6 -8 -163 -87 -648
-300 l-259 -114 7 -40 c3 -21 8 -41 10 -43 2 -2 119 42 260 97 241 94 303 115
280 92 -6 -6 -82 -39 -170 -75 -212 -85 -261 -108 -315 -144 -24 -17 -47 -29
-50 -27 -4 2 -12 29 -19 60 -12 52 -14 55 -39 53 -31 -3 -31 -5 -3 106 44 171
55 265 55 466 0 152 -3 210 -17 263 -42 167 -129 260 -242 261 -68 0 -130 -31
-201 -104 -32 -32 -61 -57 -65 -54 -4 2 -11 -1 -15 -7 -4 -8 -3 -9 4 -5 20 12
14 1 -48 -90 -33 -48 -60 -83 -60 -78 0 6 5 15 12 22 6 6 8 15 4 19 -4 4 -11
1 -15 -6 -12 -18 -20 -1 -17 32 3 23 1 25 -12 15 -8 -7 -21 -26 -29 -43 -42
-89 -118 -194 -150 -206 -24 -9 -92 10 -190 52 -48 21 -55 21 -95 9 l-43 -14
30 -5 c17 -4 29 -10 28 -14 -2 -4 -3 -8 -2 -9 0 -2 2 -11 4 -20 2 -9 10 -32
19 -49 20 -40 20 -49 0 -49 -9 0 -12 -5 -8 -12 4 -6 -1 -17 -11 -24 -26 -19
-17 -24 60 -35 68 -9 105 -23 105 -39 0 -8 -91 -31 -180 -45 -25 -4 -58 -14
-74 -22 -19 -10 -44 -13 -70 -10 -23 3 -88 2 -146 -3 -58 -5 -188 -16 -290
-24 -102 -8 -228 -17 -280 -20 -52 -3 -145 -8 -206 -12 -98 -6 -123 -4 -204
16 l-93 23 -19 -24 c-52 -69 -114 -138 -125 -138 -7 -1 -13 -5 -13 -9 0 -12
-114 -45 -118 -34 -4 13 -42 3 -42 -11 0 -18 -357 7 -615 43 -44 7 -81 13 -82
14 -8 8 21 250 35 290 18 53 91 124 113 110 7 -4 9 -3 6 3 -22 35 65 33 318
-7 28 -4 41 -8 30 -9 -13 -2 -5 -8 25 -20 25 -11 48 -17 52 -15 4 3 15 -7 24
-21 14 -21 22 -24 53 -20 20 3 83 11 141 19 58 8 124 14 147 13 38 -2 42 -4
37 -22 -5 -16 0 -14 26 10 30 28 70 93 70 113 0 5 -19 38 -42 73 -24 35 -43
71 -43 79 0 8 -5 15 -12 15 -16 0 -23 9 -28 35 -3 13 -10 28 -16 34 -8 8 -8 4
0 -14 l12 -25 -20 24 c-12 13 -21 31 -21 41 0 33 -104 116 -172 139 -90 29
-319 85 -483 117 -77 15 -143 30 -147 33 -9 8 148 195 168 199 26 6 332 -66
604 -143 107 -30 190 -60 237 -85 39 -22 97 -49 127 -61 63 -23 71 -36 25 -37
-53 -1 -109 -13 -109 -23 0 -5 8 -9 18 -9 33 0 135 -75 210 -155 106 -111 116
-115 347 -115 253 0 589 30 698 62 54 16 119 77 204 191 70 95 88 139 61 150
-10 4 -9 8 2 17 18 14 -2 12 -250 -24 -201 -28 -420 -49 -468 -44 -30 3 -24 9
125 115 86 61 202 140 259 174 56 35 101 65 99 67 -8 8 -239 -141 -426 -274
l-117 -84 -293 -13 c-334 -15 -314 -18 -481 68 -96 50 -385 136 -671 201 -89
20 -168 40 -175 44 -19 9 161 176 311 289 110 82 117 86 170 88 45 1 77 13
198 73 79 40 145 76 147 81 2 4 11 5 20 2 9 -3 14 -3 10 1 -4 5 -22 9 -40 11
-18 2 -76 10 -128 19 -52 9 -121 17 -152 18 -32 1 -58 6 -58 11 0 5 -8 6 -17
2 -10 -4 -25 -8 -33 -10 -37 -10 -113 -40 -211 -86 -96 -44 -159 -59 -159 -36
0 4 54 34 121 66 81 40 115 60 104 65 -24 9 -32 7 -15 -4 9 -6 10 -10 3 -10
-6 0 -19 -3 -29 -7 -13 -5 -15 -3 -9 7 6 10 4 12 -11 6 -31 -12 -93 -12 -98 0
-5 14 -95 23 -99 11 -2 -7 -58 2 -97 16 -8 3 -37 -3 -65 -12z m102 -155 c2 -2
-29 -25 -69 -51 -101 -67 -337 -257 -368 -296 -3 -4 -20 -4 -38 -2 -27 5 -30
8 -21 20 27 31 232 196 333 267 85 60 112 74 134 70 14 -3 28 -6 29 -8z m-469
-365 c10 -6 -10 -34 -72 -107 -47 -54 -86 -102 -86 -106 0 -5 -16 -8 -35 -8
-19 0 -35 5 -35 11 0 6 39 57 88 114 85 101 108 117 140 96z m1984 -507 c51
-58 94 -112 96 -120 2 -9 -5 -14 -23 -14 -32 0 -118 77 -183 165 -46 63 -46
66 10 74 3 1 48 -47 100 -105z m346 99 c-1 -5 4 -20 10 -35 6 -15 11 -42 11
-60 0 -18 1 -42 3 -53 2 -15 -3 -21 -24 -23 -31 -4 -37 -18 -10 -25 12 -3 10
-5 -6 -6 -51 -2 -113 59 -111 111 0 22 1 22 9 3 6 -14 9 -15 10 -5 0 8 7 2 14
-15 7 -16 11 -33 9 -38 -8 -14 23 -37 35 -25 7 7 5 20 -9 42 -21 34 -24 71 -9
110 7 20 16 26 40 26 16 0 29 -3 28 -7z m-512 -65 c70 -74 144 -161 144 -171
0 -4 -13 -7 -29 -7 -22 0 -44 17 -107 83 -88 91 -127 141 -117 151 19 19 54 1
109 -56z m-78 -64 c68 -76 100 -120 94 -126 -6 -6 -19 -7 -30 -4 -36 12 -222
213 -222 240 0 4 12 6 28 6 22 0 46 -21 130 -116z m-1882 -268 c14 4 12 -1 -8
-19 -15 -14 -36 -31 -47 -39 -38 -27 -63 -113 -69 -241 l-5 -118 -31 3 -31 3
4 125 c5 162 18 200 91 256 36 28 59 39 66 33 6 -5 20 -7 30 -3z m2201 -379
c6 -4 14 -1 16 5 3 7 8 -2 13 -21 6 -30 9 -32 19 -17 16 22 25 20 25 -4 0 -23
18 -27 26 -6 3 8 12 17 20 20 9 3 12 1 9 -4 -9 -15 8 -12 33 6 20 14 22 14 22
-5 0 -46 -8 -51 -80 -45 -44 3 -71 1 -75 -6 -5 -8 -11 -8 -21 1 -11 9 -14 8
-14 -7 0 -15 -2 -16 -9 -5 -7 11 -9 11 -14 0 -4 -10 -6 -9 -6 4 -1 21 -31 23
-31 2 0 -8 -4 -15 -8 -15 -4 0 -9 24 -10 54 l-2 53 37 -1 c21 -1 43 -5 50 -9z
m-2930 -158 c103 -28 190 -53 192 -55 2 -2 -19 -34 -48 -70 -28 -37 -54 -78
-57 -91 -4 -12 -9 -23 -13 -23 -14 0 -332 93 -421 123 -52 18 -95 36 -95 42 0
5 11 15 25 22 100 51 207 101 217 102 6 1 96 -22 200 -50z m3359 -23 c-35 -86
-165 -303 -213 -356 -25 -27 -66 -59 -94 -71 -27 -13 -46 -25 -43 -28 3 -3 33
-8 67 -11 l62 -6 -55 -12 c-94 -21 -272 -32 -621 -39 l-336 -6 -18 27 -18 26
54 58 c30 32 59 66 64 76 9 16 36 18 355 22 342 5 519 20 545 47 7 7 4 8 -8 4
-11 -4 -16 -3 -12 4 4 5 15 7 25 4 34 -11 171 159 227 282 32 70 48 52 19 -21z
m-2064 -235 c73 -11 200 -27 282 -37 l149 -19 14 -33 c8 -19 12 -41 9 -49 -3
-8 -2 -12 3 -9 7 5 61 -99 61 -118 0 -4 -21 -4 -47 -1 -27 3 -113 12 -193 21
-148 16 -487 60 -527 69 -16 4 -21 10 -16 23 11 32 108 171 120 172 7 0 72 -9
145 -19z"/>
<path d="M18559 4623 c-20 -5 -31 -62 -16 -81 7 -9 6 -20 -2 -36 -18 -33 13
-84 107 -177 42 -42 120 -120 172 -173 135 -139 346 -316 375 -316 3 0 5 90 5
200 l-2 200 -36 17 c-62 28 -113 84 -62 68 11 -4 20 -2 20 4 0 6 -9 16 -20 23
-11 7 -20 17 -20 21 0 14 -25 34 -37 30 -9 -3 -9 -12 -2 -30 14 -37 3 -41 -29
-11 -15 14 -35 28 -44 31 -12 4 -15 12 -11 24 4 10 8 12 11 5 5 -16 29 -15 39
2 4 7 15 16 23 19 8 3 -5 6 -30 7 -25 1 -53 3 -62 5 -10 2 -20 -5 -24 -17 -9
-30 -19 -11 -20 41 -1 46 0 47 28 43 16 -3 28 0 28 7 0 7 -20 11 -50 11 -43 0
-50 3 -50 20 0 20 -11 26 -24 13 -10 -11 -97 -12 -90 -2 5 9 -15 15 -88 24
-27 3 -49 12 -52 20 -5 15 -9 16 -37 8z"/>
<path d="M3790 4611 l-55 -5 55 -7 c30 -4 -22 -5 -116 -2 -106 3 -178 2 -190
-5 -27 -14 -334 -24 -331 -10 1 6 -10 12 -25 15 -16 2 -28 -1 -28 -6 0 -15
-39 -24 -53 -13 -8 6 -105 7 -277 0 -146 -5 -501 -11 -789 -13 -288 -1 -684
-8 -880 -14 -532 -17 -926 -31 -1019 -38 l-82 -6 0 -92 0 -91 57 3 c32 2 202
10 378 18 515 24 731 35 880 45 77 6 248 17 380 25 380 24 540 35 850 60 160
13 402 29 540 35 137 7 254 14 258 17 5 3 167 9 360 14 194 4 431 13 527 18
96 6 297 15 445 21 372 14 494 22 470 30 -19 7 -140 5 -360 -5 -241 -12 -918
-18 -912 -7 6 8 -20 27 -26 20 -1 -1 -27 -4 -57 -7z"/>
<path d="M19036 4542 c-3 -5 5 -17 19 -26 14 -9 25 -22 25 -29 0 -17 50 -67
89 -90 l31 -18 0 57 c0 48 -4 60 -25 80 -28 26 -127 45 -139 26z"/>
<path d="M5000 4275 c0 -3 9 -23 19 -43 19 -37 45 -56 86 -65 13 -3 9 -5 -11
-6 -18 -1 -39 7 -53 20 -19 18 -25 19 -32 8 -12 -19 -11 -33 4 -48 10 -12 9
-13 -7 -7 -19 7 -19 9 -3 -60 4 -17 2 -21 -13 -17 -11 3 -21 12 -24 22 -2 9
-4 1 -3 -18 2 -42 51 -86 67 -61 5 9 5 19 -2 27 -6 8 -8 16 -4 20 3 3 6 1 6
-6 0 -7 4 -11 9 -9 17 6 91 112 91 130 0 10 -13 24 -30 33 -16 9 -30 20 -30
26 0 12 -49 59 -61 59 -5 0 -9 -2 -9 -5z"/>
<path d="M4689 3496 c-4 -5 -168 -27 -594 -82 -104 -13 -206 -21 -225 -18 -26
4 -31 3 -20 -5 11 -8 2 -11 -40 -11 -30 -1 -75 -5 -100 -11 -25 -5 -103 -18
-175 -29 -71 -10 -161 -23 -200 -29 -38 -5 -140 -19 -225 -31 -85 -11 -198
-27 -250 -35 -52 -7 -131 -19 -175 -24 -44 -6 -98 -13 -120 -16 -22 -3 -87
-12 -145 -20 -156 -21 -231 -32 -490 -71 -191 -28 -243 -33 -276 -25 -42 11
-111 5 -120 -11 -3 -4 20 -6 53 -3 48 4 52 3 23 -5 -49 -12 -166 -24 -158 -15
4 4 22 11 40 16 22 5 7 6 -42 3 -41 -3 -91 -10 -110 -15 -19 -5 -75 -14 -125
-19 -131 -14 -174 -20 -228 -31 -27 -5 -52 -7 -56 -4 -5 2 -57 -2 -117 -9 -60
-7 -127 -12 -149 -11 -22 1 -28 0 -12 -2 42 -7 21 -23 -29 -23 -31 0 -43 4
-38 11 5 8 -8 10 -42 5 -27 -3 -78 -8 -114 -11 -36 -3 -94 -10 -130 -15 -36
-5 -118 -14 -182 -21 l-118 -12 0 -238 c0 -221 1 -237 18 -233 9 2 561 94
1227 204 2656 440 3312 548 3372 556 29 3 57 12 61 18 7 9 43 238 42 269 0 8
-24 10 -31 3z"/>
<path d="M10413 860 c-40 -28 -77 -50 -82 -50 -6 0 -14 -6 -18 -13 -4 -7 -26
-24 -48 -37 -22 -13 -85 -55 -141 -94 -55 -39 -107 -75 -116 -81 -9 -5 -47
-31 -84 -57 -38 -26 -116 -78 -174 -117 -58 -38 -110 -75 -117 -80 -7 -6 -15
-11 -18 -11 -3 0 -11 -5 -18 -10 -14 -13 -175 -123 -334 -230 l-112 -75 185
-3 186 -2 106 77 c200 144 337 248 340 255 2 5 10 8 17 8 7 0 15 3 17 8 2 4
32 29 68 55 65 48 133 100 193 148 18 14 41 29 51 33 10 3 16 9 13 12 -3 3
-20 -1 -38 -10 -39 -20 -40 -20 -33 -1 3 8 34 29 68 46 l61 31 -25 -28 c-14
-16 -18 -24 -10 -18 8 5 34 23 58 38 23 16 40 31 37 34 -2 3 -11 -1 -20 -8
-23 -19 -31 -3 -10 20 18 20 18 21 0 14 -13 -5 -16 -4 -11 4 4 7 13 12 21 12
32 0 64 23 62 44 -2 17 3 21 25 21 14 -1 24 3 21 8 -3 5 -21 7 -39 4 -36 -6
-44 5 -20 29 8 7 12 22 9 33 -4 16 0 18 24 13 25 -5 27 -4 14 11 -20 25 -29
22 -108 -33z"/>
<path d="M19110 780 c0 -11 11 -38 25 -60 14 -22 25 -46 25 -55 0 -8 4 -15 8
-15 4 0 9 -12 10 -27 1 -26 1 -27 -10 -8 -7 11 -13 22 -13 25 0 12 -45 53 -51
47 -4 -4 6 -33 22 -66 23 -45 27 -64 20 -80 -11 -25 1 -42 14 -21 5 8 12 11
16 7 4 -3 1 -14 -6 -22 -10 -12 -10 -19 -2 -27 7 -7 12 -21 12 -32 0 -14 -7
-9 -29 21 -16 22 -32 50 -36 64 -4 13 -10 26 -14 29 -15 12 -40 80 -29 80 6 0
3 9 -7 20 -14 16 -20 17 -27 8 -4 -7 -8 -17 -8 -23 0 -5 5 -3 10 5 7 11 10 8
10 -16 0 -17 3 -34 7 -37 9 -10 43 -87 38 -87 -3 0 -17 19 -31 42 -15 24 -33
49 -41 56 -7 7 -13 20 -13 29 0 8 -6 13 -12 10 -23 -8 -3 -116 26 -142 17 -15
56 -103 55 -123 0 -12 -2 -13 -6 -3 -3 8 -20 28 -37 46 -39 42 -48 54 -63 88
-7 15 -18 27 -24 27 -6 0 -9 6 -6 13 2 6 -7 25 -20 41 -13 16 -22 35 -19 42 3
9 0 11 -11 7 -13 -5 -15 -2 -11 15 4 12 2 20 -3 16 -5 -3 -9 2 -9 10 0 9 -4
16 -8 16 -5 0 -14 10 -20 23 -6 12 -11 17 -11 10 -1 -7 10 -32 24 -57 14 -25
22 -51 19 -59 -3 -8 1 -21 8 -28 8 -8 23 -29 33 -46 15 -26 17 -35 7 -45 -7
-7 -12 -20 -12 -30 0 -10 -7 -18 -15 -18 -10 0 -15 10 -15 34 0 28 -4 35 -25
40 -18 5 -25 13 -25 30 0 13 -7 29 -15 36 -8 7 -15 22 -16 34 0 12 -3 15 -6 8
-3 -8 0 -25 8 -38 7 -13 9 -27 4 -31 -4 -5 -10 -2 -12 5 -3 6 -9 9 -14 6 -6
-3 -4 -11 4 -17 8 -7 18 -30 22 -52 5 -33 -1 -24 -40 53 -25 50 -52 92 -60 92
-9 0 -4 -20 21 -70 18 -38 36 -84 39 -101 7 -39 22 -69 36 -69 6 0 7 -5 4 -10
-4 -6 -11 -8 -16 -5 -5 4 -9 -4 -9 -17 -1 -22 -1 -22 -15 -4 -8 10 -12 23 -9
27 2 5 -4 14 -16 21 -11 7 -20 20 -21 28 0 8 -9 29 -20 45 -10 17 -23 39 -29
50 -18 35 -2 -31 19 -79 31 -67 101 -236 101 -241 0 -3 -4 -5 -10 -5 -5 0 -10
7 -10 16 0 9 -9 28 -19 43 -11 15 -23 39 -26 54 -4 15 -10 27 -14 27 -4 0 -12
13 -18 30 -11 29 -33 42 -33 19 0 -5 -4 -7 -10 -4 -15 9 -12 -12 4 -38 8 -12
19 -43 25 -68 6 -25 13 -53 17 -62 4 -13 1 -17 -15 -17 -12 0 -21 6 -21 14 0
7 -11 21 -24 31 -13 10 -27 30 -29 44 -3 14 -14 35 -25 47 -10 11 -25 38 -33
60 -12 34 -14 36 -17 15 -2 -13 1 -27 6 -30 6 -3 13 -23 17 -44 4 -20 11 -37
16 -37 5 0 9 -6 9 -14 0 -7 7 -27 15 -42 17 -34 19 -54 5 -54 -5 0 -10 6 -10
13 0 6 -13 19 -28 28 -18 10 -32 30 -40 57 -8 24 -19 42 -27 42 -20 0 -19 -29
1 -51 14 -16 31 -149 19 -149 -3 0 -14 15 -25 33 l-20 32 0 -37 c0 -21 -3 -38
-6 -38 -13 0 -34 30 -34 49 0 12 -5 21 -11 21 -6 0 -9 -6 -6 -14 3 -8 9 -32
13 -53 6 -35 6 -37 -9 -24 -20 16 -22 3 -2 -22 7 -11 17 -36 20 -58 6 -36 9
-39 41 -39 38 0 40 5 20 46 -8 16 -18 42 -22 58 -12 51 14 20 37 -44 l22 -60
333 0 334 0 0 193 c0 140 -3 196 -12 205 -9 9 -10 15 -2 20 14 10 17 239 3
275 -6 15 -15 27 -18 27 -4 0 -17 18 -30 40 -25 45 -31 49 -31 20z"/>
<path d="M11012 660 c-19 -19 -41 -30 -57 -30 -25 0 -26 -2 -14 -17 12 -15 12
-16 -4 -10 -20 8 -66 -13 -88 -39 -13 -16 -12 -16 11 -4 23 12 24 12 11 -4 -8
-10 -21 -14 -32 -11 -18 6 -27 -9 -11 -18 4 -2 1 -2 -6 0 -15 3 -65 -27 -57
-35 3 -3 14 3 25 13 11 10 20 14 20 9 0 -15 -38 -34 -55 -28 -9 4 -15 0 -15
-9 0 -9 -9 -19 -20 -22 -11 -3 -20 -11 -20 -16 0 -5 -5 -9 -11 -9 -6 0 -25
-11 -44 -25 -23 -18 -34 -22 -37 -13 -4 10 -143 -85 -228 -155 -8 -7 -35 -28
-60 -47 -24 -19 -50 -39 -56 -45 -7 -5 -35 -28 -64 -50 -29 -22 -68 -52 -87
-67 l-36 -28 176 0 177 0 31 28 c17 15 42 39 57 55 14 15 29 27 34 27 5 0 42
33 81 72 40 40 88 86 107 102 96 79 163 143 171 164 5 13 17 22 31 23 18 0 19
2 6 7 -15 6 -15 9 2 30 10 12 26 22 35 22 10 0 15 7 13 18 -2 13 4 17 24 16
19 -1 29 5 33 17 9 27 -3 43 -20 29 -25 -21 -85 -48 -89 -41 -7 11 50 61 70
61 9 0 15 3 11 6 -3 4 3 14 15 24 13 11 17 19 10 23 -5 4 -24 -6 -40 -23z"/>
</g>
</svg>
