<?xml version="1.0" standalone="no"?>
<!DOCTYPE svg PUBLIC "-//W3C//DTD SVG 20010904//EN"
 "http://www.w3.org/TR/2001/REC-SVG-20010904/DTD/svg10.dtd">
<svg version="1.0" xmlns="http://www.w3.org/2000/svg"
 width="352.000000pt" height="179.000000pt" viewBox="0 0 352.000000 179.000000"
 preserveAspectRatio="xMidYMid meet" style="float: right;">
<metadata>
Created by potrace 1.15, written by Peter Selinger 2001-2017
</metadata>
<g transform="translate(0.000000,179.000000) scale(0.100000,-0.100000)"
fill="#000000" stroke="none">
<path d="M1790 1749 c-227 -9 -400 -36 -400 -61 0 -7 -12 -8 -32 -4 -24 4 -29
3 -18 -4 13 -8 12 -10 -3 -10 -10 0 -62 -22 -115 -49 -104 -52 -142 -65 -142
-49 0 7 -4 7 -12 0 -7 -5 -87 -15 -178 -21 -91 -6 -183 -16 -205 -21 -22 -5
-74 -12 -115 -15 -132 -11 -196 -32 -240 -80 l-25 -28 30 7 c65 16 174 33 170
26 -3 -4 -28 -10 -57 -14 -56 -8 -195 -51 -214 -67 -7 -6 -15 -60 -19 -132 -3
-67 -9 -130 -11 -139 -3 -10 2 -18 13 -20 15 -4 13 -7 -9 -18 -16 -7 -28 -21
-28 -32 0 -10 -10 -22 -24 -28 -13 -4 -26 -19 -29 -32 -7 -27 5 -134 22 -195
11 -38 14 -42 48 -45 l37 -3 -1 -60 c-1 -33 1 -67 4 -75 3 -8 7 -24 9 -35 4
-33 31 -88 53 -112 12 -12 21 -24 21 -26 0 -2 -33 -7 -72 -11 -96 -8 -164 -28
-146 -43 32 -25 304 -43 793 -51 571 -10 741 -8 804 7 49 13 53 15 36 27 -16
12 -8 14 63 14 46 0 124 4 175 9 51 6 155 15 232 21 77 7 198 18 268 26 71 8
209 14 307 14 l178 0 21 51 c24 54 41 139 41 200 0 24 5 39 15 43 8 3 15 10
15 15 0 6 -6 8 -14 5 -11 -4 -13 0 -9 15 3 11 12 19 21 18 45 -3 71 13 81 51
15 50 14 62 -4 68 -9 4 -13 14 -11 23 13 42 15 176 5 212 -15 49 -48 56 -41 9
l4 -31 -43 7 c-24 4 -48 11 -54 16 -6 6 7 7 38 3 39 -6 47 -5 47 9 0 15 -17
21 -49 17 -7 -2 -10 2 -6 9 5 9 1 10 -14 5 -16 -5 -20 -3 -15 8 4 10 -5 16
-29 21 -19 4 -38 13 -41 22 -3 8 -10 12 -16 9 -5 -3 -10 -1 -10 4 0 6 -8 11
-17 12 -10 0 -13 3 -6 6 7 2 58 -5 114 -16 99 -20 137 -21 88 -2 -14 5 -64 17
-112 27 -50 10 -81 21 -71 24 10 4 -6 11 -42 19 -33 6 -89 19 -125 27 l-67 16
-22 61 c-40 111 -87 205 -111 221 -51 33 -476 139 -540 134 -13 -1 -98 -5
-189 -9z m-487 -378 c3 -13 -6 -30 -28 -51 -28 -27 -34 -41 -40 -96 -3 -35
-12 -67 -18 -71 -7 -4 -58 -8 -114 -8 l-103 0 0 37 0 37 53 3 52 3 3 43 3 42
-55 0 c-47 0 -56 3 -55 18 0 10 3 12 6 5 8 -20 33 -15 33 6 0 17 6 20 40 18
25 -1 40 -6 40 -14 0 -7 -5 -13 -12 -13 -6 0 -4 -6 6 -13 26 -19 90 -21 105
-3 10 12 9 14 -7 9 -15 -3 -21 2 -24 21 -5 24 -2 26 28 26 25 0 34 -4 35 -17
0 -12 4 -8 11 10 11 31 33 36 41 8z m-338 -721 c3 -5 15 -10 26 -10 11 0 37
-9 59 -20 24 -12 59 -20 89 -20 35 0 51 -4 55 -16 3 -9 4 -19 1 -24 -3 -4 2
-27 10 -50 8 -24 14 -44 13 -45 -2 -1 -95 -8 -207 -14 -111 -7 -209 -15 -217
-18 -19 -7 -18 0 8 55 12 26 23 61 25 77 2 17 11 36 21 43 9 7 16 18 15 23 -4
12 11 11 24 -2 13 -13 33 -4 33 17 0 16 36 19 45 4z m1338 -40 c37 -23 59 -30
97 -30 37 0 64 8 103 30 38 21 67 30 100 30 47 0 47 0 47 -34 0 -18 7 -53 15
-76 8 -23 15 -43 15 -44 0 -3 -525 6 -528 9 -2 2 3 16 11 32 8 15 18 47 22 71
6 39 9 42 39 42 18 0 52 -13 79 -30z"/>
</g>
</svg>
