<?xml version="1.0" standalone="no"?>
<!DOCTYPE svg PUBLIC "-//W3C//DTD SVG 20010904//EN"
 "http://www.w3.org/TR/2001/REC-SVG-20010904/DTD/svg10.dtd">
<svg version="1.0" xmlns="http://www.w3.org/2000/svg"
 width="1486.000000pt" height="456.000000pt" viewBox="0 0 1486.000000 456.000000"
 preserveAspectRatio="xMidYMid meet">
<metadata>
Created by potrace 1.15, written by Peter Selinger 2001-2017
</metadata>
<g transform="translate(0.000000,456.000000) scale(0.100000,-0.100000)"
fill="#000000" stroke="none">
<path d="M3840 4550 c-1552 -21 -2490 -48 -2645 -75 -113 -20 -418 -98 -640
-165 -181 -54 -555 -190 -555 -201 0 -4 31 -19 70 -34 90 -35 131 -63 152
-105 35 -69 15 -162 -72 -324 -33 -62 -60 -118 -60 -124 0 -7 8 -12 17 -12 9
0 271 83 582 184 1217 397 1415 457 1745 531 436 96 790 142 1360 175 215 12
1180 12 1883 0 282 -4 525 -5 540 -1 30 8 59 43 68 82 6 24 3 27 -37 37 -125
33 -1242 47 -2408 32z"/>
<path d="M12526 4081 c-192 -85 -221 -101 -234 -128 -13 -29 -11 -44 31 -219
25 -104 66 -279 92 -389 72 -302 172 -593 235 -679 29 -39 72 -72 123 -94 23
-10 27 -9 27 4 0 18 -54 282 -105 512 -43 196 -56 340 -44 470 12 130 39 222
111 382 59 129 72 181 55 223 -13 34 -68 18 -291 -82z"/>
<path d="M14615 4120 c-27 -4 -115 -17 -194 -29 -149 -22 -205 -40 -266 -87
-20 -15 -126 -151 -237 -303 -556 -762 -797 -1067 -1169 -1481 -370 -413 -983
-1044 -1424 -1466 -374 -358 -475 -464 -475 -495 0 -9 7 -23 16 -30 21 -17
140 -17 181 0 17 7 86 72 154 144 68 73 832 847 1698 1722 1924 1942 1880
1897 1925 1965 l36 55 -52 7 c-69 8 -131 7 -193 -2z"/>
<path d="M2040 4058 c-29 -18 -66 -49 -81 -68 -45 -57 -758 -1332 -1001 -1790
-209 -394 -536 -1042 -549 -1090 -22 -79 -15 -204 17 -299 26 -79 117 -241
139 -248 6 -2 30 52 54 119 163 459 358 766 620 978 112 91 128 123 141 283
27 331 93 623 195 863 26 60 151 316 280 569 225 445 324 667 312 699 -10 27
-68 19 -127 -16z"/>
<path d="M9334 4024 c-130 -98 -305 -284 -620 -659 -149 -178 -177 -205 -254
-246 -37 -19 -61 -24 -135 -25 -49 0 -98 -4 -107 -8 -20 -9 -36 -55 -76 -218
l-30 -118 70 0 c57 0 69 -3 65 -15 -4 -8 -75 -126 -160 -262 -376 -605 -421
-680 -449 -757 l-29 -78 68 7 c90 9 167 36 291 100 123 64 250 154 302 212 39
44 46 66 73 212 14 71 36 123 152 356 74 150 142 278 149 284 7 6 68 19 135
30 119 18 121 18 121 -1 0 -11 -47 -191 -104 -401 -129 -476 -140 -524 -127
-560 9 -24 16 -27 58 -27 40 0 69 12 187 76 196 106 187 94 192 248 2 69 15
223 29 341 14 118 25 251 25 295 0 93 9 103 100 114 112 14 544 117 584 139
40 22 86 77 86 103 0 18 -24 18 -410 -5 -173 -11 -316 -18 -317 -17 -2 1 37
126 86 277 170 525 174 537 169 591 -9 87 -21 88 -124 12z m-134 -353 c0 -17
-172 -496 -186 -518 -19 -30 -76 -45 -161 -41 l-71 3 200 283 c180 254 218
302 218 273z"/>
<path d="M11895 4006 c-352 -101 -331 -94 -344 -122 -6 -14 -18 -134 -26 -267
-26 -401 -52 -560 -116 -693 -17 -36 -104 -176 -194 -312 l-163 -245 -17 39
c-86 201 -271 675 -304 779 -65 207 -82 299 -87 485 -3 91 -10 177 -16 192
-12 32 -58 45 -100 29 -39 -15 -67 -58 -166 -261 -213 -437 -714 -1204 -1117
-1710 -101 -127 -195 -263 -195 -281 0 -19 57 -5 239 60 92 33 213 71 269 85
222 55 285 118 397 401 94 238 378 820 406 836 31 16 65 -27 224 -282 328
-528 431 -682 559 -839 132 -162 163 -178 231 -119 58 51 52 68 -77 210 -153
170 -171 196 -164 237 2 18 196 364 429 770 393 682 607 1059 607 1068 0 13
-82 -5 -275 -60z"/>
<path d="M8115 3873 c-16 -8 -43 -28 -60 -44 -32 -30 -92 -59 -123 -59 -11 0
-64 14 -118 31 -89 27 -110 30 -199 27 -161 -6 -230 -44 -441 -240 -343 -318
-628 -712 -738 -1018 -38 -105 -75 -262 -82 -351 -5 -56 -2 -90 11 -134 38
-131 143 -182 353 -173 187 9 292 62 475 238 202 195 757 793 786 849 18 33
12 61 -18 92 -44 44 -64 38 -118 -33 -67 -91 -449 -468 -577 -570 -126 -101
-326 -237 -366 -248 -38 -11 -69 7 -94 55 -17 33 -21 57 -20 140 0 87 4 111
32 184 87 230 239 456 462 684 170 175 329 304 414 337 62 23 86 -50 89 -281
2 -135 3 -142 26 -160 16 -13 39 -19 78 -19 73 0 110 20 122 68 5 20 17 68 27
106 21 83 85 217 149 311 61 88 78 129 70 166 -12 55 -78 75 -140 42z"/>
<path d="M5975 3810 c-168 -8 -280 -28 -421 -75 -241 -80 -663 -348 -719 -456
-22 -41 -19 -125 6 -176 15 -30 112 -131 335 -344 173 -165 314 -307 314 -314
0 -8 -34 -25 -82 -40 -69 -23 -1501 -738 -1804 -901 -95 -51 -131 -82 -140
-120 -15 -60 39 -91 130 -76 93 15 2420 965 2476 1011 26 21 36 37 38 63 3 35
-2 40 -220 234 -426 380 -598 548 -598 582 0 11 15 39 34 63 28 36 81 71 310
202 151 87 280 156 285 153 5 -4 -15 -46 -44 -94 -64 -104 -73 -133 -52 -166
28 -43 94 -60 205 -53 119 7 198 28 230 61 22 21 26 38 33 123 12 152 11 307
-3 321 -13 13 -55 13 -313 2z"/>
<path d="M3373 3660 c-265 -192 -543 -335 -779 -400 -44 -12 -83 -25 -87 -30
-5 -4 62 -21 148 -38 86 -17 159 -32 161 -35 2 -2 -14 -48 -36 -103 -58 -141
-355 -912 -450 -1168 -63 -169 -80 -226 -80 -268 0 -66 24 -108 76 -133 54
-25 158 -16 429 40 121 25 228 45 237 45 10 0 35 -16 57 -35 40 -36 71 -44 89
-22 6 6 46 84 90 172 147 295 406 713 793 1280 402 588 509 749 509 763 0 8
-7 11 -17 8 -10 -2 -160 -30 -333 -61 -173 -32 -319 -61 -323 -65 -4 -4 11
-20 33 -35 77 -53 87 -106 40 -212 -16 -38 -45 -113 -65 -168 -61 -169 -194
-428 -303 -590 -177 -264 -316 -413 -509 -550 -124 -88 -156 -95 -178 -41 -13
30 -12 42 5 112 38 153 25 120 468 1219 166 413 163 405 154 404 -4 0 -62 -40
-129 -89z"/>
</g>
</svg>
